<?xml version="1.0" standalone="no"?>
<!DOCTYPE svg PUBLIC "-//W3C//DTD SVG 1.1//EN" "http://www.w3.org/Graphics/SVG/1.1/DTD/svg11.dtd" >
<svg>
<metadata>
Created by FontForge 20120731 at Thu Nov 21 16:33:19 2019
 By www
Copyright (c) 2015 by Pascal Zoghbi. All rights reserved.
</metadata>
<defs>
<font id="ExpoArabic-Book" horiz-adv-x="0" >
  <font-face 
    font-family="Expo Arabic Book"
    font-weight="400"
    font-stretch="normal"
    units-per-em="2048"
    panose-1="0 0 5 0 0 0 0 0 0 0"
    ascent="1536"
    descent="-512"
    x-height="1024"
    cap-height="1407"
    bbox="-391 -999 2810 2259"
    underline-thickness="75"
    underline-position="-530"
    unicode-range="U+0020-FEFC"
  />
<missing-glyph horiz-adv-x="598" 
 />
    <glyph glyph-name="uniFEF5" unicode="&#xfedf;&#xfe82;" horiz-adv-x="1353" arabic-form="isolated" 
d="M35 184h485l-205 1000l172 43l197 -1043h59h2q131 0 195 65.5t64 201.5v1017l174 27v-1085q0 -410 -433 -410h-2h-675zM90 1337q4 90 52.5 144.5t130.5 54.5q30 0 55.5 -9.5t68.5 -27.5q74 -39 130 -39q37 0 81.5 13.5t77.5 35.5l-2 -121q-76 -47 -157 -47
q-35 0 -65 10.5t-67 30.5q-66 35 -108 35q-41 0 -65.5 -20.5t-30.5 -59.5h-101z" />
    <glyph glyph-name="uniFEF6" unicode="&#xfee0;&#xfe82;" horiz-adv-x="1419" arabic-form="final" 
d="M35 184h485l-205 1000l172 43l195 -1039q174 12 330 56q-23 78 -23 166l-2 1058l174 27v-1044q0 -135 63.5 -201t192.5 -66q20 0 21 -18l2 -146q0 -20 -21 -20q-219 0 -329 106q-96 -47 -247 -76.5t-270 -29.5h-505zM90 1337q4 90 52.5 144.5t130.5 54.5q30 0 55.5 -9.5
t68.5 -27.5q74 -39 130 -39q37 0 81.5 13.5t77.5 35.5l-2 -121q-76 -47 -157 -47q-35 0 -65 10.5t-67 30.5q-66 35 -108 35q-41 0 -65.5 -20.5t-30.5 -59.5h-101z" />
    <glyph glyph-name="uniFEF7" unicode="&#xfedf;&#xfe84;" horiz-adv-x="1353" arabic-form="isolated" 
d="M35 184h485l-205 1000l172 43l197 -1043h59h2q131 0 195 65.5t64 201.5v1017l174 27v-1085q0 -410 -433 -410h-2h-675zM119 1352v117h110q-33 53 -32 118q0 76 52 126t134 50q70 0 158 -38v-101q-72 31 -131 31q-45 0 -74 -25.5t-29 -64.5q0 -55 35 -96h266l-26 -117
h-463z" />
    <glyph glyph-name="uniFEF8" unicode="&#xfee0;&#xfe84;" horiz-adv-x="1419" arabic-form="final" 
d="M35 184h485l-205 1000l172 43l195 -1039q174 12 330 56q-23 78 -23 166l-2 1058l174 27v-1044q0 -135 63.5 -201t192.5 -66q20 0 21 -18l2 -146q0 -20 -21 -20q-219 0 -329 106q-96 -47 -247 -76.5t-270 -29.5h-505zM119 1352v117h110q-33 53 -32 118q0 76 52 126t134 50
q70 0 158 -38v-101q-72 31 -131 31q-45 0 -74 -25.5t-29 -64.5q0 -55 35 -96h266l-26 -117h-463z" />
    <glyph glyph-name="uniFEF9" unicode="&#xfedf;&#xfe88;" horiz-adv-x="1353" arabic-form="isolated" 
d="M35 184h485l-205 1000l172 43l197 -1043h59h2q131 0 195 65.5t64 201.5v1017l174 27v-1085q0 -410 -433 -410h-2h-675zM368 -404h113q-33 53 -33 119q0 76 52 126t132 50q72 0 160 -39v-100q-72 31 -131 31q-45 0 -73.5 -25t-28.5 -66q0 -59 34 -96h265l-27 -117h-463
v117z" />
    <glyph glyph-name="uniFEFA" unicode="&#xfee0;&#xfe88;" horiz-adv-x="1419" arabic-form="final" 
d="M35 184h485l-205 1000l172 43l195 -1039q174 12 330 56q-23 78 -23 166l-2 1058l174 27v-1044q0 -135 63.5 -201t192.5 -66q20 0 21 -18l2 -146q0 -20 -21 -20q-219 0 -329 106q-96 -47 -247 -76.5t-270 -29.5h-505zM362 -408h113q-33 53 -33 119q0 76 52 126t132 50
q72 0 160 -39v-100q-72 31 -131 31q-45 0 -73.5 -25t-28.5 -66q0 -59 34 -96h265l-27 -117h-463v117z" />
    <glyph glyph-name="uniFEFB" unicode="&#xfedf;&#xfe8e;" horiz-adv-x="1353" arabic-form="isolated" 
d="M35 184h485l-205 1000l172 43l197 -1043h59h2q131 0 195 65.5t64 201.5v1017l174 27v-1085q0 -410 -433 -410h-2h-675z" />
    <glyph glyph-name="uniFEFC" unicode="&#xfee0;&#xfe8e;" horiz-adv-x="1419" arabic-form="final" 
d="M35 184h485l-205 1000l172 43l195 -1039q174 12 330 56q-23 78 -23 166l-2 1058l174 27v-1044q0 -135 63.5 -201t192.5 -66q20 0 21 -18l2 -146q0 -20 -21 -20q-219 0 -329 106q-96 -47 -247 -76.5t-270 -29.5h-505z" />
    <glyph glyph-name="uni066E.init" unicode="&#x66e;" horiz-adv-x="569" 
d="M-20 20l2 146q0 18 20 18q125 0 191.5 64.5t66.5 191.5l-2 549l174 29v-625q0 -188 -109.5 -290.5t-322.5 -102.5q-20 0 -20 20z" />
    <glyph glyph-name="uni066E.medi" unicode="&#x66e;" horiz-adv-x="677" 
d="M-20 20l2 146q0 18 20 18q125 0 191.5 64.5t66.5 191.5l-2 332l174 27v-406q0 -72 -14 -123q127 -86 260 -86q20 0 20 -18v-146q0 -20 -20 -20q-174 0 -326 133q-109 -133 -352 -133q-20 0 -20 20z" />
    <glyph glyph-name="uni066E.fina" unicode="&#x66e;" horiz-adv-x="1781" 
d="M88 455q0 170 62 446l151 -20q-27 -135 -38 -221.5t-11 -157.5q0 -162 94 -240t285 -78h473q258 0 258 256v332l174 27v-406q0 -72 -14 -123q63 -43 125.5 -64.5t134.5 -21.5q20 0 20 -18v-146q0 -20 -20 -20q-174 0 -326 133q-104 -127 -330 -133h-4h-532
q-246 0 -374 114.5t-128 340.5z" />
    <glyph glyph-name="uni066F.fina" unicode="&#x66f;" horiz-adv-x="1574" 
d="M88 90q0 219 90 494l141 -39q-72 -211 -71 -410q2 -203 136 -309.5t372 -106.5q217 0 351 73t169 208h-250q-137 0 -242.5 57.5t-163 164t-57.5 249.5q0 145 59.5 260t164 178.5t235.5 63.5q127 0 224 -57.5t152.5 -162t55.5 -241.5v-328h121q20 0 20 -18v-146
q0 -20 -20 -20h-129q-35 -213 -218.5 -326.5t-512.5 -113.5q-184 0 -325.5 60.5t-221.5 179t-80 290.5zM723 479q0 -145 88 -223t238 -78q66 0 233 4l-2 316q0 135 -78 215t-205 80q-123 0 -198.5 -86t-75.5 -228z" />
    <glyph glyph-name="uni06A1.init" unicode="&#x6a1;" horiz-adv-x="1110" 
d="M-20 20v146q0 18 20 18h176q-92 190 -92 332q0 137 61.5 245.5t169 170t244.5 61.5q129 0 235.5 -61.5t167 -169t60.5 -238.5q0 -246 -152.5 -385t-420.5 -139h-449q-20 0 -20 20zM254 514q0 -147 102 -330h107q176 0 280.5 88t104.5 246q0 131 -85 216t-214 85
q-82 0 -149.5 -42t-106.5 -112.5t-39 -150.5z" />
    <glyph glyph-name="uni06A1.medi" unicode="&#x6a1;" horiz-adv-x="1153" 
d="M-20 20v146q0 18 20 18q178 0 319 13q-90 68 -139 160t-49 202q0 123 58.5 222.5t162 155.5t230.5 56q131 0 233.5 -58t159.5 -157.5t57 -218.5q0 -219 -188 -358q121 -16 309 -17q21 0 21 -18v-146q0 -20 -21 -20q-303 0 -563 76q-233 -76 -590 -76q-20 2 -20 20z
M301 541q0 -109 76 -197t203 -125q131 43 207.5 129t76.5 193q0 123 -83 201.5t-206 78.5q-120 0 -197 -78.5t-77 -201.5z" />
    <glyph glyph-name="uni06A1.fina" unicode="&#x6a1;" horiz-adv-x="1992" 
d="M88 444q0 150 43 351l154 -21q-33 -182 -33 -280q0 -160 94 -235t283 -75h217q207 0 321 13q-90 68 -139 158.5t-49 203.5q0 123 58.5 222.5t160.5 155.5t229 56q131 0 233.5 -58t161 -157.5t58.5 -218.5q0 -111 -49 -201t-141 -157q121 -16 309 -17q20 0 20 -18v-146
q0 -20 -20 -20q-311 0 -563 74q-223 -70 -568 -74h-2h-278q-244 0 -372 112.5t-128 331.5zM1147 541q0 -111 75.5 -198t202.5 -126q133 45 209 131t76 193q0 123 -82 201.5t-205 78.5q-120 0 -198 -78.5t-78 -201.5z" />
    <glyph glyph-name="uniFB6B" unicode="&#x6a4;" horiz-adv-x="1992" arabic-form="final" 
d="M88 444q0 139 45 351l152 -21q-33 -182 -33 -280q0 -160 94 -235t283 -75h217q207 0 321 13q-92 68 -141 160t-49 202q0 123 58.5 222.5t161.5 155.5t230 56q131 0 233.5 -58t160 -157.5t57.5 -218.5q0 -109 -49 -200t-139 -158q121 -16 309 -17q20 0 20 -18v-146
q0 -20 -20 -20q-311 0 -563 74q-223 -70 -566 -74h-2h-280q-244 0 -372 112.5t-128 331.5zM1122 1321l150 147l149 -147l-147 -150zM1147 541q0 -111 74.5 -198t203.5 -126q133 45 209 131t76 193q0 123 -83 201.5t-206 78.5q-121 0 -197.5 -78.5t-76.5 -201.5zM1335 1571
l107 108l108 -108l-106 -107zM1460 1321l152 147l149 -147l-149 -150z" />
    <glyph glyph-name="uniFB6C" unicode="&#x6a4;" horiz-adv-x="1110" arabic-form="initial" 
d="M-20 20v146q0 18 20 18h176q-92 190 -92 332q0 137 61.5 245.5t169 170t244.5 61.5q129 0 235.5 -61.5t167 -169t60.5 -238.5q0 -246 -152.5 -385t-420.5 -139h-449q-20 0 -20 20zM226 1321l149 148l150 -148l-148 -149zM254 514q0 -147 102 -330h107q176 0 280.5 88
t104.5 246q0 131 -85 216t-214 85q-82 0 -149.5 -42t-106.5 -112.5t-39 -150.5zM439 1571l106 109l109 -109l-107 -107zM563 1321l152 148l149 -148l-149 -149z" />
    <glyph glyph-name="uniFB6D" unicode="&#x6a4;" horiz-adv-x="1153" arabic-form="medial" 
d="M-20 20v146q0 18 20 18q178 0 319 13q-90 68 -139 160t-49 202q0 123 58.5 222.5t162 155.5t230.5 56q131 0 233.5 -58t159.5 -157.5t57 -218.5q0 -219 -188 -358q121 -16 309 -17q21 0 21 -18v-146q0 -20 -21 -20q-303 0 -563 76q-233 -76 -590 -76q-20 2 -20 20z
M259 1321l149 148l150 -148l-148 -149zM301 541q0 -109 76 -197t203 -125q131 43 207.5 129t76.5 193q0 123 -83 201.5t-206 78.5q-120 0 -197 -78.5t-77 -201.5zM472 1571l106 109l109 -109l-107 -107zM596 1321l152 148l149 -148l-149 -149z" />
    <glyph glyph-name="uniFB9F" unicode="&#x6ba;" horiz-adv-x="1468" arabic-form="final" 
d="M88 90q0 219 90 494l141 -39q-72 -211 -71 -410q2 -193 108.5 -292t300.5 -99q205 0 304.5 115.5t99.5 357.5v772l172 29v-590l2 -16q10 -129 73.5 -178.5t159.5 -49.5q21 0 21 -18v-146q0 -20 -21 -20q-78 0 -138 30.5t-99 90.5q-18 -262 -161.5 -411.5t-422.5 -149.5
q-258 0 -408.5 134t-150.5 396z" />
    <glyph glyph-name="uniFE82" unicode="&#x622;" horiz-adv-x="608" arabic-form="final" 
d="M-45 1360q4 90 52.5 144.5t130.5 54.5q30 0 55.5 -9.5t68.5 -27.5q74 -39 130 -39q37 0 81.5 13.5t77.5 35.5l-2 -121q-76 -47 -157 -47q-35 0 -65 10.5t-67 30.5q-66 35 -108 35q-41 0 -65.5 -20.5t-30.5 -59.5h-101zM176 1208l174 27v-784q0 -135 63.5 -201t192.5 -66
q20 0 21 -18l2 -146q0 -20 -21 -20q-217 0 -323.5 102.5t-106.5 307.5z" />
    <glyph glyph-name="uniFE84" unicode="&#x623;" horiz-adv-x="608" arabic-form="final" 
d="M27 1344v117h110q-33 53 -32 118q0 76 52 126t134 50q70 0 158 -38v-101q-72 31 -131 31q-45 0 -74 -25.5t-29 -64.5q0 -55 35 -96h266l-26 -117h-463zM176 1208l174 27v-784q0 -135 63.5 -201t192.5 -66q20 0 21 -18l2 -146q0 -20 -21 -20q-217 0 -323.5 102.5
t-106.5 307.5z" />
    <glyph glyph-name="uniFE86" unicode="&#x624;" horiz-adv-x="1107" arabic-form="final" 
d="M88 487q0 145 61.5 258t169 176.5t242.5 63.5q125 0 222.5 -57.5t151.5 -160.5t54 -241v-342h119q20 0 20 -18v-146q0 -20 -20 -20h-121q-37 -440 -762 -440l-20 149q285 0 436.5 69.5t171.5 221.5h-246q-143 0 -251.5 59.5t-168 169t-59.5 258.5zM250 496
q0 -154 92 -236t248 -82q66 0 225 4v330q0 133 -74.5 214t-195.5 81q-127 0 -211 -86t-84 -225zM286 1167v137h125q-39 59 -39 127q0 90 60.5 146.5t157.5 56.5q76 0 157 -41v-125q-90 31 -139 31q-53 0 -85 -26.5t-32 -71.5q0 -51 39 -97h283l-41 -137h-486z" />
    <glyph glyph-name="uniFE88" unicode="&#x625;" horiz-adv-x="608" arabic-form="final" 
d="M26 -402h113q-33 53 -33 119q0 76 52 126t132 50q72 0 160 -39v-100q-72 31 -131 31q-45 0 -73.5 -25t-28.5 -66q0 -59 34 -96h265l-27 -117h-463v117zM176 1468l174 27v-1044q0 -135 63.5 -201t192.5 -66q20 0 21 -18l2 -146q0 -20 -21 -20q-217 0 -323.5 102.5
t-106.5 307.5z" />
    <glyph glyph-name="uniFE8A" unicode="&#x626;" horiz-adv-x="2076" arabic-form="final" 
d="M34 749v137h125q-39 59 -39 127q0 90 60.5 146.5t157.5 56.5q76 0 157 -41v-125q-90 31 -139 31q-53 0 -85 -26.5t-32 -71.5q0 -51 39 -97h283l-41 -137h-486zM88 90q0 219 90 494l141 -39q-72 -211 -71 -410q2 -193 108.5 -292t300.5 -99q150 0 238 42t127 137t39 259
v385q0 188 105.5 298t303.5 110h246l119 -105v-686h242q20 0 20 -18v-146q0 -20 -20 -20h-416v791h-166q-125 0 -193.5 -64.5t-68.5 -189.5v-373q0 -197 -53.5 -329t-182.5 -203.5t-350 -71.5q-258 0 -408.5 134t-150.5 396z" />
    <glyph glyph-name="uniFE8B" unicode="&#x626;" horiz-adv-x="722" arabic-form="initial" 
d="M-20 20l2 146q0 18 20 18h156q125 0 190.5 64.5t65.5 191.5v549l172 29v-625q0 -188 -108.5 -290.5t-321.5 -102.5h-156q-20 0 -20 20zM186 1143v137h125q-39 59 -39 127q0 90 60.5 146.5t157.5 56.5q76 0 157 -41v-125q-90 31 -139 31q-53 0 -85 -26.5t-32 -71.5
q0 -51 39 -97h283l-41 -137h-486z" />
    <glyph glyph-name="uniFE8C" unicode="&#x626;" horiz-adv-x="770" arabic-form="medial" 
d="M-20 20l2 146q0 18 20 18q164 0 238.5 60.5t74.5 195.5v332l172 27v-406q0 -51 -10 -106q137 -102 293 -103q21 0 21 -18v-146q0 -20 -21 -20q-92 0 -182 38t-170 112q-111 -150 -418 -150q-20 0 -20 20zM155 928v137h125q-39 59 -39 127q0 90 60.5 146.5t157.5 56.5
q76 0 157 -41v-125q-90 31 -139 31q-53 0 -85 -26.5t-32 -71.5q0 -51 39 -97h283l-41 -137h-486z" />
    <glyph glyph-name="uniFE8E" unicode="&#x627;" horiz-adv-x="608" arabic-form="final" 
d="M176 1468l174 27v-1044q0 -135 63.5 -201t192.5 -66q20 0 21 -18l2 -146q0 -20 -21 -20q-217 0 -323.5 102.5t-106.5 307.5z" />
    <glyph glyph-name="uniFE90" unicode="&#x628;" horiz-adv-x="1781" arabic-form="final" 
d="M88 455q0 170 62 446l151 -20q-27 -135 -38 -221.5t-11 -157.5q0 -162 94 -240t285 -78h473q258 0 258 256v332l174 27v-406q0 -72 -14 -123q63 -43 125.5 -64.5t134.5 -21.5q20 0 20 -18v-146q0 -20 -20 -20q-174 0 -326 133q-104 -127 -330 -133h-4h-532
q-246 0 -374 114.5t-128 340.5zM718 -309l148 149l154 -149l-150 -148z" />
    <glyph glyph-name="uniFE91" unicode="&#x628;" horiz-adv-x="569" arabic-form="initial" 
d="M-20 20l2 146q0 18 20 18q125 0 191.5 64.5t66.5 191.5l-2 549l174 29v-625q0 -188 -109.5 -290.5t-322.5 -102.5q-20 0 -20 20zM71 -311l148 149l154 -149l-150 -148z" />
    <glyph glyph-name="uniFE92" unicode="&#x628;" horiz-adv-x="677" arabic-form="medial" 
d="M-20 20l2 146q0 18 20 18q125 0 191.5 64.5t66.5 191.5l-2 332l174 27v-406q0 -72 -14 -123q127 -86 260 -86q20 0 20 -18v-146q0 -20 -20 -20q-174 0 -326 133q-109 -133 -352 -133q-20 0 -20 20zM176 -313l148 149l154 -149l-150 -148z" />
    <glyph glyph-name="uniFE94" unicode="&#x629;" horiz-adv-x="1193" arabic-form="final" 
d="M74 473q0 137 60.5 255t168 187.5t242.5 69.5q125 0 274 -57v127l172 28l2 -669q0 -123 47 -176.5t154 -53.5q20 0 20 -18v-146q0 -20 -20 -20q-188 0 -279 88q-104 -53 -192 -79.5t-178 -26.5q-137 0 -244.5 64.5t-167 177t-59.5 249.5zM232 1327l149 148l150 -148
l-150 -147zM240 475q0 -137 88 -227t227 -90q131 -1 285 69q-20 70 -21 170v357q-82 27 -142.5 41t-125.5 14q-90 0 -162 -45t-110.5 -121t-38.5 -168zM555 1327l152 148l149 -148l-149 -147z" />
    <glyph glyph-name="uniFE96" unicode="&#x62a;" horiz-adv-x="1781" arabic-form="final" 
d="M88 455q0 170 62 446l151 -20q-27 -135 -38 -221.5t-11 -157.5q0 -162 94 -240t285 -78h473q258 0 258 256v332l174 27v-406q0 -72 -14 -123q63 -43 125.5 -64.5t134.5 -21.5q20 0 20 -18v-146q0 -20 -20 -20q-174 0 -326 133q-104 -127 -330 -133h-4h-532
q-246 0 -374 114.5t-128 340.5zM574 1087l149 148l150 -148l-150 -147zM897 1087l152 148l149 -148l-149 -147z" />
    <glyph glyph-name="uniFE97" unicode="&#x62a;" horiz-adv-x="763" arabic-form="initial" 
d="M-20 20l2 146q0 18 20 18h156q125 0 190.5 64.5t65.5 191.5v549l172 29v-625q0 -188 -108.5 -290.5t-321.5 -102.5h-156q-20 0 -20 20zM172 1325l149 148l150 -148l-150 -147zM495 1325l152 148l149 -148l-149 -147z" />
    <glyph glyph-name="uniFE98" unicode="&#x62a;" horiz-adv-x="770" arabic-form="medial" 
d="M-20 20l2 146q0 18 20 18q164 0 238.5 60.5t74.5 195.5v332l172 27v-406q0 -51 -10 -106q137 -102 293 -103q21 0 21 -18v-146q0 -20 -21 -20q-92 0 -182 38t-170 112q-111 -150 -418 -150q-20 0 -20 20zM78 1094l149 148l150 -148l-150 -147zM401 1094l152 148l149 -148
l-149 -147z" />
    <glyph glyph-name="uniFE9A" unicode="&#x62b;" horiz-adv-x="1781" arabic-form="final" 
d="M88 455q0 170 62 446l151 -20q-27 -135 -38 -221.5t-11 -157.5q0 -162 94 -240t285 -78h473q258 0 258 256v332l174 27v-406q0 -72 -14 -123q63 -43 125.5 -64.5t134.5 -21.5q20 0 20 -18v-146q0 -20 -20 -20q-174 0 -326 133q-104 -127 -330 -133h-4h-532
q-246 0 -374 114.5t-128 340.5zM572 1081l149 148l150 -148l-148 -149zM785 1331l106 109l109 -109l-107 -107zM909 1081l152 148l149 -148l-149 -149z" />
    <glyph glyph-name="uniFE9B" unicode="&#x62b;" horiz-adv-x="778" arabic-form="initial" 
d="M-20 20l2 146q0 18 20 18h156q125 0 190.5 64.5t65.5 191.5v549l172 29v-625q0 -188 -108.5 -290.5t-321.5 -102.5h-156q-20 0 -20 20zM168 1327l149 148l150 -148l-148 -149zM381 1577l106 109l109 -109l-107 -107zM505 1327l152 148l149 -148l-149 -149z" />
    <glyph glyph-name="uniFE9C" unicode="&#x62b;" horiz-adv-x="770" arabic-form="medial" 
d="M-20 20l2 146q0 18 20 18q164 0 238.5 60.5t74.5 195.5v332l172 27v-406q0 -51 -10 -106q137 -102 293 -103q21 0 21 -18v-146q0 -20 -21 -20q-92 0 -182 38t-170 112q-111 -150 -418 -150q-20 0 -20 20zM76 1096l149 148l150 -148l-148 -149zM289 1346l106 109l109 -109
l-107 -107zM413 1096l152 148l149 -148l-149 -149z" />
    <glyph glyph-name="uniFE9E" unicode="&#x62c;" horiz-adv-x="1335" arabic-form="final" 
d="M86 -80q0 254 223 415t682 202q-156 152 -259 233.5t-183 115.5t-162 34q-43 0 -84 -7.5t-115 -25.5l-36 155q154 57 260 58q98 0 195.5 -44t233.5 -153.5t357 -318.5l-72 -195q-53 0 -79 -2q2 -86 26.5 -128t85 -58.5t176.5 -16.5q21 0 21 -18v-146q0 -20 -21 -20
q-201 0 -292 77t-91 245v59q-334 -27 -516 -146.5t-182 -297.5q0 -154 111.5 -238t314.5 -84q88 0 182 17.5t244 58.5l47 -150q-289 -104 -510 -104q-258 0 -407.5 126t-149.5 357zM583 25l148 149l154 -149l-150 -148z" />
    <glyph glyph-name="uniFE9F" unicode="&#x62c;" horiz-adv-x="1202" arabic-form="initial" 
d="M-20 20v146q0 18 22 18q246 0 481.5 59.5t479.5 178.5q-182 152 -293 229.5t-185.5 106t-150.5 28.5q-35 0 -76 -7t-72.5 -14t-52.5 -11l-35 155q152 57 262 58q93 0 181 -36t223 -133.5t377 -297.5l-27 -170q-319 -170 -580.5 -250t-531.5 -80q-23 0 -22 20zM432 -299
l148 149l154 -149l-150 -148z" />
    <glyph glyph-name="uniFEA0" unicode="&#x62c;" horiz-adv-x="1300" arabic-form="medial" 
d="M-20 20v146q0 18 22 18q246 0 481.5 59.5t479.5 178.5q-182 152 -293 229.5t-185.5 106t-150.5 28.5q-35 0 -76 -7t-72.5 -14t-52.5 -11l-35 155q152 57 262 58q92 0 180.5 -36t223.5 -133.5t377 -297.5l-27 -170q-57 -33 -117 -62q51 -84 211 -84h92q21 0 21 -18v-146
q0 -20 -21 -20h-94q-129 0 -208.5 57.5t-106.5 159.5q-242 -111 -455 -164t-434 -53q-23 0 -22 20zM473 -299l148 149l154 -149l-150 -148z" />
    <glyph glyph-name="uniFEA2" unicode="&#x62d;" horiz-adv-x="1335" arabic-form="final" 
d="M86 -80q0 254 223 415t682 202q-156 152 -259 233.5t-183 115.5t-162 34q-43 0 -84 -7.5t-115 -25.5l-36 155q154 57 260 58q98 0 195.5 -44t233.5 -153.5t357 -318.5l-72 -195q-53 0 -79 -2q2 -86 26.5 -128t85 -58.5t176.5 -16.5q21 0 21 -18v-146q0 -20 -21 -20
q-201 0 -292 77t-91 245v59q-334 -27 -516 -146.5t-182 -297.5q0 -154 111.5 -238t314.5 -84q88 0 182 17.5t244 58.5l47 -150q-289 -104 -510 -104q-258 0 -407.5 126t-149.5 357z" />
    <glyph glyph-name="uniFEA3" unicode="&#x62d;" horiz-adv-x="1202" arabic-form="initial" 
d="M-20 20v146q0 18 22 18q246 0 481.5 59.5t479.5 178.5q-182 152 -293 229.5t-185.5 106t-150.5 28.5q-35 0 -76 -7t-72.5 -14t-52.5 -11l-35 155q152 57 262 58q93 0 181 -36t223 -133.5t377 -297.5l-27 -170q-319 -170 -580.5 -250t-531.5 -80q-23 0 -22 20z" />
    <glyph glyph-name="uniFEA4" unicode="&#x62d;" horiz-adv-x="1300" arabic-form="medial" 
d="M-20 20v146q0 18 22 18q246 0 481.5 59.5t479.5 178.5q-182 152 -293 229.5t-185.5 106t-150.5 28.5q-35 0 -76 -7t-72.5 -14t-52.5 -11l-35 155q152 57 262 58q92 0 180.5 -36t223.5 -133.5t377 -297.5l-27 -170q-57 -33 -117 -62q51 -84 211 -84h92q21 0 21 -18v-146
q0 -20 -21 -20h-94q-129 0 -208.5 57.5t-106.5 159.5q-242 -111 -455 -164t-434 -53q-23 0 -22 20z" />
    <glyph glyph-name="uniFEA6" unicode="&#x62e;" horiz-adv-x="1335" arabic-form="final" 
d="M86 -80q0 254 223 415t682 202q-156 152 -259 233.5t-183 115.5t-162 34q-43 0 -84 -7.5t-115 -25.5l-36 155q154 57 260 58q98 0 195.5 -44t233.5 -153.5t357 -318.5l-72 -195q-53 0 -79 -2q2 -86 26.5 -128t85 -58.5t176.5 -16.5q21 0 21 -18v-146q0 -20 -21 -20
q-201 0 -292 77t-91 245v59q-334 -27 -516 -146.5t-182 -297.5q0 -154 111.5 -238t314.5 -84q88 0 182 17.5t244 58.5l47 -150q-289 -104 -510 -104q-258 0 -407.5 126t-149.5 357zM714 1305l148 147l154 -147l-150 -150z" />
    <glyph glyph-name="uniFEA7" unicode="&#x62e;" horiz-adv-x="1202" arabic-form="initial" 
d="M-20 20v146q0 18 22 18q246 0 481.5 59.5t479.5 178.5q-182 152 -293 229.5t-185.5 106t-150.5 28.5q-35 0 -76 -7t-72.5 -14t-52.5 -11l-35 155q152 57 262 58q93 0 181 -36t223 -133.5t377 -297.5l-27 -170q-319 -170 -580.5 -250t-531.5 -80q-23 0 -22 20zM428 1276
l148 147l154 -147l-150 -150z" />
    <glyph glyph-name="uniFEA8" unicode="&#x62e;" horiz-adv-x="1300" arabic-form="medial" 
d="M-20 20v146q0 18 22 18q246 0 481.5 59.5t479.5 178.5q-182 152 -293 229.5t-185.5 106t-150.5 28.5q-35 0 -76 -7t-72.5 -14t-52.5 -11l-35 155q152 57 262 58q92 0 180.5 -36t223.5 -133.5t377 -297.5l-27 -170q-57 -33 -117 -62q51 -84 211 -84h92q21 0 21 -18v-146
q0 -20 -21 -20h-94q-129 0 -208.5 57.5t-106.5 159.5q-242 -111 -455 -164t-434 -53q-23 0 -22 20zM438 1276l148 147l154 -147l-150 -150z" />
    <glyph glyph-name="uniFEAA" unicode="&#x62f;" horiz-adv-x="1218" arabic-form="final" 
d="M20 184h517q125 0 191.5 61.5t66.5 174.5l-2 119q-2 125 -89.5 202.5t-222.5 77.5h-121v180h158q129 0 230.5 -54t160 -153.5t58.5 -230.5l2 -168q0 -53 -15 -119q127 -90 265 -90q20 0 20 -18v-146q0 -20 -20 -20q-180 0 -328 137q-113 -137 -356 -137h-480z" />
    <glyph glyph-name="uniFEAC" unicode="&#x630;" horiz-adv-x="1218" arabic-form="final" 
d="M20 184h517q125 0 191.5 61.5t66.5 174.5l-2 119q-2 125 -89.5 202.5t-222.5 77.5h-121v180h158q129 0 230.5 -54t160 -153.5t58.5 -230.5l2 -168q0 -53 -15 -119q127 -90 265 -90q20 0 20 -18v-146q0 -20 -20 -20q-180 0 -328 137q-113 -137 -356 -137h-480zM337 1344
l148 147l154 -147l-150 -150z" />
    <glyph glyph-name="uniFEAE" unicode="&#x631;" horiz-adv-x="712" arabic-form="final" 
d="M-61 -291q178 0 273 86t95 266l-2 928l174 29v-639q8 -109 73.5 -152t158.5 -43q20 0 20 -18v-146q0 -20 -20 -20q-158 0 -232 109v-54q0 -256 -131 -375.5t-393 -119.5z" />
    <glyph glyph-name="uniFEB0" unicode="&#x632;" horiz-adv-x="712" arabic-form="final" 
d="M-61 -291q178 0 273 86t95 266l-2 928l174 29v-639q8 -109 73.5 -152t158.5 -43q20 0 20 -18v-146q0 -20 -20 -20q-158 0 -232 109v-54q0 -256 -131 -375.5t-393 -119.5zM245 1323l148 147l154 -147l-150 -150z" />
    <glyph glyph-name="uniFEB2" unicode="&#x633;" horiz-adv-x="2789" arabic-form="final" 
d="M88 90q0 219 90 494l141 -39q-72 -211 -71 -410q2 -193 108.5 -292t300.5 -99q205 0 304.5 115.5t99.5 357.5v772l172 29v-762q63 -33 132 -52.5t124 -19.5q258 0 258 256v332l174 27v-406q0 -82 -27 -157q127 -51 238 -52q125 0 190.5 64.5t65.5 191.5v549l174 29v-625
q0 -68 -16 -133q117 -76 243 -76q21 0 21 -18v-146q0 -20 -21 -20q-168 0 -313 123q-100 -123 -322 -123q-162 0 -339 109q-109 -109 -312 -109q-129 0 -274 86q-27 -246 -170.5 -386t-411.5 -140q-258 0 -408.5 134t-150.5 396z" />
    <glyph glyph-name="uniFEB3" unicode="&#x633;" horiz-adv-x="1810" arabic-form="initial" 
d="M-20 20v146q0 18 20 18q125 0 191.5 64.5t66.5 191.5l-2 332l174 27v-406q0 -86 -24 -157q119 -49 212 -50q258 0 259 256l-3 332l175 27v-406q0 -90 -27 -157q127 -51 238 -52q125 0 191.5 64.5t66.5 191.5v549l172 29v-625q0 -188 -102.5 -290.5t-303.5 -102.5
q-164 0 -342 109q-109 -109 -311 -109q-147 0 -305 107q-113 -109 -326 -109q-20 0 -20 20z" />
    <glyph glyph-name="uniFEB4" unicode="&#x633;" horiz-adv-x="1923" arabic-form="medial" 
d="M-20 20v146q0 18 20 18q125 0 191.5 64.5t66.5 191.5l-2 332l174 27v-406q0 -86 -24 -157q119 -49 212 -50q258 0 259 256l-3 332l175 27v-406q0 -90 -27 -157q127 -51 238 -52q125 0 191.5 64.5t66.5 191.5v549l172 29v-625q0 -68 -17 -133q119 -78 250 -78q21 0 21 -18
v-146q0 -20 -21 -20q-170 0 -317 125q-104 -123 -322 -123q-164 0 -342 109q-109 -109 -311 -109q-147 0 -305 107q-113 -109 -326 -109q-20 0 -20 20z" />
    <glyph glyph-name="uniFEB6" unicode="&#x634;" horiz-adv-x="2789" arabic-form="final" 
d="M88 90q0 219 90 494l141 -39q-72 -211 -71 -410q2 -193 108.5 -292t300.5 -99q205 0 304.5 115.5t99.5 357.5v772l172 29v-762q63 -33 132 -52.5t124 -19.5q258 0 258 256v332l174 27v-406q0 -82 -27 -157q127 -51 238 -52q125 0 190.5 64.5t65.5 191.5v549l174 29v-625
q0 -68 -16 -133q117 -76 243 -76q21 0 21 -18v-146q0 -20 -21 -20q-168 0 -313 123q-100 -123 -322 -123q-162 0 -339 109q-109 -109 -312 -109q-129 0 -274 86q-27 -246 -170.5 -386t-411.5 -140q-258 0 -408.5 134t-150.5 396zM1514 1243l149 148l150 -148l-148 -149z
M1727 1493l106 109l109 -109l-107 -107zM1851 1243l152 148l149 -148l-149 -149z" />
    <glyph glyph-name="uniFEB7" unicode="&#x634;" horiz-adv-x="1810" arabic-form="initial" 
d="M-20 20v146q0 18 20 18q125 0 191.5 64.5t66.5 191.5l-2 332l174 27v-406q0 -86 -24 -157q119 -49 212 -50q258 0 259 256l-3 332l175 27v-406q0 -90 -27 -157q127 -51 238 -52q125 0 191.5 64.5t66.5 191.5v549l172 29v-625q0 -188 -102.5 -290.5t-303.5 -102.5
q-164 0 -342 109q-109 -109 -311 -109q-147 0 -305 107q-113 -109 -326 -109q-20 0 -20 20zM633 1245l149 148l150 -148l-148 -149zM846 1495l106 109l109 -109l-107 -107zM970 1245l152 148l149 -148l-149 -149z" />
    <glyph glyph-name="uniFEB8" unicode="&#x634;" horiz-adv-x="1923" arabic-form="medial" 
d="M-20 20v146q0 18 20 18q125 0 191.5 64.5t66.5 191.5l-2 332l174 27v-406q0 -86 -24 -157q119 -49 212 -50q258 0 259 256l-3 332l175 27v-406q0 -90 -27 -157q127 -51 238 -52q125 0 191.5 64.5t66.5 191.5v549l172 29v-625q0 -68 -17 -133q119 -78 250 -78q21 0 21 -18
v-146q0 -20 -21 -20q-170 0 -317 125q-104 -123 -322 -123q-164 0 -342 109q-109 -109 -311 -109q-147 0 -305 107q-113 -109 -326 -109q-20 0 -20 20zM629 1245l149 148l150 -148l-148 -149zM842 1495l106 109l109 -109l-107 -107zM966 1245l152 148l149 -148l-149 -149z
" />
    <glyph glyph-name="uniFEBA" unicode="&#x635;" horiz-adv-x="2717" arabic-form="final" 
d="M88 90q0 219 90 494l141 -39q-72 -211 -71 -410q2 -193 108.5 -292t300.5 -99q205 0 304.5 115.5t99.5 357.5v772l172 29v-246q317 137 480 187.5t317 50.5q127 0 229 -56.5t159.5 -158t55.5 -228.5v-174q0 -63 -16 -123q127 -86 260 -86q20 0 20 -18v-146q0 -20 -20 -20
q-174 0 -326 135q-111 -135 -354 -135h-824q-41 -209 -181 -324.5t-386 -115.5q-258 0 -408.5 134t-150.5 396zM1233 184h807q125 0 192.5 61.5t67.5 178.5v119q0 129 -86 207.5t-221 78.5q-125 0 -241 -32.5t-417 -141.5q-41 -16 -102 -37v-419v-15z" />
    <glyph glyph-name="uniFEBB" unicode="&#x635;" horiz-adv-x="1712" arabic-form="initial" 
d="M-20 20l2 146q0 18 20 18h203l-2 805l174 29v-246q315 135 480 186.5t319 51.5q127 0 229 -56.5t159.5 -156t57.5 -224.5q0 -94 -15.5 -170.5t-58.5 -244.5l-137 -158h-1122h-289q-20 0 -20 20zM377 184h1003q37 123 52.5 204t15.5 161q-2 123 -89 201.5t-220 78.5
q-96 0 -183.5 -17t-203 -56t-375.5 -135v-437z" />
    <glyph glyph-name="uniFEBC" unicode="&#x635;" horiz-adv-x="1873" arabic-form="medial" 
d="M-20 20v146q2 18 20 18h205l-2 805l174 29v-246q319 137 482 187.5t317 50.5q127 0 229 -56.5t159.5 -158t55.5 -228.5v-174q0 -51 -14 -117q131 -92 268 -92q20 0 20 -18v-146q0 -20 -20 -20q-180 0 -332 139q-111 -139 -358 -139h-895h-289q-20 0 -20 20zM377 184h809
q125 0 192.5 61.5t67.5 178.5v119q0 129 -86 207.5t-221 78.5q-96 0 -183.5 -17t-207 -57t-371.5 -134v-437z" />
    <glyph glyph-name="uniFEBE" unicode="&#x636;" horiz-adv-x="2717" arabic-form="final" 
d="M88 90q0 219 90 494l141 -39q-72 -211 -71 -410q2 -193 108.5 -292t300.5 -99q205 0 304.5 115.5t99.5 357.5v772l172 29v-246q317 137 480 187.5t317 50.5q127 0 229 -56.5t159.5 -158t55.5 -228.5v-174q0 -63 -16 -123q127 -86 260 -86q20 0 20 -18v-146q0 -20 -20 -20
q-174 0 -326 135q-111 -135 -354 -135h-824q-41 -209 -181 -324.5t-386 -115.5q-258 0 -408.5 134t-150.5 396zM1233 184h807q125 0 192.5 61.5t67.5 178.5v119q0 129 -86 207.5t-221 78.5q-125 0 -241 -32.5t-417 -141.5q-41 -16 -102 -37v-419v-15zM1490 1346l148 147
l154 -147l-150 -150z" />
    <glyph glyph-name="uniFEBF" unicode="&#x636;" horiz-adv-x="1712" arabic-form="initial" 
d="M-20 20l2 146q0 18 20 18h203l-2 805l174 29v-246q315 135 480 186.5t319 51.5q127 0 229 -56.5t159.5 -156t57.5 -224.5q0 -94 -15.5 -170.5t-58.5 -244.5l-137 -158h-1122h-289q-20 0 -20 20zM377 184h1003q37 123 52.5 204t15.5 161q-2 123 -89 201.5t-220 78.5
q-96 0 -183.5 -17t-203 -56t-375.5 -135v-437zM743 1346l148 147l154 -147l-150 -150z" />
    <glyph glyph-name="uniFEC0" unicode="&#x636;" horiz-adv-x="1873" arabic-form="medial" 
d="M-20 20v146q2 18 20 18h205l-2 805l174 29v-246q319 137 482 187.5t317 50.5q127 0 229 -56.5t159.5 -158t55.5 -228.5v-174q0 -51 -14 -117q131 -92 268 -92q20 0 20 -18v-146q0 -20 -20 -20q-180 0 -332 139q-111 -139 -358 -139h-895h-289q-20 0 -20 20zM377 184h809
q125 0 192.5 61.5t67.5 178.5v119q0 129 -86 207.5t-221 78.5q-96 0 -183.5 -17t-207 -57t-371.5 -134v-437zM743 1346l148 147l154 -147l-150 -150z" />
    <glyph glyph-name="uniFEC2" unicode="&#x637;" horiz-adv-x="2002" arabic-form="final" 
d="M35 184h297v1284l174 27v-725q315 137 480 188.5t319 51.5q127 0 229 -56.5t159.5 -158t55.5 -228.5v-174q0 -68 -14 -117q131 -92 268 -92q20 0 20 -18v-146q0 -20 -20 -20q-180 0 -332 139q-111 -139 -358 -139h-895h-86h-264zM506 184h809q125 0 192.5 61.5
t67.5 178.5v119q0 129 -86 207.5t-221 78.5q-96 0 -183.5 -17t-207 -58t-371.5 -136v-434z" />
    <glyph glyph-name="uniFEC3" unicode="&#x637;" horiz-adv-x="1712" arabic-form="initial" 
d="M-20 20l2 146q0 18 20 18h201v1284l174 27v-477v-246q315 135 480 186.5t319 51.5q127 0 229 -56.5t159.5 -156t57.5 -224.5q0 -94 -15.5 -170.5t-58.5 -244.5l-137 -158h-1034h-174h-203q-20 0 -20 20zM377 184h1003q37 123 52.5 204t15.5 161q-2 123 -89 201.5
t-220 78.5q-96 0 -183.5 -17t-203 -56t-375.5 -135v-437z" />
    <glyph glyph-name="uniFEC4" unicode="&#x637;" horiz-adv-x="1873" arabic-form="medial" 
d="M-20 20v146q2 18 20 18h203v1284l174 27v-477v-246q319 137 482 187.5t317 50.5q127 0 229 -56.5t159.5 -158t55.5 -228.5v-174q0 -51 -14 -117q131 -92 268 -92q20 0 20 -18v-146q0 -20 -20 -20q-180 0 -332 139q-111 -139 -358 -139h-807h-174h-203q-20 0 -20 20z
M377 184h809q125 0 192.5 61.5t67.5 178.5v119q0 129 -86 207.5t-221 78.5q-96 0 -183.5 -17t-207 -57t-371.5 -134v-437z" />
    <glyph glyph-name="uniFEC6" unicode="&#x638;" horiz-adv-x="2002" arabic-form="final" 
d="M35 184h297v1284l174 27v-725q315 137 480 188.5t319 51.5q127 0 229 -56.5t159.5 -158t55.5 -228.5v-174q0 -68 -14 -117q131 -92 268 -92q20 0 20 -18v-146q0 -20 -20 -20q-180 0 -332 139q-111 -139 -358 -139h-895h-86h-264zM506 184h809q125 0 192.5 61.5
t67.5 178.5v119q0 129 -86 207.5t-221 78.5q-96 0 -183.5 -17t-207 -58t-371.5 -136v-434zM808 1346l148 147l154 -147l-150 -150z" />
    <glyph glyph-name="uniFEC7" unicode="&#x638;" horiz-adv-x="1712" arabic-form="initial" 
d="M-20 20l2 146q0 18 20 18h201v1284l174 27v-477v-246q315 135 480 186.5t319 51.5q127 0 229 -56.5t159.5 -156t57.5 -224.5q0 -94 -15.5 -170.5t-58.5 -244.5l-137 -158h-1034h-174h-203q-20 0 -20 20zM377 184h1003q37 123 52.5 204t15.5 161q-2 123 -89 201.5
t-220 78.5q-96 0 -183.5 -17t-203 -56t-375.5 -135v-437zM638 1346l148 147l154 -147l-150 -150z" />
    <glyph glyph-name="uniFEC8" unicode="&#x638;" horiz-adv-x="1873" arabic-form="medial" 
d="M-20 20v146q2 18 20 18h203v1284l174 27v-477v-246q319 137 482 187.5t317 50.5q127 0 229 -56.5t159.5 -158t55.5 -228.5v-174q0 -51 -14 -117q131 -92 268 -92q20 0 20 -18v-146q0 -20 -20 -20q-180 0 -332 139q-111 -139 -358 -139h-807h-174h-203q-20 0 -20 20z
M377 184h809q125 0 192.5 61.5t67.5 178.5v119q0 129 -86 207.5t-221 78.5q-96 0 -183.5 -17t-207 -57t-371.5 -134v-437zM638 1346l148 147l154 -147l-150 -150z" />
    <glyph glyph-name="uniFECA" unicode="&#x639;" horiz-adv-x="1261" arabic-form="final" 
d="M98 807l68 158q154 78 275.5 112.5t240.5 34.5q135 0 243.5 -50t171 -137t62.5 -198q0 -117 -88 -232.5t-256 -222.5q98 -41 203.5 -64.5t243.5 -23.5q20 0 20 -18v-146q0 -20 -20 -20q-336 0 -611 180q-154 -82 -222.5 -124t-109 -91t-40.5 -112q0 -109 109.5 -173.5
t297.5 -64.5q213 0 461 76l49 -150q-160 -57 -278.5 -80.5t-247.5 -23.5q-168 0 -294 49t-193.5 138t-67.5 210q0 133 88 221t278 189q-123 141 -203.5 259t-179.5 304zM283 840q90 -170 165.5 -283t184.5 -235q350 193 350 348q0 119 -92 192.5t-246 73.5q-153 0 -362 -96z
" />
    <glyph glyph-name="uniFECB" unicode="&#x639;" horiz-adv-x="1120" arabic-form="initial" 
d="M-20 20v146q0 18 20 18q143 0 209 2q-115 184 -115 367q0 125 61.5 223t168 153.5t235.5 55.5q74 0 157 -18.5t212 -61.5l-49 -149q-102 31 -167 44t-124 13q-141 0 -232.5 -82t-91.5 -217q0 -160 121 -321q170 8 322.5 25.5t357.5 51.5l-37 -184q-227 -43 -466.5 -64.5
t-561.5 -21.5q-20 0 -20 20z" />
    <glyph glyph-name="uniFECC" unicode="&#x639;" horiz-adv-x="1230" arabic-form="medial" 
d="M-20 20v146q0 18 20 18q211 0 416 37q-109 129 -184.5 243t-168.5 288l66 157q154 80 275.5 114t242.5 34q135 0 243.5 -49.5t170 -137.5t61.5 -198q0 -117 -71.5 -237t-210.5 -218q164 -33 387 -33q20 0 20 -18v-146q0 -20 -20 -20q-176 0 -316.5 24.5t-261.5 84.5
q-137 -61 -282.5 -85t-366.5 -24q-20 2 -20 20zM248 784q90 -174 169 -289.5t193 -244.5q147 72 240.5 174t93.5 190q0 119 -92 193t-244 74q-155 -1 -360 -97z" />
    <glyph glyph-name="uniFECE" unicode="&#x63a;" horiz-adv-x="1261" arabic-form="final" 
d="M98 807l68 158q154 78 275.5 112.5t240.5 34.5q135 0 243.5 -50t171 -137t62.5 -198q0 -117 -88 -232.5t-256 -222.5q98 -41 203.5 -64.5t243.5 -23.5q20 0 20 -18v-146q0 -20 -20 -20q-336 0 -611 180q-154 -82 -222.5 -124t-109 -91t-40.5 -112q0 -109 109.5 -173.5
t297.5 -64.5q213 0 461 76l49 -150q-160 -57 -278.5 -80.5t-247.5 -23.5q-168 0 -294 49t-193.5 138t-67.5 210q0 133 88 221t278 189q-123 141 -203.5 259t-179.5 304zM283 840q90 -170 165.5 -283t184.5 -235q350 193 350 348q0 119 -92 192.5t-246 73.5q-153 0 -362 -96z
M483 1419l148 147l154 -147l-150 -150z" />
    <glyph glyph-name="uniFECF" unicode="&#x63a;" horiz-adv-x="1120" arabic-form="initial" 
d="M-20 20v146q0 18 20 18q143 0 209 2q-115 184 -115 367q0 125 61.5 223t168 153.5t235.5 55.5q74 0 157 -18.5t212 -61.5l-49 -149q-102 31 -167 44t-124 13q-141 0 -232.5 -82t-91.5 -217q0 -160 121 -321q170 8 322.5 25.5t357.5 51.5l-37 -184q-227 -43 -466.5 -64.5
t-561.5 -21.5q-20 0 -20 20zM366 1309l148 147l154 -147l-150 -150z" />
    <glyph glyph-name="uniFED0" unicode="&#x63a;" horiz-adv-x="1230" arabic-form="medial" 
d="M-20 20v146q0 18 20 18q211 0 416 37q-109 129 -184.5 243t-168.5 288l66 157q154 80 275.5 114t242.5 34q135 0 243.5 -49.5t170 -137.5t61.5 -198q0 -117 -71.5 -237t-210.5 -218q164 -33 387 -33q20 0 20 -18v-146q0 -20 -20 -20q-176 0 -316.5 24.5t-261.5 84.5
q-137 -61 -282.5 -85t-366.5 -24q-20 2 -20 20zM248 784q90 -174 169 -289.5t193 -244.5q147 72 240.5 174t93.5 190q0 119 -92 193t-244 74q-155 -1 -360 -97zM456 1364l148 147l154 -147l-150 -150z" />
    <glyph glyph-name="uniFED2" unicode="&#x641;" horiz-adv-x="1992" arabic-form="final" 
d="M88 444q0 139 45 351l152 -21q-33 -182 -33 -280q0 -160 94 -235t283 -75h217q207 0 321 13q-92 68 -141 160t-49 202q0 123 58.5 222.5t161.5 155.5t230 56q131 0 233.5 -58t160 -157.5t57.5 -218.5q0 -109 -49 -200t-139 -158q121 -16 309 -17q20 0 20 -18v-146
q0 -20 -20 -20q-311 0 -563 74q-223 -70 -566 -74h-2h-280q-244 0 -372 112.5t-128 331.5zM1147 541q0 -111 74.5 -198t203.5 -126q133 45 209 131t76 193q0 123 -83 201.5t-206 78.5q-121 0 -197.5 -78.5t-76.5 -201.5zM1268 1315l147 147l154 -147l-150 -150z" />
    <glyph glyph-name="uniFED3" unicode="&#x641;" horiz-adv-x="1110" arabic-form="initial" 
d="M-20 20v146q0 18 20 18h176q-92 190 -92 332q0 137 61.5 245.5t169 170t244.5 61.5q129 0 235.5 -61.5t167 -169t60.5 -238.5q0 -246 -152.5 -385t-420.5 -139h-449q-20 0 -20 20zM254 514q0 -147 102 -330h107q176 0 280.5 88t104.5 246q0 131 -85 216t-214 85
q-82 0 -149.5 -42t-106.5 -112.5t-39 -150.5zM380 1315l148 147l154 -147l-150 -150z" />
    <glyph glyph-name="uniFED4" unicode="&#x641;" horiz-adv-x="1153" arabic-form="medial" 
d="M-20 20v146q0 18 20 18q178 0 319 13q-90 68 -139 160t-49 202q0 123 58.5 222.5t162 155.5t230.5 56q131 0 233.5 -58t159.5 -157.5t57 -218.5q0 -219 -188 -358q121 -16 309 -17q21 0 21 -18v-146q0 -20 -21 -20q-303 0 -563 76q-233 -76 -590 -76q-20 2 -20 20z
M301 541q0 -109 76 -197t203 -125q131 43 207.5 129t76.5 193q0 123 -83 201.5t-206 78.5q-120 0 -197 -78.5t-77 -201.5zM421 1315l148 147l154 -147l-150 -150z" />
    <glyph glyph-name="uniFED6" unicode="&#x642;" horiz-adv-x="1574" arabic-form="final" 
d="M88 90q0 219 90 494l141 -39q-72 -211 -71 -410q2 -203 136 -309.5t372 -106.5q217 0 351 73t169 208h-250q-137 0 -242.5 57.5t-163 164t-57.5 249.5q0 145 59.5 260t164 178.5t235.5 63.5q127 0 224 -57.5t152.5 -162t55.5 -241.5v-328h121q20 0 20 -18v-146
q0 -20 -20 -20h-129q-35 -213 -218.5 -326.5t-512.5 -113.5q-184 0 -325.5 60.5t-221.5 179t-80 290.5zM709 1313l149 148l150 -148l-150 -147zM723 479q0 -145 88 -223t238 -78q66 0 233 4l-2 316q0 135 -78 215t-205 80q-123 0 -198.5 -86t-75.5 -228zM1032 1313l152 148
l149 -148l-149 -147z" />
    <glyph glyph-name="uniFED7" unicode="&#x642;" horiz-adv-x="1110" arabic-form="initial" 
d="M-20 20v146q0 18 20 18h176q-92 190 -92 332q0 137 61.5 245.5t169 170t244.5 61.5q129 0 235.5 -61.5t167 -169t60.5 -238.5q0 -246 -152.5 -385t-420.5 -139h-449q-20 0 -20 20zM232 1313l149 148l150 -148l-150 -147zM254 514q0 -147 102 -330h107q176 0 280.5 88
t104.5 246q0 131 -85 216t-214 85q-82 0 -149.5 -42t-106.5 -112.5t-39 -150.5zM555 1313l152 148l149 -148l-149 -147z" />
    <glyph glyph-name="uniFED8" unicode="&#x642;" horiz-adv-x="1153" arabic-form="medial" 
d="M-20 20v146q0 18 20 18q178 0 319 13q-90 68 -139 160t-49 202q0 123 58.5 222.5t162 155.5t230.5 56q131 0 233.5 -58t159.5 -157.5t57 -218.5q0 -219 -188 -358q121 -16 309 -17q21 0 21 -18v-146q0 -20 -21 -20q-303 0 -563 76q-233 -76 -590 -76q-20 2 -20 20z
M267 1313l149 148l150 -148l-150 -147zM301 541q0 -109 76 -197t203 -125q131 43 207.5 129t76.5 193q0 123 -83 201.5t-206 78.5q-120 0 -197 -78.5t-77 -201.5zM590 1313l152 148l149 -148l-149 -147z" />
    <glyph glyph-name="uniFEDA" unicode="&#x643;" horiz-adv-x="1792" arabic-form="final" 
d="M88 444q0 150 43 351l154 -21q-33 -182 -33 -280q0 -160 94 -235t283 -75h237h2q324 0 502 105q-10 61 -10 121v1058l174 27v-1044q0 -135 62.5 -201t193.5 -66q20 0 20 -18v-146q0 -20 -20 -20q-264 0 -367 154q-119 -80 -252 -117t-303 -37h-2h-278q-244 0 -372 112.5
t-128 331.5zM588 729v137h125q-39 59 -39 125q0 92 60.5 148.5t156.5 56.5q70 0 158 -41v-127q-82 31 -140 31q-53 0 -84.5 -25.5t-31.5 -70.5q0 -51 38 -97h283l-41 -137h-485z" />
    <glyph glyph-name="uniFEDB" unicode="&#x643;" horiz-adv-x="1191" arabic-form="initial" 
d="M-20 20v146q0 18 20 18h635q141 0 222 67.5t81 188.5t-81 191.5t-220 70.5h-494l-94 166l613 725l167 -88l-575 -639h364q148 0 260.5 -52t173 -149.5t60.5 -226.5q0 -203 -126 -320.5t-337 -117.5h-649q-20 0 -20 20z" />
    <glyph glyph-name="uniFEDC" unicode="&#x643;" horiz-adv-x="1339" arabic-form="medial" 
d="M-20 20v146q0 18 20 18h635q141 0 222 67.5t81 188.5t-81 191.5t-220 70.5h-494l-94 166l613 725l167 -88l-575 -639h364q147 0 260 -52t173.5 -149.5t60.5 -226.5q0 -98 -27 -170q119 -84 254 -84q21 0 21 -18v-146q0 -20 -21 -20q-180 0 -331 139
q-59 -68 -151.5 -103.5t-207.5 -35.5h-649q-20 0 -20 20z" />
    <glyph glyph-name="uniFEDE" unicode="&#x644;" horiz-adv-x="1486" arabic-form="final" 
d="M88 90q0 219 90 494l141 -39q-72 -211 -71 -410q2 -193 108.5 -292t300.5 -99q205 0 304.5 115.5t99.5 357.5v772v486l174 26v-977v-118q0 -106 75.5 -164t176.5 -58q20 0 20 -18v-146q0 -20 -20 -20q-82 0 -148.5 29.5t-107.5 89.5q-18 -262 -161.5 -410.5
t-422.5 -148.5q-258 0 -408.5 134t-150.5 396z" />
    <glyph glyph-name="uniFEDF" unicode="&#x644;" horiz-adv-x="608" arabic-form="initial" 
d="M-20 20v146q0 18 22 18q129 0 192.5 65.5t63.5 201.5l2 1017l172 27v-1085q0 -410 -432 -410q-20 0 -20 20z" />
    <glyph glyph-name="uniFEE0" unicode="&#x644;" horiz-adv-x="665" arabic-form="medial" 
d="M-20 20v146q0 18 20 18q147 0 248 86q-14 57 -15 140v1058l175 27v-1044q0 -135 62 -201t194 -66q20 0 20 -18v-146q0 -20 -20 -20q-248 0 -353 133q-74 -70 -145.5 -101.5t-165.5 -31.5q-20 0 -20 20z" />
    <glyph glyph-name="uniFEE2" unicode="&#x645;" horiz-adv-x="1406" arabic-form="final" 
d="M74 154q0 342 309 381q2 131 62.5 235t166 163.5t236.5 59.5q125 0 228.5 -63.5t163.5 -168t60 -224.5q0 -80 -17 -162t-58 -191h180q20 0 20 -18v-146q0 -20 -20 -20h-492q-195 0 -329.5 92t-180.5 260q-78 -14 -116.5 -67.5t-38.5 -153.5v-657l-172 -27zM557 512
q0 -147 92 -237.5t250 -90.5h172q39 102 55.5 178t16.5 146q0 80 -37 152.5t-102.5 116.5t-145.5 44q-137 0 -219 -85t-82 -224z" />
    <glyph glyph-name="uniFEE3" unicode="&#x645;" horiz-adv-x="1110" arabic-form="initial" 
d="M-20 20v146q0 18 20 18h176q-92 190 -92 332q0 137 61.5 245.5t169 170t244.5 61.5q129 0 235.5 -61.5t167 -169t60.5 -238.5q0 -246 -152.5 -385t-420.5 -139h-449q-20 0 -20 20zM254 514q0 -147 102 -330h107q176 0 280.5 88t104.5 246q0 131 -85 216t-214 85
q-82 0 -149.5 -42t-106.5 -112.5t-39 -150.5z" />
    <glyph glyph-name="uniFEE4" unicode="&#x645;" horiz-adv-x="1155" arabic-form="medial" 
d="M-20 20v146q0 18 20 18q106 0 203 45q-74 121 -74 289q0 135 59.5 243.5t166 170t239.5 61.5q125 0 230.5 -63.5t168 -169t62.5 -223.5q0 -160 -72 -353h172q21 0 21 -18v-146q0 -20 -21 -20h-496q-203 0 -340 100q-160 -100 -319 -100q-20 0 -20 20zM303 512
q0 -147 92 -237.5t250 -90.5h170q37 104 54.5 180t17.5 144q0 80 -37 152.5t-101.5 116.5t-144.5 44q-137 0 -219 -85t-82 -224z" />
    <glyph glyph-name="uniFEE6" unicode="&#x646;" horiz-adv-x="1468" arabic-form="final" 
d="M88 90q0 219 90 494l141 -39q-72 -211 -71 -410q2 -193 108.5 -292t300.5 -99q205 0 304.5 115.5t99.5 357.5v772l172 29v-590l2 -16q10 -129 73.5 -178.5t159.5 -49.5q21 0 21 -18v-146q0 -20 -21 -20q-78 0 -138 30.5t-99 90.5q-18 -262 -161.5 -411.5t-422.5 -149.5
q-258 0 -408.5 134t-150.5 396zM507 989l148 147l154 -147l-150 -150z" />
    <glyph glyph-name="uniFEE7" unicode="&#x646;" horiz-adv-x="569" arabic-form="initial" 
d="M-20 20l2 146q0 18 20 18q125 0 191.5 64.5t66.5 191.5l-2 549l174 29v-625q0 -188 -109.5 -290.5t-322.5 -102.5q-20 0 -20 20zM188 1337l148 147l154 -147l-150 -150z" />
    <glyph glyph-name="uniFEE8" unicode="&#x646;" horiz-adv-x="677" arabic-form="medial" 
d="M-20 20l2 146q0 18 20 18q125 0 191.5 64.5t66.5 191.5l-2 332l174 27v-406q0 -72 -14 -123q127 -86 260 -86q20 0 20 -18v-146q0 -20 -20 -20q-174 0 -326 133q-109 -133 -352 -133q-20 0 -20 20zM192 1100l148 147l154 -147l-150 -150z" />
    <glyph glyph-name="uniFEE9" unicode="&#x647;" horiz-adv-x="1660" arabic-form="isolated" 
d="M41 47l37 174q127 -37 239 -37q35 0 109 9q-96 68 -147.5 162t-51.5 206q0 123 58.5 222.5t160 155.5t226.5 56q129 0 230.5 -58t158.5 -156.5t57 -217.5q0 -111 -52 -203t-148 -161q178 -43 362 -43q61 115 92 239.5t31 229.5q0 158 -83 292t-261 217t-445 83l19 163
q299 0 510 -90t319.5 -258t108.5 -393q0 -115 -31 -246t-92 -262l-166 -158q-127 -2 -275.5 27t-299.5 86q-111 -45 -197 -65.5t-178 -20.5q-143 0 -291 47zM397 543q0 -106 74 -193.5t199 -126.5q129 47 204.5 133t75.5 187q0 123 -79.5 201.5t-202.5 78.5
q-119 0 -195 -77.5t-76 -202.5z" />
    <glyph glyph-name="uniFEEA" unicode="&#x647;" horiz-adv-x="1193" arabic-form="final" 
d="M74 473q0 137 60.5 255t168 187.5t242.5 69.5q125 0 274 -57v127l172 28l2 -669q0 -123 47 -176.5t154 -53.5q20 0 20 -18v-146q0 -20 -20 -20q-188 0 -279 88q-104 -53 -192 -79.5t-178 -26.5q-137 0 -244.5 64.5t-167 177t-59.5 249.5zM240 475q0 -137 88 -227t227 -90
q131 -1 285 69q-20 70 -21 170v357q-82 27 -142.5 41t-125.5 14q-90 0 -162 -45t-110.5 -121t-38.5 -168z" />
    <glyph glyph-name="uniFEEB" unicode="&#x647;" horiz-adv-x="1607" arabic-form="initial" 
d="M-20 20v146q0 18 20 18q123 0 213 39q-76 123 -76 295q0 135 59.5 243.5t165 170t240.5 61.5q125 0 230.5 -63.5t168 -169t62.5 -223.5q0 -156 -74 -353h293q68 240 68 441q0 156 -89.5 291t-273.5 218t-452 83l18 163q299 0 517 -90t333 -258t115 -393
q0 -117 -17.5 -221.5t-56.5 -259.5l-137 -158h-639q-197 0 -332 94q-74 -43 -165 -68.5t-171 -25.5q-20 0 -20 20zM311 512q0 -147 92.5 -237.5t249.5 -90.5h168q39 102 55.5 178t16.5 146q0 82 -37 153.5t-100.5 115.5t-143.5 44q-137 0 -219 -85t-82 -224z" />
    <glyph glyph-name="uniFEEC" unicode="&#x647;" horiz-adv-x="1120" arabic-form="medial" 
d="M-27 20v146q0 18 21 18h94v13q0 254 114.5 504.5t346.5 484.5h158q145 -158 228 -326t83 -305q0 -231 -193 -371h303q21 0 21 -18v-146q0 -20 -21 -20h-81v-31q0 -203 -116 -311.5t-337 -108.5q-188 0 -317.5 120t-170.5 333q-37 -2 -112 -2q-20 0 -21 20zM256 193
q307 18 448.5 101t141.5 257q0 104 -61.5 233t-172.5 258q-162 -174 -259 -395t-97 -424v-30zM276 14q35 -143 116 -218t206 -75q147 0 222 63.5t75 184.5v31h-295l-22 70q-137 -39 -302 -56z" />
    <glyph glyph-name="uniFEEE" unicode="&#x648;" horiz-adv-x="1107" arabic-form="final" 
d="M88 487q0 145 61.5 258t169 176.5t242.5 63.5q125 0 222.5 -57.5t151.5 -160.5t54 -241v-342h119q20 0 20 -18v-146q0 -20 -20 -20h-121q-37 -440 -762 -440l-20 149q285 0 436.5 69.5t171.5 221.5h-246q-143 0 -251.5 59.5t-168 169t-59.5 258.5zM250 496
q0 -154 92 -236t248 -82q66 0 225 4v330q0 133 -74.5 214t-195.5 81q-127 0 -211 -86t-84 -225z" />
    <glyph glyph-name="uniFEF0" unicode="&#x649;" horiz-adv-x="2076" arabic-form="final" 
d="M88 90q0 219 90 494l141 -39q-72 -211 -71 -410q2 -193 108.5 -292t300.5 -99q150 0 238 42t127 137t39 259v385q0 188 105.5 298t303.5 110h246l119 -105v-686h242q20 0 20 -18v-146q0 -20 -20 -20h-416v791h-166q-125 0 -193.5 -64.5t-68.5 -189.5v-373
q0 -197 -53.5 -329t-182.5 -203.5t-350 -71.5q-258 0 -408.5 134t-150.5 396z" />
    <glyph glyph-name="uniFEF2" unicode="&#x64a;" horiz-adv-x="2076" arabic-form="final" 
d="M88 90q0 219 90 494l141 -39q-72 -211 -71 -410q2 -193 108.5 -292t300.5 -99q150 0 238 42t127 137t39 259v385q0 188 105.5 298t303.5 110h246l119 -105v-686h242q20 0 20 -18v-146q0 -20 -20 -20h-416v791h-166q-125 0 -193.5 -64.5t-68.5 -189.5v-373
q0 -197 -53.5 -329t-182.5 -203.5t-350 -71.5q-258 0 -408.5 134t-150.5 396zM453 -710l149 147l150 -147l-150 -148zM776 -710l152 147l149 -147l-149 -148z" />
    <glyph glyph-name="uniFEF3" unicode="&#x64a;" horiz-adv-x="722" arabic-form="initial" 
d="M-20 20l2 146q0 18 20 18h156q125 0 190.5 64.5t65.5 191.5v549l172 29v-625q0 -188 -108.5 -290.5t-321.5 -102.5h-156q-20 0 -20 20zM-18 -309l149 147l150 -147l-150 -148zM305 -309l152 147l149 -147l-149 -148z" />
    <glyph glyph-name="uniFEF4" unicode="&#x64a;" horiz-adv-x="770" arabic-form="medial" 
d="M-20 20l2 146q0 18 20 18q164 0 238.5 60.5t74.5 195.5v332l172 27v-406q0 -51 -10 -106q137 -102 293 -103q21 0 21 -18v-146q0 -20 -21 -20q-92 0 -182 38t-170 112q-111 -150 -418 -150q-20 0 -20 20zM68 -309l149 147l150 -147l-150 -148zM391 -309l152 147l149 -147
l-149 -148z" />
    <glyph glyph-name=".notdef" horiz-adv-x="598" 
 />
    <glyph glyph-name=".null" 
 />
    <glyph glyph-name="nonmarkingreturn" horiz-adv-x="682" 
 />
    <glyph glyph-name="space" unicode=" " horiz-adv-x="491" 
 />
    <glyph glyph-name="exclam" unicode="!" horiz-adv-x="520" 
d="M164 700v693h190v-693l-35 -331h-120zM178 0v213h162v-213h-162z" />
    <glyph glyph-name="quotedbl" unicode="&#x22;" horiz-adv-x="716" 
d="M129 1192v201h156v-201l-29 -240h-98zM434 1192v201h156v-201l-29 -240h-98z" />
    <glyph glyph-name="numbersign" unicode="#" horiz-adv-x="1452" 
d="M76 0l211 395h-185v148h254l140 264h-297v147h368l230 439h161l-227 -439h248l229 439h162l-229 -439h202v-147h-274l-139 -264h332v-148h-402l-211 -395h-162l211 395h-249l-209 -395h-164zM518 543h252l139 264h-252z" />
    <glyph glyph-name="dollar" unicode="$" horiz-adv-x="1187" 
d="M96 104v172q106 -68 232.5 -103.5t242.5 -35.5q141 0 238.5 55.5t97.5 176.5q0 74 -46 124t-114.5 79.5t-189.5 68.5q-147 49 -234 91t-149.5 119t-62.5 198q0 174 118.5 263t300.5 99v238h129v-238q223 -14 408 -123v-172q-104 70 -229 104.5t-234 34.5
q-299 0 -299 -198q0 -66 43 -111t108.5 -71.5t178.5 -61.5q152 -47 244 -90t158.5 -126t66.5 -214q0 -186 -126 -286.5t-319 -114.5v-238h-129v236q-242 12 -434 124z" />
    <glyph glyph-name="percent" unicode="%" horiz-adv-x="1642" 
d="M78 1036q0 166 82 271.5t235 105.5q152 0 234 -105.5t82 -271.5t-82 -271.5t-234 -105.5q-153 0 -235 105.5t-82 271.5zM188 1036q0 -129 52.5 -205.5t152.5 -76.5q102 0 153.5 76.5t51.5 205.5t-51 206t-154 77q-100 0 -152.5 -77t-52.5 -206zM342 0l377 635h112
l-339 -635h-150zM801 758l340 635h149l-379 -635h-110zM932 360q0 166 82 271.5t235 105.5q152 0 234 -105.5t82 -271.5t-82 -271t-234 -105q-153 0 -235 105.5t-82 270.5zM1044 360q0 -129 52.5 -205.5t152.5 -76.5q102 0 153.5 76.5t51.5 205.5t-51 206t-154 77
q-100 0 -152.5 -77t-52.5 -206z" />
    <glyph glyph-name="ampersand" unicode="&#x26;" horiz-adv-x="1382" 
d="M100 369q0 152 83 247t198 144q-78 76 -116 148.5t-38 156.5q0 125 67.5 203t166 111.5t198.5 33.5q113 0 213.5 -29.5t200.5 -97.5v-156q-109 70 -201 103t-192 33q-94 0 -179 -44t-85 -151q0 -61 29.5 -112.5t76.5 -95.5t146 -124l315 -268q57 131 57 313h179
q0 -106 -18.5 -216.5t-57.5 -207.5l176 -149v-217l-256 209q-164 -223 -479 -223q-213 0 -348.5 102t-135.5 287zM295 389q0 -115 82 -184.5t213 -69.5q209 0 330 172l-349 291q-55 41 -88 72q-94 -53 -141 -117t-47 -164z" />
    <glyph glyph-name="quotesingle" unicode="'" horiz-adv-x="413" 
d="M129 1192v201h156v-201l-29 -240h-98z" />
    <glyph glyph-name="parenleft" unicode="(" horiz-adv-x="624" 
d="M84 696q0 225 68.5 432t157.5 353.5t161 218.5h131q-72 -90 -151.5 -241.5t-136 -352.5t-56.5 -410t56.5 -409.5t136 -352t151.5 -241.5h-131q-72 72 -161 218t-157.5 353t-68.5 432z" />
    <glyph glyph-name="parenright" unicode=")" horiz-adv-x="624" 
d="M20 -307q72 90 151 242.5t136.5 352t57.5 408.5t-57.5 409t-136.5 352.5t-151 242.5h132q70 -72 159.5 -218.5t157.5 -352t68 -433.5q0 -227 -68 -433t-158 -352.5t-159 -217.5h-132z" />
    <glyph glyph-name="asterisk" unicode="*" horiz-adv-x="800" 
d="M109 979l186 106l-186 109l51 92l188 -110v217h105v-217l188 110l51 -92l-188 -109l188 -106l-51 -92l-188 108v-217h-105v217l-188 -108z" />
    <glyph glyph-name="plus" unicode="+" horiz-adv-x="1169" 
d="M92 602v148h418v417h147v-417h420v-148h-418v-420h-147v420h-420z" />
    <glyph glyph-name="comma" unicode="," horiz-adv-x="370" 
d="M12 -256q37 96 61.5 210t30.5 228h164q-12 -133 -46 -233.5t-97 -214.5z" />
    <glyph glyph-name="hyphen" unicode="-" horiz-adv-x="958" 
d="M129 520v148h698v-148h-698z" />
    <glyph glyph-name="period" unicode="." horiz-adv-x="389" 
d="M104 0v182h181v-182h-181z" />
    <glyph glyph-name="slash" unicode="/" horiz-adv-x="991" 
d="M53 0l721 1393h162l-719 -1393h-164z" />
    <glyph glyph-name="zero" unicode="0" horiz-adv-x="1439" 
d="M109 696q0 205 69.5 367t206.5 256t334 94t334 -94t207.5 -256t70.5 -367t-70.5 -367.5t-208 -255.5t-333.5 -93q-197 0 -334 93t-206.5 256t-69.5 367zM303 696q0 -260 106.5 -411.5t309.5 -151.5t310.5 151.5t107.5 411.5t-107.5 412t-310.5 152t-309.5 -152
t-106.5 -412z" />
    <glyph glyph-name="one" unicode="1" horiz-adv-x="962" 
d="M82 1210l348 193h170v-1245h287l28 -158h-819v158h314v1056l-269 -151z" />
    <glyph glyph-name="two" unicode="2" horiz-adv-x="1214" 
d="M102 0v109q0 137 63.5 237t154 167t235.5 149q117 68 182.5 113.5t109.5 106t44 136.5q0 121 -90 181.5t-228 60.5q-98 0 -191 -35t-206 -103l-37 154q238 137 453 137q213 0 353 -98t140 -289q0 -111 -58 -196t-140 -146t-221 -145q-123 -74 -191.5 -122t-116 -112.5
t-47.5 -142.5h774l27 -162h-1010z" />
    <glyph glyph-name="three" unicode="3" horiz-adv-x="1173" 
d="M51 96l58 137q219 -102 409 -102q367 0 367 264q0 127 -96.5 192.5t-268.5 65.5h-143v142h143q164 4 248 66.5t84 170.5q0 233 -305 234q-96 0 -183.5 -23.5t-203.5 -79.5l-58 137q205 117 473 117q213 0 336 -96t123 -274q0 -119 -68.5 -202t-199.5 -120
q147 -37 228 -123t81 -221q0 -190 -137 -295.5t-389 -105.5q-131 0 -264 28.5t-234 87.5z" />
    <glyph glyph-name="four" unicode="4" horiz-adv-x="1284" 
d="M76 307v150l733 936h195v-936h231v-150h-231v-307h-193v307h-735zM268 457h543v698z" />
    <glyph glyph-name="five" unicode="5" horiz-adv-x="1208" 
d="M84 96q102 -61 229 -88.5t256 -27.5q254 0 398.5 122.5t144.5 343.5q0 188 -129 303t-362 115q-123 0 -277 -30l21 403h649l26 156h-837l-35 -729q207 57 391 57q168 0 263.5 -75t95.5 -204q0 -156 -99.5 -233.5t-279.5 -77.5q-96 0 -188.5 24.5t-209.5 77.5z" />
    <glyph glyph-name="six" unicode="6" horiz-adv-x="1300" 
d="M109 664q0 199 63.5 368.5t199.5 275t347 105.5q117 0 207 -21.5t176 -68.5l-60 -139q-71 39 -142 59.5t-159 20.5q-213 0 -324.5 -149.5t-111.5 -442.5q84 109 207 155.5t236 46.5q137 0 237 -57t153.5 -153.5t53.5 -210.5q0 -125 -57.5 -233.5t-173 -174t-281.5 -65.5
q-274 0 -422.5 185t-148.5 499zM315 537q4 -105 45 -197t121 -150.5t197 -58.5q92 0 164.5 41t113.5 111.5t41 158.5q0 133 -85 214t-224 81q-117 0 -220 -58t-153 -142z" />
    <glyph glyph-name="seven" unicode="7" horiz-adv-x="1085" 
d="M68 1237l28 156h948v-138l-608 -1255h-186l598 1237h-780z" />
    <glyph glyph-name="eight" unicode="8" horiz-adv-x="1304" 
d="M98 356q0 121 78 216.5t203 152.5q-94 49 -145.5 126t-51.5 193q0 176 134.5 272.5t342.5 96.5q127 0 232.5 -41t168 -123t62.5 -196q0 -213 -209 -338q138 -47 215.5 -124t77.5 -212q0 -125 -73.5 -215t-199.5 -137t-286 -47q-242 0 -395.5 97t-153.5 279zM295 385
q0 -121 94 -191.5t260 -70.5q156 0 258.5 69.5t102.5 188.5q0 70 -45 115t-114 70.5t-187 58.5q-25 8 -69 20t-75 23q-225 -115 -225 -283zM358 1049q0 -88 56.5 -142.5t131.5 -81t230 -69.5q84 59 127 128.5t43 164.5q0 96 -74.5 158.5t-218.5 62.5q-143 0 -219 -62.5
t-76 -158.5z" />
    <glyph glyph-name="nine" unicode="9" horiz-adv-x="1300" 
d="M109 940q0 127 57 234.5t173 173t284 65.5q272 0 420.5 -185.5t148.5 -498.5q0 -199 -63.5 -369t-199.5 -275t-345 -105q-119 0 -208 21.5t-177 70.5l59 139q70 -41 140.5 -60.5t160.5 -19.5q213 0 325.5 148.5t112.5 441.5q-84 -106 -207.5 -154.5t-234.5 -48.5
q-137 0 -238.5 57.5t-154.5 153.5t-53 211zM303 952q0 -135 85 -216t224 -81q117 0 219.5 57.5t153.5 143.5q-4 105 -45 198t-122 151.5t-197 58.5q-92 0 -164 -41t-113 -113t-41 -158z" />
    <glyph glyph-name="colon" unicode=":" horiz-adv-x="425" 
d="M135 150v215h156v-215h-156zM135 641v215h156v-215h-156z" />
    <glyph glyph-name="semicolon" unicode=";" horiz-adv-x="499" 
d="M106 -162q29 0 44.5 7.5t23.5 35t8 88.5v244h156v-244q0 -102 -19.5 -155.5t-68.5 -75t-144 -21.5v121zM182 641v215h156v-215h-156z" />
    <glyph glyph-name="less" unicode="&#x3c;" horiz-adv-x="1161" 
d="M127 573v205l903 217v-147l-727 -174l727 -172v-148z" />
    <glyph glyph-name="equal" unicode="=" horiz-adv-x="1185" 
d="M141 395v148h903v-148h-903zM141 807v147h903v-147h-903z" />
    <glyph glyph-name="greater" unicode="&#x3e;" horiz-adv-x="1161" 
d="M127 354v148l729 172l-729 174v147l903 -217v-205z" />
    <glyph glyph-name="question" unicode="?" horiz-adv-x="1028" 
d="M80 1128v172q176 113 414 113q203 0 329.5 -99.5t126.5 -297.5q0 -217 -135 -307.5t-323 -104.5l-19 -235h-135l-2 354q182 0 300 62.5t120 215.5q0 129 -81 191.5t-212 62.5q-84 0 -186.5 -29.5t-196.5 -97.5zM330 0v213h164v-213h-164z" />
    <glyph glyph-name="at" unicode="@" horiz-adv-x="1654" 
d="M94 520q0 -276 103.5 -486t305.5 -327t484 -117v142q-340 0 -530.5 204.5t-190.5 583.5q0 246 88 417t239.5 256t340.5 85q197 0 312.5 -101.5t115.5 -314.5v-45q-47 96 -139.5 147.5t-206.5 51.5q-203 0 -317.5 -137.5t-114.5 -376.5q0 -240 114.5 -378t317.5 -138
q115 0 207 52t139 148v-180h172v848q0 270 -156.5 414.5t-443.5 144.5q-248 0 -438.5 -109.5t-296 -312.5t-105.5 -471zM766 502q0 170 73.5 275.5t221.5 105.5q129 0 216 -97.5t87 -283.5q0 -187 -87 -284t-216 -97q-147 0 -221 105.5t-74 275.5z" />
    <glyph glyph-name="A" unicode="A" horiz-adv-x="1460" 
d="M41 0l582 1391l217 26l579 -1403l-190 -28l-139 340h-719l-133 -326h-197zM436 485h588l-295 719z" />
    <glyph glyph-name="B" unicode="B" horiz-adv-x="1390" 
d="M180 0v1393h561q504 0 504 -369q0 -109 -54 -190.5t-157 -114.5q127 -25 189.5 -114t62.5 -218q0 -199 -123 -293t-368 -94h-615zM371 162h411q152 0 231 51t79 184t-79 185.5t-231 52.5h-411v-473zM371 788h356q160 0 242 45.5t82 176.5q0 129 -83 175t-241 46h-356
v-443z" />
    <glyph glyph-name="C" unicode="C" horiz-adv-x="1388" 
d="M102 696q0 219 92.5 381t258 249t376.5 87q143 0 256 -31.5t213 -93.5l-34 -168q-106 72 -211 101.5t-224 29.5q-158 0 -278.5 -66.5t-187 -192.5t-66.5 -296t66.5 -296t186.5 -192.5t273 -66.5q121 0 243 33t224 105v-175q-100 -61 -212.5 -92.5t-256.5 -31.5
q-209 0 -371.5 87t-255 249.5t-92.5 379.5z" />
    <glyph glyph-name="D" unicode="D" horiz-adv-x="1529" 
d="M180 0v1393h502q225 0 390 -89.5t253 -248t88 -359.5q0 -203 -88 -360.5t-253 -246.5t-390 -89h-502zM371 162h309q164 0 285.5 64.5t187.5 185t66 284.5q0 162 -66 283t-187.5 186.5t-285.5 65.5h-309v-1069z" />
    <glyph glyph-name="E" unicode="E" horiz-adv-x="1275" 
d="M180 0v1393h967v-162h-776v-438h708l27 -160h-735v-471h796v-162h-987z" />
    <glyph glyph-name="F" unicode="F" horiz-adv-x="1228" 
d="M180 0v1393h961v-162h-770v-492h700l29 -161h-729v-578h-191z" />
    <glyph glyph-name="G" unicode="G" horiz-adv-x="1419" 
d="M102 696q0 219 89.5 381t249 249t366.5 87q143 0 256 -31.5t213 -93.5l-27 -168q-106 72 -210.5 101.5t-223.5 29.5q-154 0 -271.5 -66.5t-182 -192.5t-64.5 -296t64.5 -296t182.5 -192.5t271 -66.5q172 0 291 52v485l184 27v-625q-201 -100 -483 -100q-207 0 -366.5 87
t-249 248.5t-89.5 380.5z" />
    <glyph glyph-name="H" unicode="H" horiz-adv-x="1556" 
d="M180 0v1380l191 27v-614h813v587l190 27v-1407h-190v633h-813v-633h-191z" />
    <glyph glyph-name="I" unicode="I" horiz-adv-x="552" 
d="M180 0v1380l191 27v-1407h-191z" />
    <glyph glyph-name="J" unicode="J" horiz-adv-x="1017" 
d="M20 25l27 157q123 -41 295 -41q143 0 232.5 69t89.5 216v805h-424v162h614v-969q0 -213 -129 -328.5t-367 -115.5q-166 0 -338 45z" />
    <glyph glyph-name="K" unicode="K" horiz-adv-x="1349" 
d="M180 0v1393h191v-602h317l406 602h219l-469 -680l489 -707l-207 -26l-446 649h-309v-629h-191z" />
    <glyph glyph-name="L" unicode="L" horiz-adv-x="1212" 
d="M180 0v1380l191 27v-1245h766l26 -162h-983z" />
    <glyph glyph-name="M" unicode="M" horiz-adv-x="1816" 
d="M180 0v1393h189l538 -820l541 820h186v-1379l-190 -28v1079l-488 -731h-116l-486 731v-1065h-174z" />
    <glyph glyph-name="N" unicode="N" horiz-adv-x="1562" 
d="M180 0v1393h189l837 -1100v1087l176 27v-1407h-188l-840 1106v-1106h-174z" />
    <glyph glyph-name="O" unicode="O" horiz-adv-x="1679" 
d="M102 696q0 203 89.5 366t256 257t392.5 94q225 0 392 -94t256 -257t89 -366t-89 -365.5t-256 -256.5t-392 -94q-226 0 -392.5 94t-256 257t-89.5 365zM297 696q0 -164 66.5 -289.5t189.5 -195.5t287 -70q166 0 288.5 70t188 195.5t65.5 289.5t-65.5 290t-188 195.5
t-288.5 69.5q-164 0 -287 -69.5t-189.5 -195.5t-66.5 -290z" />
    <glyph glyph-name="P" unicode="P" horiz-adv-x="1337" 
d="M180 0v1393h582q164 0 281.5 -57.5t179 -161t61.5 -236.5q0 -135 -61.5 -238.5t-179 -161t-281.5 -57.5h-391v-481h-191zM371 643h385q147 0 239 76t92 219t-92 218t-239 75h-385v-588z" />
    <glyph glyph-name="Q" unicode="Q" horiz-adv-x="1679" 
d="M102 696q0 203 89.5 366t256 257t392.5 94q225 0 392 -94t256 -257t89 -366q0 -176 -67.5 -322.5t-192.5 -242.5l145 -180l-137 -101l-156 193q-150 -63 -329 -63q-225 0 -392 94t-256.5 257t-89.5 365zM297 696q0 -164 66.5 -290.5t189.5 -197.5t287 -71q125 0 225 41
l-193 264l111 80l223 -258q84 74 130 185.5t46 246.5q0 164 -65.5 291t-188 198.5t-288.5 71.5q-164 0 -287 -71.5t-189.5 -198.5t-66.5 -291z" />
    <glyph glyph-name="R" unicode="R" horiz-adv-x="1382" 
d="M180 0v1393h596q240 0 365 -108.5t125 -317.5q0 -168 -92.5 -273.5t-260.5 -132.5l428 -555l-200 -26l-428 557h-342v-537h-191zM371 698h381q319 0 319 269q0 141 -84 202.5t-235 61.5h-381v-533z" />
    <glyph glyph-name="S" unicode="S" horiz-adv-x="1202" 
d="M96 104v177q105 -70 231 -105t244 -35q143 0 241.5 53.5t98.5 174.5q0 74 -46 124t-113.5 79.5t-188.5 68.5q-147 49 -234 91t-149.5 119t-62.5 198q0 184 135 274t338 90q254 0 483 -125l-29 -170q-211 133 -434 133q-135 0 -217 -42t-82 -152q0 -66 43 -111
t108.5 -71.5t178.5 -61.5q150 -47 242 -91t157.5 -126t65.5 -213q0 -205 -148.5 -304t-365.5 -99q-283 0 -496 124z" />
    <glyph glyph-name="T" unicode="T" horiz-adv-x="1228" 
d="M35 1231v162h1159l-27 -162h-456v-1231h-193v1231h-483z" />
    <glyph glyph-name="U" unicode="U" horiz-adv-x="1521" 
d="M164 510v870l190 27v-866q0 -184 102.5 -292t305.5 -108t304 107.5t101 292.5v839l191 27v-897q0 -147 -65.5 -267t-198.5 -191.5t-332 -71.5q-201 0 -336 73.5t-198.5 194.5t-63.5 262z" />
    <glyph glyph-name="V" unicode="V" horiz-adv-x="1468" 
d="M47 1380l191 27l497 -1219l490 1205h194l-581 -1403h-217z" />
    <glyph glyph-name="W" unicode="W" horiz-adv-x="2074" 
d="M57 1380l185 27l362 -1188l336 1174h186l351 -1174l352 1174h188l-432 -1403h-217l-338 1100l-328 -1100h-210z" />
    <glyph glyph-name="X" unicode="X" horiz-adv-x="1320" 
d="M14 0l525 719l-480 661l205 27l402 -549l381 535h210l-479 -672l531 -707l-207 -28l-451 594l-424 -580h-213z" />
    <glyph glyph-name="Y" unicode="Y" horiz-adv-x="1345" 
d="M47 1380l191 27l436 -748l420 734h202l-532 -918v-475h-191v479z" />
    <glyph glyph-name="Z" unicode="Z" horiz-adv-x="1202" 
d="M72 0v137l794 1094h-760v162h1002v-138l-795 -1093h789l28 -162h-1058z" />
    <glyph glyph-name="bracketleft" unicode="[" horiz-adv-x="700" 
d="M162 -307v2007h473v-141h-311v-1725h325v-141h-487z" />
    <glyph glyph-name="backslash" unicode="\" horiz-adv-x="991" 
d="M53 1393h164l719 -1393h-162z" />
    <glyph glyph-name="bracketright" unicode="]" horiz-adv-x="700" 
d="M51 -166h324v1725h-312v141h476v-2007h-488v141z" />
    <glyph glyph-name="asciicircum" unicode="^" horiz-adv-x="833" 
d="M127 602l291 244l291 -244l-58 -80l-233 168l-236 -168z" />
    <glyph glyph-name="underscore" unicode="_" horiz-adv-x="1173" 
d="M135 -86h903v-147h-903v147z" />
    <glyph glyph-name="a" unicode="a" horiz-adv-x="1196" 
d="M102 276q0 170 133.5 254t348.5 84q119 0 256 -18v90q0 94 -70 154.5t-213 60.5q-190 0 -373 -86l-34 143q80 39 194.5 62.5t233.5 23.5q219 0 332.5 -99t113.5 -269v-445q0 -55 19.5 -82.5t72.5 -27.5q47 0 78 14v-135q-25 -8 -66 -14t-67 -6q-104 0 -154.5 45
t-62.5 129q-78 -92 -178.5 -133t-208.5 -41q-162 0 -258.5 82.5t-96.5 213.5zM291 299q0 -82 60.5 -129t162.5 -47q96 0 174 38t152 122v176q-109 18 -244 18q-305 0 -305 -178z" />
    <glyph glyph-name="b" unicode="b" horiz-adv-x="1284" 
d="M154 0v1468l184 27v-629q59 78 151.5 128t210.5 50q146 0 255.5 -65.5t170 -186t60.5 -280.5t-60.5 -280.5t-170 -186t-255.5 -65.5q-119 0 -210 50t-152 128l-14 -158h-170zM338 279q63 -76 145 -116t170 -40q162 0 253 107.5t91 281.5t-91 281.5t-253 107.5
q-88 0 -170 -40t-145 -113v-469z" />
    <glyph glyph-name="c" unicode="c" horiz-adv-x="1095" 
d="M98 512q0 160 66.5 280.5t190.5 186t292 65.5q106 0 195.5 -23.5t175.5 -66.5l-35 -137q-92 45 -165 64.5t-156 19.5q-168 0 -271.5 -104.5t-103.5 -284.5t103.5 -284.5t271.5 -104.5q83 0 156 19.5t165 64.5l35 -137q-86 -43 -175 -66.5t-196 -23.5q-168 0 -292 65.5
t-190.5 186t-66.5 280.5z" />
    <glyph glyph-name="d" unicode="d" horiz-adv-x="1284" 
d="M98 512q0 160 60.5 280.5t170 186t255.5 65.5q118 0 210.5 -50t151.5 -128v602l184 27v-1495h-169l-15 158q-61 -78 -152.5 -128t-209.5 -50q-145 0 -255 65.5t-170.5 186t-60.5 280.5zM287 512q0 -174 90 -281.5t254 -107.5q88 0 170 41t143 115v469q-61 74 -143 113.5
t-170 39.5q-164 0 -254 -107.5t-90 -281.5z" />
    <glyph glyph-name="e" unicode="e" horiz-adv-x="1202" 
d="M98 512q0 160 64.5 280.5t184.5 186t280 65.5q254 0 364.5 -141t110.5 -360q0 -61 -2 -86h-809q16 -160 113.5 -250t267.5 -90q184 0 350 84l35 -131q-80 -41 -184.5 -65.5t-213.5 -24.5q-272 0 -416.5 142t-144.5 390zM293 592h625q-2 145 -67 231t-230 86
q-133 0 -221.5 -83t-106.5 -234z" />
    <glyph glyph-name="f" unicode="f" horiz-adv-x="792" 
d="M63 881v143h168v135q0 162 93.5 249t265.5 87q72 0 138.5 -11t111.5 -30l-37 -135q-78 33 -187 33q-102 0 -151 -49.5t-49 -147.5v-131h372v-143h-372v-881h-185v881h-168z" />
    <glyph glyph-name="g" unicode="g" horiz-adv-x="1284" 
d="M98 532q0 156 61.5 272t171 178t253.5 62q119 0 211 -50t151 -128l15 158h169v-1001q0 -242 -144 -368t-419 -126q-115 0 -234.5 25.5t-195.5 64.5l35 137q84 -43 189.5 -63.5t199.5 -20.5q188 0 286.5 82t98.5 262v183q-61 -78 -152.5 -128.5t-209.5 -50.5
q-143 0 -253 62.5t-171.5 178.5t-61.5 271zM287 532q0 -166 92 -267t252 -101q88 0 170 41t143 114v429q-61 74 -143 113.5t-170 39.5q-160 0 -252 -101.5t-92 -267.5z" />
    <glyph glyph-name="h" unicode="h" horiz-adv-x="1206" 
d="M154 0v1468l184 27v-627q129 176 354 176q178 0 274.5 -98t96.5 -276v-670h-184v666q0 113 -65.5 174t-186.5 61q-166 0 -289 -147v-754h-184z" />
    <glyph glyph-name="i" unicode="i" horiz-adv-x="491" 
d="M106 1348l142 135l137 -135l-137 -138zM154 0v1024h184v-1024h-184z" />
    <glyph glyph-name="j" unicode="j" horiz-adv-x="491" 
d="M-129 -451l27 140q53 -16 116 -17q74 0 107 43t33 121v1188h184v-1186q0 -147 -74 -228t-215 -81q-47 0 -98 6t-80 14zM106 1348l142 135l137 -135l-137 -138z" />
    <glyph glyph-name="k" unicode="k" horiz-adv-x="1130" 
d="M154 0v1468l184 27v-897h182l344 426h201l-385 -487l442 -537h-209l-383 455h-192v-455h-184z" />
    <glyph glyph-name="l" unicode="l" horiz-adv-x="491" 
d="M154 0v1468l184 27v-1495h-184z" />
    <glyph glyph-name="m" unicode="m" horiz-adv-x="1914" 
d="M154 0v1024h170l14 -156q129 176 346 176q131 0 218 -53t124 -151q134 204 373 204h2q178 0 274.5 -98t96.5 -276v-670h-185v666q0 113 -65.5 174t-186.5 61q-166 0 -286 -147q6 -39 6 -84v-670h-185v666q0 113 -65.5 174t-186.5 61q-88 0 -155.5 -38t-124.5 -109v-754
h-184z" />
    <glyph glyph-name="n" unicode="n" horiz-adv-x="1206" 
d="M154 0v1024h170l14 -156q129 176 354 176q178 0 274.5 -98t96.5 -276v-670h-184v666q0 113 -65.5 174t-186.5 61q-166 0 -289 -147v-754h-184z" />
    <glyph glyph-name="o" unicode="o" horiz-adv-x="1296" 
d="M98 512q0 147 65.5 268t190.5 192.5t295 71.5q168 0 293 -71.5t190.5 -192.5t65.5 -268t-65.5 -268t-190.5 -192.5t-293 -71.5q-170 0 -295 71.5t-190.5 192.5t-65.5 268zM287 512q0 -104 41 -193.5t121.5 -142.5t197.5 -53t199 53t123 142.5t41 193.5q0 102 -41 191.5
t-123 143.5t-199 54t-197.5 -54t-121.5 -143.5t-41 -191.5z" />
    <glyph glyph-name="p" unicode="p" horiz-adv-x="1284" 
d="M154 -471v1495h170l14 -158q59 78 151.5 128t210.5 50q145 0 255 -65.5t170.5 -186t60.5 -280.5t-60.5 -280.5t-170 -186t-255.5 -65.5q-118 0 -209.5 50t-152.5 128v-602zM338 279q63 -76 145 -116t170 -40q162 0 253 107.5t91 281.5t-91 281.5t-253 107.5
q-88 0 -170 -40t-145 -113v-469z" />
    <glyph glyph-name="q" unicode="q" horiz-adv-x="1284" 
d="M98 512q0 160 60.5 280.5t170 186t255.5 65.5q119 0 211 -50t151 -128l15 158h169v-1468l-184 -27v629q-61 -78 -152.5 -128t-209.5 -50q-146 0 -255.5 65.5t-170 186t-60.5 280.5zM287 512q0 -174 90 -281.5t254 -107.5q88 0 170 41t143 115v469q-61 74 -143 113.5
t-170 39.5q-164 0 -254 -107.5t-90 -281.5z" />
    <glyph glyph-name="r" unicode="r" horiz-adv-x="796" 
d="M154 0v1024h170l12 -233q57 115 163.5 184t233.5 69l19 -184q-136 0 -245.5 -56t-168.5 -145v-659h-184z" />
    <glyph glyph-name="s" unicode="s" horiz-adv-x="1013" 
d="M88 68l37 139q86 -43 185.5 -65.5t187.5 -22.5q113 0 176 42t63 128q0 51 -34.5 84t-88 51t-143.5 39q-117 29 -189.5 55.5t-124 85t-51.5 154.5q0 143 109 214.5t293 71.5q115 0 226.5 -23.5t187.5 -62.5l-35 -139q-86 43 -186.5 64.5t-188.5 21.5q-100 0 -159.5 -37
t-59.5 -110q0 -51 34.5 -83t87 -49.5t144.5 -39.5q117 -27 190.5 -53.5t125 -84t51.5 -153.5q0 -156 -110.5 -235.5t-313.5 -79.5q-115 0 -225.5 23.5t-188.5 64.5z" />
    <glyph glyph-name="t" unicode="t" horiz-adv-x="798" 
d="M63 881v143h168v334l185 35v-369h362v-143h-362v-596q0 -162 190 -162q49 0 85 7t81 26l27 -136q-108 -40 -236 -40h-6q-168 0 -247 80.5t-79 220.5v600h-168z" />
    <glyph glyph-name="u" unicode="u" horiz-adv-x="1206" 
d="M143 354v664l185 26v-686q0 -113 65.5 -174t186.5 -61q164 0 286 147v754h185v-1024h-168l-15 156q-133 -176 -354 -176q-178 0 -274.5 98t-96.5 276z" />
    <glyph glyph-name="v" unicode="v" horiz-adv-x="1196" 
d="M53 1024h203l346 -797l336 797h203l-465 -1042h-158z" />
    <glyph glyph-name="w" unicode="w" horiz-adv-x="1734" 
d="M53 1024h187l266 -811l270 811h170l283 -811l266 811h184l-356 -1042h-180l-283 788l-270 -788h-178z" />
    <glyph glyph-name="x" unicode="x" horiz-adv-x="1075" 
d="M27 0l403 535l-375 489h207l279 -367l272 367h199l-367 -487l404 -537h-215l-302 399l-301 -399h-204z" />
    <glyph glyph-name="y" unicode="y" horiz-adv-x="1208" 
d="M41 -446l27 137q70 -18 129 -19q86 0 147.5 51.5t124.5 182.5l47 100l-463 1018h195l362 -803l348 803h195l-510 -1118q-86 -193 -185.5 -285t-256.5 -92q-35 0 -84 7t-76 18z" />
    <glyph glyph-name="z" unicode="z" horiz-adv-x="997" 
d="M68 0v123l589 758h-565v143h797v-123l-590 -758h629v-143h-860z" />
    <glyph glyph-name="braceleft" unicode="{" horiz-adv-x="702" 
d="M66 631v131q90 0 133 38t43 128q0 61 -21 196q-20 139 -20 205q0 203 119.5 280t320.5 77v-134q-145 0 -199.5 -55t-54.5 -174q0 -57 21 -188q2 -20 10 -83t8 -108q0 -98 -51 -163.5t-156 -84.5q104 -18 155.5 -83.5t51.5 -163.5q0 -45 -8 -106.5t-10 -80.5
q-20 -131 -21 -192q0 -119 54.5 -174.5t199.5 -55.5v-133q-201 0 -320.5 77t-119.5 282q0 66 20 200q20 135 21 199q0 90 -43 128t-133 38z" />
    <glyph glyph-name="bar" unicode="|" horiz-adv-x="456" 
d="M162 -256v1905h131v-1905h-131z" />
    <glyph glyph-name="braceright" unicode="}" horiz-adv-x="702" 
d="M59 -160q147 0 201.5 55.5t54.5 174.5q0 61 -20 192q-2 18 -10.5 79.5t-8.5 107.5q0 98 50.5 163.5t154.5 83.5q-104 18 -154.5 84t-50.5 164q0 55 21 191q2 18 10 79.5t8 108.5q0 119 -54 174t-202 55v134q201 0 321 -76t120 -281q0 -66 -21 -205q-20 -135 -20 -196
q0 -90 44 -128t134 -38v-131q-90 0 -134 -38t-44 -128q0 -63 20 -199q20 -135 21 -200q0 -205 -120 -282t-321 -77v133z" />
    <glyph glyph-name="asciitilde" unicode="~" horiz-adv-x="1003" 
d="M137 584q0 111 41 155.5t115 44.5q39 0 123 -18t96 -21q156 -33 184 -32q63 0 64 71h112q0 -108 -40.5 -154t-114.5 -46q-55 0 -228 41q-16 4 -82.5 18t-93.5 14q-63 0 -63 -73h-113z" />
    <glyph glyph-name="uni00A0" unicode="&#xa0;" horiz-adv-x="491" 
 />
    <glyph glyph-name="exclamdown" unicode="&#xa1;" horiz-adv-x="487" 
d="M147 324l35 331h121l35 -331v-693h-191v693zM162 811v213h162v-213h-162z" />
    <glyph glyph-name="cent" unicode="&#xa2;" horiz-adv-x="1097" 
d="M88 512q0 223 119 363.5t323 162.5v252h129v-248q111 -6 191 -42.5t131 -88.5v-166q-76 80 -160 118t-190 38q-156 0 -251 -103.5t-95 -285.5t95 -285.5t251 -103.5q106 0 190 38t160 118v-166q-51 -49 -132 -87t-190 -44v-238h-129v242q-205 23 -323.5 163t-118.5 363z
" />
    <glyph glyph-name="sterling" unicode="&#xa3;" horiz-adv-x="1339" 
d="M100 0v164h168v432h-168v147h168v271q0 199 136.5 299t349.5 100q242 0 454 -125v-172q-111 70 -221 104.5t-203 34.5q-139 0 -232 -63.5t-93 -194.5v-254h545v-147h-545v-432h758v-164h-1117z" />
    <glyph glyph-name="currency" unicode="&#xa4;" horiz-adv-x="1523" 
d="M86 487v113h141q-6 47 -6 96q0 45 6 88h-141v111h158q55 244 235 381t443 137q143 0 255.5 -31.5t213.5 -93.5v-174q-105 72 -223.5 106.5t-237.5 34.5q-180 0 -305 -95t-170 -265h467v-111h-494q-2 -29 -2 -88q0 -35 4 -96h492v-113h-463q47 -164 170 -257t301 -93
q119 0 237.5 35t223.5 107v-175q-102 -61 -215 -92.5t-254 -31.5q-260 0 -439.5 134t-234.5 373h-162z" />
    <glyph glyph-name="yen" unicode="&#xa5;" horiz-adv-x="1376" 
d="M59 1393h205l428 -734l418 734h207l-479 -820h305v-147h-359v-426h-192v426h-361v147h308z" />
    <glyph glyph-name="brokenbar" unicode="&#xa6;" horiz-adv-x="462" 
d="M166 -256v778h131v-778h-131zM166 870v779h131v-779h-131z" />
    <glyph glyph-name="section" unicode="&#xa7;" horiz-adv-x="1224" 
d="M117 496q0 -98 61.5 -159t148.5 -92.5t230 -66.5q123 -29 193.5 -53.5t119 -67.5t48.5 -108q0 -199 -312 -199q-109 0 -233.5 35t-229.5 104v-174q220 -125 486 -125q205 0 344 90.5t139 282.5q0 121 -66.5 194.5t-164 112.5t-263.5 82q-129 35 -208.5 61.5t-153.5 69.5
t-121 107q-18 -45 -18 -94zM117 1042q0 -121 62.5 -192.5t156.5 -109.5t254 -78q188 -49 307 -99.5t197 -146.5q18 49 18 94q0 98 -61.5 159.5t-148.5 93.5t-232 68q-123 31 -192.5 54.5t-118 65.5t-48.5 108q0 197 312 196q109 0 227.5 -34.5t222.5 -104.5v174
q-213 125 -473 125q-205 0 -344 -90t-139 -283z" />
    <glyph glyph-name="copyright" unicode="&#xa9;" horiz-adv-x="1017" 
d="M98 983q0 113 55.5 206t149.5 148.5t205 55.5q113 0 206 -55.5t148.5 -148.5t55.5 -206q0 -111 -55.5 -205t-148.5 -149.5t-206 -55.5q-111 0 -205 55.5t-149.5 149.5t-55.5 205zM129 983q0 -102 51 -189t138.5 -138.5t189.5 -51.5t189 51.5t138.5 138.5t51.5 189
t-51.5 189.5t-138.5 138.5t-189 51t-189.5 -51t-138.5 -138.5t-51 -189.5zM272 983q0 117 67 184.5t177 67.5q92 0 164 -45v-64q-82 49 -160 50q-82 0 -129 -52.5t-47 -140.5t49 -139t129 -51q92 0 158 49v-66q-76 -45 -164 -45q-111 0 -177.5 67.5t-66.5 184.5z" />
    <glyph glyph-name="guillemotleft" unicode="&#xab;" horiz-adv-x="1071" 
d="M84 512l344 397h131l-326 -397l326 -397h-131zM494 512l344 397h131l-326 -397l326 -397h-131z" />
    <glyph glyph-name="logicalnot" unicode="&#xac;" horiz-adv-x="1177" 
d="M125 807v147h903v-559h-147v412h-756z" />
    <glyph glyph-name="uni00AD" unicode="&#xad;" horiz-adv-x="958" 
d="M129 520v148h698v-148h-698z" />
    <glyph glyph-name="registered" unicode="&#xae;" horiz-adv-x="1017" 
d="M98 983q0 113 55.5 206t149.5 148.5t205 55.5q113 0 206 -55.5t148.5 -148.5t55.5 -206q0 -111 -55.5 -205t-148.5 -149.5t-206 -55.5q-111 0 -205 55.5t-149.5 149.5t-55.5 205zM129 983q0 -102 51 -189t138.5 -138.5t189.5 -51.5t189 51.5t138.5 138.5t51.5 189
t-51.5 189.5t-138.5 138.5t-189 51t-189.5 -51t-138.5 -138.5t-51 -189.5zM338 739h74v197h86l141 -197h80l-148 205q57 8 89 44t32 93q0 145 -172 146h-182v-488zM410 995v172h102q53 0 79.5 -20.5t26.5 -65.5q0 -90 -106 -86h-102z" />
    <glyph glyph-name="degree" unicode="&#xb0;" horiz-adv-x="577" 
d="M100 1225q0 78 55.5 133t133.5 55t133 -55t55 -133t-55 -133.5t-133 -55.5t-133.5 55.5t-55.5 133.5zM193 1225q0 -39 28.5 -67t67.5 -28t66.5 28t27.5 67t-27.5 67.5t-66.5 28.5t-67.5 -28.5t-28.5 -67.5z" />
    <glyph glyph-name="plusminus" unicode="&#xb1;" horiz-adv-x="1220" 
d="M117 143v150h985v-150h-985zM117 698v148h418v321h147v-321h420v-148h-418v-323h-147v323h-420z" />
    <glyph glyph-name="paragraph" unicode="&#xb6;" horiz-adv-x="1226" 
d="M74 965q0 203 130 315.5t369 112.5h189v-1393h-154v537h-35q-239 0 -369 112.5t-130 315.5zM891 0v1393h147v-1393h-147z" />
    <glyph glyph-name="periodcentered" unicode="&#xb7;" horiz-adv-x="425" 
d="M123 408v182h182v-182h-182z" />
    <glyph glyph-name="guillemotright" unicode="&#xbb;" horiz-adv-x="1071" 
d="M98 115l328 397l-328 397h133l342 -397l-342 -397h-133zM508 115l328 397l-328 397h133l342 -397l-342 -397h-133z" />
    <glyph glyph-name="questiondown" unicode="&#xbf;" horiz-adv-x="1013" 
d="M70 8q0 217 135 307.5t325 104.5l17 235h135l4 -354q-182 0 -301 -62.5t-121 -215.5q0 -129 82 -191.5t213 -62.5q84 0 185.5 29.5t195.5 97.5v-172q-176 -113 -414 -113q-203 0 -329.5 99.5t-126.5 297.5zM528 811v213h164v-213h-164z" />
    <glyph glyph-name="multiply" unicode="&#xd7;" horiz-adv-x="1024" 
d="M70 332l104 -105l344 342l342 -342l105 105l-342 342l342 344l-105 104l-342 -342l-344 342l-104 -104l344 -344z" />
    <glyph glyph-name="divide" unicode="&#xf7;" horiz-adv-x="1165" 
d="M133 602v148h903v-148h-903zM528 213v213h164v-213h-164zM528 932v213h164v-213h-164z" />
    <glyph glyph-name="uni060C" unicode="&#x60c;" horiz-adv-x="403" 
d="M137 41q12 131 45 230.5t97 215.5l112 -10q-78 -201 -92 -436h-162z" />
    <glyph glyph-name="uni061B" unicode="&#x61b;" horiz-adv-x="550" 
d="M145 0v182h181v-182h-181zM186 821q12 131 45 230.5t97 215.5l112 -10q-78 -201 -92 -436h-162z" />
    <glyph glyph-name="uni061F" unicode="&#x61f;" horiz-adv-x="997" 
d="M53 1108q0 113 56.5 199t153.5 133t218 47q246 0 494 -248l-115 -106q-102 96 -194.5 144t-184.5 48q-109 0 -179.5 -60.5t-70.5 -160.5q0 -55 25 -97t67 -78t128 -95q121 -84 174 -162t55 -203l-96 -57h-84v39q0 88 -45 148t-152 136q-82 57 -133 105.5t-84 114
t-33 153.5zM528 0v182h181v-182h-181z" />
    <glyph glyph-name="uni0621" unicode="&#x621;" horiz-adv-x="1048" 
d="M57 0v184h240q-51 84 -73.5 157t-22.5 148q0 102 50 185.5t138 130.5t195 47q76 0 149.5 -17.5t184.5 -58.5l-50 -149q-88 33 -143 44t-113 11q-119 0 -188.5 -66.5t-69.5 -181.5q0 -109 90 -250h549l-47 -184h-889z" />
    <glyph glyph-name="uni0622" unicode="&#x622;" horiz-adv-x="526" 
d="M-47 1360q4 90 52.5 144.5t130.5 54.5q30 0 55.5 -9.5t68.5 -27.5q74 -39 130 -39q37 0 81.5 13.5t77.5 35.5l-2 -121q-76 -47 -157 -47q-35 0 -65 10.5t-67 30.5q-66 35 -108 35q-41 0 -65.5 -20.5t-30.5 -59.5h-101zM184 0v1208l174 27v-1235h-174z" />
    <glyph glyph-name="uni0623" unicode="&#x623;" horiz-adv-x="526" 
d="M31 1344v117h110q-33 53 -32 118q0 76 52 126t134 50q70 0 158 -38v-101q-72 31 -131 31q-45 0 -74 -25.5t-29 -64.5q0 -55 35 -96h266l-26 -117h-463zM184 0v1208l174 27v-1235h-174z" />
    <glyph glyph-name="uni0624" unicode="&#x624;" horiz-adv-x="1118" 
d="M88 487q0 145 61.5 258t169 176.5t242.5 63.5q125 0 222.5 -57.5t151.5 -160.5t54 -241v-479q0 -252 -198.5 -369.5t-565.5 -117.5l-20 149q309 0 460.5 83t151.5 263v4q-131 -59 -254 -59q-141 0 -248.5 59.5t-167 170t-59.5 257.5zM250 496q0 -152 86 -235t233 -83
q137 0 248 39v295q0 131 -75.5 213t-196.5 82q-127 0 -211 -86t-84 -225zM286 1167v137h125q-39 59 -39 127q0 90 60.5 146.5t157.5 56.5q76 0 157 -41v-125q-90 31 -139 31q-53 0 -85 -26.5t-32 -71.5q0 -51 39 -97h283l-41 -137h-486z" />
    <glyph glyph-name="uni0625" unicode="&#x625;" horiz-adv-x="520" 
d="M-66 -402h113q-33 53 -33 119q0 76 52 126t132 50q72 0 160 -39v-100q-72 31 -131 31q-45 0 -73.5 -25t-28.5 -66q0 -59 34 -96h265l-27 -117h-463v117zM178 0v1468l174 27v-1495h-174z" />
    <glyph glyph-name="uni0626" unicode="&#x626;" horiz-adv-x="1957" 
d="M34 749v137h125q-39 59 -39 127q0 90 60.5 146.5t157.5 56.5q76 0 157 -41v-125q-90 31 -139 31q-53 0 -85 -26.5t-32 -71.5q0 -51 39 -97h283l-41 -137h-486zM88 90q0 219 90 494l141 -39q-72 -211 -71 -410q2 -193 108.5 -292t300.5 -99q150 0 238 42t127 137t39 259
v385q0 188 105.5 298t303.5 110h246l119 -105v-864l-174 -26v811h-166q-125 0 -193.5 -64.5t-68.5 -189.5v-373q0 -197 -53.5 -329t-182.5 -203.5t-350 -71.5q-258 0 -408.5 134t-150.5 396z" />
    <glyph glyph-name="uni0627" unicode="&#x627;" horiz-adv-x="520" 
d="M178 0v1468l174 27v-1495h-174z" />
    <glyph glyph-name="uni0628" unicode="&#x628;" horiz-adv-x="1701" 
d="M88 444q0 150 43 351l154 -21q-33 -182 -33 -280q0 -160 94 -235t283 -75h506q258 0 258 256v549l174 29v-625q0 -188 -109.5 -290.5t-322.5 -102.5h-547q-244 0 -372 112.5t-128 331.5zM727 -307l148 149l154 -149l-150 -148z" />
    <glyph glyph-name="uni0629" unicode="&#x629;" horiz-adv-x="1073" 
d="M68 473q0 137 60 255t167.5 187.5t243.5 69.5q133 0 239.5 -69.5t167 -187.5t60.5 -255t-59.5 -249.5t-166 -177t-241.5 -64.5q-138 0 -245.5 64.5t-166.5 177t-59 249.5zM226 1321l149 148l150 -148l-150 -147zM240 475q0 -131 84 -219t215 -88q129 0 212 88t83 219
q0 88 -38 163t-105.5 119t-151.5 44q-86 0 -155 -44t-106.5 -119t-37.5 -163zM549 1321l152 148l149 -148l-149 -147z" />
    <glyph glyph-name="uni062A" unicode="&#x62a;" horiz-adv-x="1701" 
d="M88 444q0 150 43 351l154 -21q-33 -182 -33 -280q0 -160 94 -235t283 -75h506q258 0 258 256v549l174 29v-625q0 -188 -109.5 -290.5t-322.5 -102.5h-547q-244 0 -372 112.5t-128 331.5zM518 1087l149 148l150 -148l-150 -147zM841 1087l152 148l149 -148l-149 -147z" />
    <glyph glyph-name="uni062B" unicode="&#x62b;" horiz-adv-x="1701" 
d="M88 444q0 150 43 351l154 -21q-33 -182 -33 -280q0 -160 94 -235t283 -75h506q258 0 258 256v549l174 29v-625q0 -188 -109.5 -290.5t-322.5 -102.5h-547q-244 0 -372 112.5t-128 331.5zM498 1091l149 148l150 -148l-148 -149zM711 1341l106 109l109 -109l-107 -107z
M835 1091l152 148l149 -148l-149 -149z" />
    <glyph glyph-name="uni062C" unicode="&#x62c;" horiz-adv-x="1280" 
d="M86 -80q0 254 223 415t682 202q-156 152 -259 233.5t-183 115.5t-162 34q-43 0 -84 -7.5t-115 -25.5l-36 155q154 57 260 58q98 0 195.5 -44t233.5 -153.5t357 -318.5l-72 -195q-276 -2 -472.5 -59.5t-298 -158.5t-101.5 -234q0 -154 111.5 -238t314.5 -84q88 0 182 17.5
t244 58.5l47 -150q-289 -104 -510 -104q-258 0 -407.5 126t-149.5 357zM591 29l148 149l154 -149l-150 -148z" />
    <glyph glyph-name="uni062D" unicode="&#x62d;" horiz-adv-x="1280" 
d="M86 -80q0 254 223 415t682 202q-156 152 -259 233.5t-183 115.5t-162 34q-43 0 -84 -7.5t-115 -25.5l-36 155q154 57 260 58q98 0 195.5 -44t233.5 -153.5t357 -318.5l-72 -195q-276 -2 -472.5 -59.5t-298 -158.5t-101.5 -234q0 -154 111.5 -238t314.5 -84q88 0 182 17.5
t244 58.5l47 -150q-289 -104 -510 -104q-258 0 -407.5 126t-149.5 357z" />
    <glyph glyph-name="uni062E" unicode="&#x62e;" horiz-adv-x="1280" 
d="M86 -80q0 254 223 415t682 202q-156 152 -259 233.5t-183 115.5t-162 34q-43 0 -84 -7.5t-115 -25.5l-36 155q154 57 260 58q98 0 195.5 -44t233.5 -153.5t357 -318.5l-72 -195q-276 -2 -472.5 -59.5t-298 -158.5t-101.5 -234q0 -154 111.5 -238t314.5 -84q88 0 182 17.5
t244 58.5l47 -150q-289 -104 -510 -104q-258 0 -407.5 126t-149.5 357zM714 1305l148 147l154 -147l-150 -150z" />
    <glyph glyph-name="uni062F" unicode="&#x62f;" horiz-adv-x="1056" 
d="M20 184h517q125 0 191.5 61.5t66.5 174.5l-2 119q-2 125 -89.5 202.5t-222.5 77.5h-121v180h158q129 0 230.5 -54t160 -153.5t58.5 -230.5l2 -168q-2 -188 -111.5 -290.5t-322.5 -102.5h-480z" />
    <glyph glyph-name="uni0630" unicode="&#x630;" horiz-adv-x="1056" 
d="M20 184h517q125 0 191.5 61.5t66.5 174.5l-2 119q-2 125 -89.5 202.5t-222.5 77.5h-121v180h158q129 0 230.5 -54t160 -153.5t58.5 -230.5l2 -168q-2 -188 -111.5 -290.5t-322.5 -102.5h-480zM337 1344l148 147l154 -147l-150 -150z" />
    <glyph glyph-name="uni0631" unicode="&#x631;" horiz-adv-x="612" 
d="M-61 -291q178 0 273 86t95 266l-2 928l174 29v-963q0 -256 -131 -375.5t-393 -119.5z" />
    <glyph glyph-name="uni0632" unicode="&#x632;" horiz-adv-x="612" 
d="M-61 -291q178 0 273 86t95 266l-2 928l174 29v-963q0 -256 -131 -375.5t-393 -119.5zM245 1323l148 147l154 -147l-150 -150z" />
    <glyph glyph-name="uni0633" unicode="&#x633;" horiz-adv-x="2680" 
d="M88 90q0 219 90 494l141 -39q-72 -211 -71 -410q2 -193 108.5 -292t300.5 -99q205 0 304.5 115.5t99.5 357.5v772l172 29v-762q63 -33 132 -52.5t124 -19.5q258 0 258 256v332l174 27v-406q0 -82 -27 -157q127 -51 238 -52q125 0 190.5 64.5t65.5 191.5v549l174 29v-625
q0 -188 -103.5 -290.5t-304.5 -102.5q-162 0 -339 109q-109 -109 -312 -109q-129 0 -274 86q-27 -246 -170.5 -386t-411.5 -140q-258 0 -408.5 134t-150.5 396z" />
    <glyph glyph-name="uni0634" unicode="&#x634;" horiz-adv-x="2680" 
d="M88 90q0 219 90 494l141 -39q-72 -211 -71 -410q2 -193 108.5 -292t300.5 -99q205 0 304.5 115.5t99.5 357.5v772l172 29v-762q63 -33 132 -52.5t124 -19.5q258 0 258 256v332l174 27v-406q0 -82 -27 -157q127 -51 238 -52q125 0 190.5 64.5t65.5 191.5v549l174 29v-625
q0 -188 -103.5 -290.5t-304.5 -102.5q-162 0 -339 109q-109 -109 -312 -109q-129 0 -274 86q-27 -246 -170.5 -386t-411.5 -140q-258 0 -408.5 134t-150.5 396zM1508 1243l149 148l150 -148l-148 -149zM1721 1493l106 109l109 -109l-107 -107zM1845 1243l152 148l149 -148
l-149 -149z" />
    <glyph glyph-name="uni0635" unicode="&#x635;" horiz-adv-x="2564" 
d="M88 90q0 219 90 494l141 -39q-72 -211 -71 -410q2 -193 108.5 -292t300.5 -99q205 0 304.5 115.5t99.5 357.5v772l172 29v-244q315 135 478 185.5t317 50.5q126 0 228.5 -56.5t160 -156t57.5 -224.5q0 -94 -15.5 -170.5t-58.5 -244.5l-137 -158h-1049
q-41 -209 -181 -324.5t-386 -115.5q-258 0 -408.5 134t-150.5 396zM1233 184h999q37 123 52.5 204t15.5 161q-2 123 -89 201.5t-220 78.5q-123 0 -238 -31.5t-412 -138.5l-108 -38v-422v-15z" />
    <glyph glyph-name="uni0636" unicode="&#x636;" horiz-adv-x="2564" 
d="M88 90q0 219 90 494l141 -39q-72 -211 -71 -410q2 -193 108.5 -292t300.5 -99q205 0 304.5 115.5t99.5 357.5v772l172 29v-244q315 135 478 185.5t317 50.5q126 0 228.5 -56.5t160 -156t57.5 -224.5q0 -94 -15.5 -170.5t-58.5 -244.5l-137 -158h-1049
q-41 -209 -181 -324.5t-386 -115.5q-258 0 -408.5 134t-150.5 396zM1233 184h999q37 123 52.5 204t15.5 161q-2 123 -89 201.5t-220 78.5q-123 0 -238 -31.5t-412 -138.5l-108 -38v-422v-15zM1490 1346l148 147l154 -147l-150 -150z" />
    <glyph glyph-name="uni0637" unicode="&#x637;" horiz-adv-x="1841" 
d="M35 184h297v1284l174 27v-723q315 135 480 186.5t319 51.5q127 0 229 -56.5t159.5 -156t57.5 -224.5q0 -94 -15.5 -170.5t-58.5 -244.5l-137 -158h-1122h-86h-264zM506 184h1003q37 123 52.5 204t15.5 161q-2 123 -89 201.5t-220 78.5q-96 0 -183.5 -17t-204 -57
t-374.5 -137v-434z" />
    <glyph glyph-name="uni0638" unicode="&#x638;" horiz-adv-x="1841" 
d="M35 184h297v1284l174 27v-723q315 135 480 186.5t319 51.5q127 0 229 -56.5t159.5 -156t57.5 -224.5q0 -94 -15.5 -170.5t-58.5 -244.5l-137 -158h-1122h-86h-264zM506 184h1003q37 123 52.5 204t15.5 161q-2 123 -89 201.5t-220 78.5q-96 0 -183.5 -17t-204 -57
t-374.5 -137v-434zM808 1346l148 147l154 -147l-150 -150z" />
    <glyph glyph-name="uni0639" unicode="&#x639;" horiz-adv-x="1228" 
d="M115 -145q0 125 69.5 231.5t210.5 181.5q-193 193 -192 408q0 125 59.5 222t162.5 151.5t234 54.5q72 0 154 -18.5t211 -61.5l-49 -150q-104 31 -167 43.5t-120 12.5q-137 0 -229 -77t-92 -204q0 -82 44 -165t124 -154q49 16 73 22l436 135l7 -168l-394 -114
q-377 -109 -376 -330q0 -260 403 -260q203 0 451 76l47 -150q-158 -57 -276 -80.5t-244 -23.5q-254 0 -400.5 107.5t-146.5 310.5z" />
    <glyph glyph-name="uni063A" unicode="&#x63a;" horiz-adv-x="1228" 
d="M115 -145q0 125 69.5 231.5t210.5 181.5q-193 193 -192 408q0 125 59.5 222t162.5 151.5t234 54.5q72 0 154 -18.5t211 -61.5l-49 -150q-104 31 -167 43.5t-120 12.5q-137 0 -229 -77t-92 -204q0 -82 44 -165t124 -154q49 16 73 22l436 135l7 -168l-394 -114
q-377 -109 -376 -330q0 -260 403 -260q203 0 451 76l47 -150q-158 -57 -276 -80.5t-244 -23.5q-254 0 -400.5 107.5t-146.5 310.5zM489 1411l148 147l154 -147l-150 -150z" />
    <glyph glyph-name="uni0640" unicode="&#x640;" horiz-adv-x="397" 
d="M-20 20v146q0 18 20 18h397q21 0 21 -18v-146q0 -20 -21 -20h-397q-20 0 -20 20z" />
    <glyph glyph-name="uni0641" unicode="&#x641;" horiz-adv-x="1945" 
d="M88 444q0 139 45 351l152 -21q-33 -182 -33 -280q0 -160 94 -235t283 -75h399q-92 193 -92 332q0 137 61.5 245.5t169 170t244.5 61.5q129 0 235.5 -61.5t167 -169t60.5 -238.5q0 -246 -152.5 -385t-421.5 -139h-448h-264q-244 0 -372 112.5t-128 331.5zM1106 514
q0 -147 102 -330h107q176 0 280.5 88t104.5 246q0 131 -85 216t-214 85q-82 0 -149.5 -42t-106.5 -112.5t-39 -150.5zM1237 1315l147 147l154 -147l-149 -150z" />
    <glyph glyph-name="uni0642" unicode="&#x642;" horiz-adv-x="1574" 
d="M88 90q0 219 90 494l141 -39q-72 -211 -71 -410q2 -203 135 -306t373 -103q231 0 374.5 92t157.5 252q-143 -70 -274 -70q-133 0 -235.5 57.5t-160 165t-57.5 248.5q0 145 59.5 260t164 178.5t235.5 63.5q127 0 224 -57.5t152.5 -162t55.5 -241.5v-410
q0 -264 -184.5 -403t-552.5 -139q-184 0 -325.5 60.5t-221.5 179t-80 290.5zM703 1313l149 148l150 -148l-150 -147zM723 479q0 -145 85 -223t228 -78q127 0 244 45v275q0 135 -78 215t-207 80q-123 0 -197.5 -86t-74.5 -228zM1026 1313l152 148l149 -148l-149 -147z" />
    <glyph glyph-name="uni0643" unicode="&#x643;" horiz-adv-x="1744" 
d="M88 444q0 150 43 351l154 -21q-33 -182 -33 -280q0 -160 94 -235t283 -75h506h2h2q129 0 192.5 65.5t63.5 201.5l2 1017l172 27v-1085q0 -410 -432 -410h-2h-547q-244 0 -372 112.5t-128 331.5zM582 729v137h125q-39 59 -39 125q0 92 60 148.5t157 56.5q70 0 157 -41
v-127q-82 31 -139 31q-53 0 -85 -25.5t-32 -70.5q0 -51 39 -97h283l-41 -137h-485z" />
    <glyph glyph-name="uni0644" unicode="&#x644;" horiz-adv-x="1382" 
d="M88 90q0 219 90 494l141 -39q-72 -211 -71 -410q2 -193 108.5 -292t300.5 -99q205 0 304.5 115.5t99.5 357.5v772v486l174 26v-1235h-2v-67q0 -297 -143.5 -468t-442.5 -171q-258 0 -408.5 134t-150.5 396z" />
    <glyph glyph-name="uni0645" unicode="&#x645;" horiz-adv-x="1386" 
d="M74 154q0 342 311 381q12 125 74.5 228t164 162.5t226.5 59.5q135 0 241.5 -69.5t167 -187.5t60.5 -255t-59.5 -249.5t-167 -177t-242.5 -64.5q-172 0 -295 102t-160 266q-74 -16 -110.5 -68.5t-36.5 -150.5v-657l-172 -27zM553 475q0 -131 84 -219t213 -88t212 88
t83 219q0 88 -38 163t-105.5 119t-151.5 44t-152.5 -44t-106.5 -119t-38 -163z" />
    <glyph glyph-name="uni0646" unicode="&#x646;" horiz-adv-x="1382" 
d="M88 90q0 219 90 494l141 -39q-72 -211 -71 -410q2 -193 108.5 -292t300.5 -99q205 0 304.5 115.5t99.5 357.5v772l172 29v-819q0 -297 -143.5 -468t-442.5 -171q-258 0 -408.5 134t-150.5 396zM507 989l148 147l154 -147l-150 -150z" />
    <glyph glyph-name="uni0647" unicode="&#x647;" horiz-adv-x="1073" 
d="M68 473q0 137 60 255t167.5 187.5t243.5 69.5q133 0 239.5 -69.5t167 -187.5t60.5 -255t-59.5 -249.5t-166 -177t-241.5 -64.5q-138 0 -245.5 64.5t-166.5 177t-59 249.5zM240 475q0 -131 84 -219t215 -88q129 0 212 88t83 219q0 88 -38 163t-105.5 119t-151.5 44
q-86 0 -155 -44t-106.5 -119t-37.5 -163z" />
    <glyph glyph-name="uni0648" unicode="&#x648;" horiz-adv-x="1118" 
d="M88 487q0 145 61.5 258t169 176.5t242.5 63.5q125 0 222.5 -57.5t151.5 -160.5t54 -241v-479q0 -252 -198.5 -369.5t-565.5 -117.5l-20 149q309 0 460.5 83t151.5 263v4q-131 -59 -254 -59q-141 0 -248.5 59.5t-167 170t-59.5 257.5zM250 496q0 -152 86 -235t233 -83
q137 0 248 39v295q0 131 -75.5 213t-196.5 82q-127 0 -211 -86t-84 -225z" />
    <glyph glyph-name="uni0649" unicode="&#x649;" horiz-adv-x="1957" 
d="M88 90q0 219 90 494l141 -39q-72 -211 -71 -410q2 -193 108.5 -292t300.5 -99q150 0 238 42t127 137t39 259v385q0 188 105.5 298t303.5 110h246l119 -105v-864l-174 -26v811h-166q-125 0 -193.5 -64.5t-68.5 -189.5v-373q0 -197 -53.5 -329t-182.5 -203.5t-350 -71.5
q-258 0 -408.5 134t-150.5 396z" />
    <glyph glyph-name="uni064A" unicode="&#x64a;" horiz-adv-x="1957" 
d="M88 90q0 219 90 494l141 -39q-72 -211 -71 -410q2 -193 108.5 -292t300.5 -99q150 0 238 42t127 137t39 259v385q0 188 105.5 298t303.5 110h246l119 -105v-864l-174 -26v811h-166q-125 0 -193.5 -64.5t-68.5 -189.5v-373q0 -197 -53.5 -329t-182.5 -203.5t-350 -71.5
q-258 0 -408.5 134t-150.5 396zM385 -710l149 147l150 -147l-150 -148zM708 -710l152 147l149 -147l-149 -148z" />
    <glyph glyph-name="uni064B" unicode="&#x64b;" 
d="M-258 1421l514 109l20 -90l-514 -107zM-221 1231l514 108l16 -88l-512 -108z" />
    <glyph glyph-name="uni064C" unicode="&#x64c;" 
d="M-350 1436l18 84q96 -8 148.5 -56.5t52.5 -115.5q0 -51 -35 -105l156 35q-49 61 -49 139q0 92 57 148.5t145 56.5q80 0 135.5 -57.5t55.5 -139.5q0 -176 -197 -217l-399 -75l-55 84q86 49 86 118q0 39 -31 67t-88 34zM33 1411q0 -31 11 -57.5t38 -57.5l35 9
q123 24 123 116q0 45 -30 74t-75 29q-43 0 -72.5 -32t-29.5 -81z" />
    <glyph glyph-name="uni064D" unicode="&#x64d;" 
d="M-258 -201l514 109l20 -90l-514 -107zM-221 -391l514 108l16 -88l-512 -108z" />
    <glyph glyph-name="uni064E" unicode="&#x64e;" 
d="M-238 1319l521 113l20 -99l-522 -110z" />
    <glyph glyph-name="uni064F" unicode="&#x64f;" 
d="M-283 1227l260 51q-47 68 -47 137q0 92 56.5 149.5t146.5 57.5q80 0 136.5 -58.5t56.5 -138.5q0 -90 -52.5 -145t-148.5 -72l-391 -73zM23 1411q0 -31 11 -57.5t38 -57.5l34 9q121 22 121 114q0 47 -28.5 76t-73.5 29q-43 0 -72.5 -32t-29.5 -81z" />
    <glyph glyph-name="uni0650" unicode="&#x650;" 
d="M-238 -258l521 113l20 -99l-522 -110z" />
    <glyph glyph-name="uni0651" unicode="&#x651;" 
d="M-311 1374l94 15l18 -105q18 -102 82 -102q37 0 58.5 25.5t21.5 72.5q0 12 -4 41l-18 94l92 19l18 -95q10 -51 36 -77.5t58 -26.5q35 0 54.5 21.5t19.5 56.5q0 33 -8 64.5t-27 80.5l92 35q21 -59 30 -103t9 -87q0 -78 -44 -122t-115 -44q-80 0 -127 69q-16 -55 -57.5 -88
t-98.5 -33q-72 0 -112 43t-54 129z" />
    <glyph glyph-name="uni0652" unicode="&#x652;" 
d="M-195 1319q0 104 57.5 161.5t153.5 57.5q90 0 143.5 -59.5t53.5 -157.5q0 -100 -59.5 -157.5t-153.5 -57.5q-92 0 -143.5 55.5t-51.5 157.5zM-98 1323q0 -121 108 -121q45 0 76 30t31 87q0 59 -32 91t-79 32q-39 0 -71.5 -31t-32.5 -88z" />
    <glyph glyph-name="uni0653" unicode="&#x653;" 
d="M-287 1280q4 90 52.5 144.5t130.5 54.5q30 0 55.5 -9.5t68.5 -27.5q74 -39 130 -39q37 0 81.5 13.5t77.5 35.5l-2 -121q-76 -47 -157 -47q-35 0 -65 10.5t-67 30.5q-66 35 -108 35q-41 0 -65.5 -20.5t-30.5 -59.5h-101z" />
    <glyph glyph-name="uni0654" unicode="&#x654;" 
d="M-221 1315v117h110q-33 53 -32 118q0 76 52 126t134 50q70 0 158 -38v-101q-72 31 -131 31q-45 0 -74 -25.5t-29 -64.5q0 -55 35 -96h266l-26 -117h-463z" />
    <glyph glyph-name="uni0655" unicode="&#x655;" 
d="M-250 -375h113q-33 53 -33 119q0 76 52 126t132 50q72 0 160 -39v-100q-72 31 -131 31q-45 0 -73.5 -25t-28.5 -66q0 -59 34 -96h265l-27 -117h-463v117z" />
    <glyph glyph-name="uni0656" unicode="&#x656;" 
d="M-76 -106h117q29 -80 29 -185v-188l-121 41v147q0 104 -25 185z" />
    <glyph glyph-name="uni0660" unicode="&#x660;" horiz-adv-x="518" 
d="M109 612l147 150l150 -150l-148 -145z" />
    <glyph glyph-name="uni0661" unicode="&#x661;" horiz-adv-x="563" 
d="M156 1362l176 31l71 -1393h-176z" />
    <glyph glyph-name="uni0662" unicode="&#x662;" horiz-adv-x="944" 
d="M156 1249l168 144v-2l2 2h665l-47 -185h-610l61 -1208h-174z" />
    <glyph glyph-name="uni0663" unicode="&#x663;" horiz-adv-x="1267" 
d="M156 1362l176 31l20 -398q55 -39 121 -39q82 0 119 58.5t33 177.5l-11 170l136 31l10 -201l2 -51q0 -74 -17 -140q68 -45 132 -45q82 0 118.5 56.5t30.5 179.5l-10 170l149 31l13 -201q8 -201 -64 -302.5t-215 -101.5q-115 0 -217 80q-68 -80 -184 -80q-68 0 -138 37
l43 -825h-176z" />
    <glyph glyph-name="uni0664" unicode="&#x664;" horiz-adv-x="1013" 
d="M88 305q0 260 305 397q-127 33 -199.5 119t-72.5 217q0 104 52 190.5t144.5 135.5t206.5 49q68 0 153 -20.5t210 -65.5l-49 -149q-102 33 -166 47t-117 14q-125 0 -199.5 -62.5t-74.5 -166.5q0 -100 90 -163t223 -63q41 0 80 7h-2l159 40l35 -139l-360 -96
q-119 -29 -186.5 -99.5t-67.5 -160.5q0 -88 77 -136t224 -48q104 0 195.5 12t203.5 41l-22 -172q-209 -59 -387 -60q-217 0 -336 86t-119 246z" />
    <glyph glyph-name="uni0665" unicode="&#x665;" horiz-adv-x="1214" 
d="M94 518q0 229 65.5 431t183.5 323t263 121q129 0 247 -108.5t191.5 -307.5t73.5 -457q0 -256 -135 -401.5t-375 -145.5q-156 0 -272.5 65.5t-179 188.5t-62.5 291zM254 543q0 -197 94 -294t262 -97t259.5 99t91.5 292q0 180 -46.5 333.5t-129.5 245.5t-187 92
q-92 0 -172 -94t-126 -248.5t-46 -328.5z" />
    <glyph glyph-name="uni0666" unicode="&#x666;" horiz-adv-x="888" 
d="M-55 1208l45 185h571l168 -148l-63 -1245h-177l64 1208h-608z" />
    <glyph glyph-name="uni0667" unicode="&#x667;" horiz-adv-x="1105" 
d="M-27 1393h201l389 -1178l371 1178h199l-484 -1403l-166 -19z" />
    <glyph glyph-name="uni0668" unicode="&#x668;" horiz-adv-x="1105" 
d="M-27 0l484 1403l166 18l510 -1421h-201l-389 1178l-371 -1178h-199z" />
    <glyph glyph-name="uni0669" unicode="&#x669;" horiz-adv-x="1110" 
d="M53 915q0 145 63.5 259t176.5 176.5t254 62.5l237 2l168 -149l-65 -1266h-174l26 524q-123 -47 -239 -47q-131 0 -232.5 53.5t-158 152.5t-56.5 232zM215 918q0 -121 81 -191t224 -70q124 0 228 39l26 533h-239q-94 0 -167 -42t-113 -112.5t-40 -156.5z" />
    <glyph glyph-name="uni066A" unicode="&#x66a;" horiz-adv-x="1064" 
d="M118 1235l148 147l154 -147l-150 -150zM192 0l721 1393h162l-719 -1393h-164zM655 236l148 149l154 -149l-150 -148z" />
    <glyph glyph-name="uni066B" unicode="&#x66b;" horiz-adv-x="491" 
d="M0 -256q37 96 61.5 210t30.5 228h164q-12 -133 -46 -233.5t-97 -214.5z" />
    <glyph glyph-name="uni066C" unicode="&#x66c;" horiz-adv-x="491" 
d="M12 -256q37 96 61.5 210t30.5 228h164q-12 -133 -46 -233.5t-97 -214.5z" />
    <glyph glyph-name="uni066D" unicode="&#x66d;" horiz-adv-x="737" 
d="M84 365l186 106l-186 109l51 92l188 -110v217h105v-217l188 110l51 -92l-188 -109l188 -106l-51 -92l-188 108v-217h-105v217l-188 -108z" />
    <glyph glyph-name="uni066E" unicode="&#x66e;" horiz-adv-x="1701" 
d="M88 444q0 150 43 351l154 -21q-33 -182 -33 -280q0 -160 94 -235t283 -75h506q258 0 258 256v549l174 29v-625q0 -188 -109.5 -290.5t-322.5 -102.5h-547q-244 0 -372 112.5t-128 331.5z" />
    <glyph glyph-name="uni066F" unicode="&#x66f;" horiz-adv-x="1574" 
d="M88 90q0 219 90 494l141 -39q-72 -211 -71 -410q2 -203 135 -306t373 -103q231 0 374.5 92t157.5 252q-143 -70 -274 -70q-133 0 -235.5 57.5t-160 165t-57.5 248.5q0 145 59.5 260t164 178.5t235.5 63.5q127 0 224 -57.5t152.5 -162t55.5 -241.5v-410
q0 -264 -184.5 -403t-552.5 -139q-184 0 -325.5 60.5t-221.5 179t-80 290.5zM723 479q0 -145 85 -223t228 -78q127 0 244 45v275q0 135 -78 215t-207 80q-123 0 -197.5 -86t-74.5 -228z" />
    <glyph glyph-name="uni0670" unicode="&#x670;" 
d="M-74 1413v189l121 -41v-148q0 -104 25 -184h-117q-29 80 -29 184z" />
    <glyph glyph-name="uni06A1" unicode="&#x6a1;" horiz-adv-x="1945" 
d="M88 444q0 150 43 351l154 -21q-33 -182 -33 -280q0 -160 94 -235t283 -75h399q-92 199 -92 332q0 137 61.5 245.5t170 170t243.5 61.5q131 0 236.5 -61.5t166 -168t60.5 -239.5q0 -246 -151.5 -385t-419.5 -139h-451h-264q-244 0 -372 112.5t-128 331.5zM1106 514
q0 -143 102 -330h109q176 0 279.5 88t103.5 246q0 131 -85 216t-214 85q-82 0 -149.5 -42t-106.5 -112.5t-39 -150.5z" />
    <glyph glyph-name="uni06A4" unicode="&#x6a4;" horiz-adv-x="1945" 
d="M88 444q0 139 45 351l152 -21q-33 -182 -33 -280q0 -160 94 -235t283 -75h399q-92 193 -92 332q0 137 61.5 245.5t169 170t244.5 61.5q129 0 235.5 -61.5t167 -169t60.5 -238.5q0 -246 -152.5 -385t-421.5 -139h-448h-264q-244 0 -372 112.5t-128 331.5zM1085 1321
l150 147l149 -147l-147 -150zM1106 514q0 -147 102 -330h107q176 0 280.5 88t104.5 246q0 131 -85 216t-214 85q-82 0 -149.5 -42t-106.5 -112.5t-39 -150.5zM1298 1571l107 108l108 -108l-106 -107zM1423 1321l152 147l149 -147l-149 -150z" />
    <glyph glyph-name="uni06BA" unicode="&#x6ba;" horiz-adv-x="1382" 
d="M88 90q0 219 90 494l141 -39q-72 -211 -71 -410q2 -193 108.5 -292t300.5 -99q205 0 304.5 115.5t99.5 357.5v772l172 29v-819q0 -297 -143.5 -468t-442.5 -171q-258 0 -408.5 134t-150.5 396z" />
    <glyph glyph-name="uni2000" unicode="&#x2000;" horiz-adv-x="1129" 
 />
    <glyph glyph-name="uni2001" unicode="&#x2001;" horiz-adv-x="2259" 
 />
    <glyph glyph-name="uni2002" unicode="&#x2002;" horiz-adv-x="1129" 
 />
    <glyph glyph-name="uni2003" unicode="&#x2003;" horiz-adv-x="2259" 
 />
    <glyph glyph-name="uni2004" unicode="&#x2004;" horiz-adv-x="753" 
 />
    <glyph glyph-name="uni2005" unicode="&#x2005;" horiz-adv-x="564" 
 />
    <glyph glyph-name="uni2006" unicode="&#x2006;" horiz-adv-x="376" 
 />
    <glyph glyph-name="uni2007" unicode="&#x2007;" horiz-adv-x="376" 
 />
    <glyph glyph-name="uni2008" unicode="&#x2008;" horiz-adv-x="282" 
 />
    <glyph glyph-name="uni2009" unicode="&#x2009;" horiz-adv-x="451" 
 />
    <glyph glyph-name="uni200A" unicode="&#x200a;" horiz-adv-x="125" 
 />
    <glyph glyph-name="uni2010" unicode="&#x2010;" horiz-adv-x="958" 
d="M129 520v148h698v-148h-698z" />
    <glyph glyph-name="uni2011" unicode="&#x2011;" horiz-adv-x="958" 
d="M129 520v148h698v-148h-698z" />
    <glyph glyph-name="figuredash" unicode="&#x2012;" horiz-adv-x="958" 
d="M129 520v148h698v-148h-698z" />
    <glyph glyph-name="endash" unicode="&#x2013;" horiz-adv-x="1368" 
d="M129 520v148h1108v-148h-1108z" />
    <glyph glyph-name="emdash" unicode="&#x2014;" horiz-adv-x="1982" 
d="M129 520v148h1722v-148h-1722z" />
    <glyph glyph-name="quoteleft" unicode="&#x2018;" horiz-adv-x="460" 
d="M102 952q12 131 45 231.5t97 217.5l112 -10q-37 -96 -61.5 -210t-30.5 -229h-162z" />
    <glyph glyph-name="quoteright" unicode="&#x2019;" horiz-adv-x="462" 
d="M104 963q78 201 93 438h161q-12 -133 -45.5 -233.5t-97.5 -215.5z" />
    <glyph glyph-name="quotesinglbase" unicode="&#x201a;" horiz-adv-x="370" 
d="M12 -256q37 96 61.5 210t30.5 228h164q-12 -133 -46 -233.5t-97 -214.5z" />
    <glyph glyph-name="quotedblleft" unicode="&#x201c;" horiz-adv-x="737" 
d="M102 952q12 131 45 231.5t97 217.5l112 -10q-37 -96 -61.5 -210t-30.5 -229h-162zM381 952q12 131 45 231.5t96 217.5l113 -10q-37 -96 -61.5 -210t-30.5 -229h-162z" />
    <glyph glyph-name="quotedblright" unicode="&#x201d;" horiz-adv-x="741" 
d="M104 963q78 201 93 438h161q-12 -133 -45.5 -233.5t-97.5 -215.5zM383 963q78 201 92 438h162q-12 -133 -46 -233.5t-97 -215.5z" />
    <glyph glyph-name="quotedblbase" unicode="&#x201e;" horiz-adv-x="647" 
d="M12 -256q37 96 61.5 210t30.5 228h164q-12 -133 -46 -233.5t-97 -214.5zM291 -256q76 201 92 438h162q-12 -131 -45 -231.5t-97 -216.5z" />
    <glyph glyph-name="dagger" unicode="&#x2020;" horiz-adv-x="1290" 
d="M102 866v160l478 -22l-21 389h174l-20 -389l475 22v-160l-475 23l20 -1299h-174l21 1299z" />
    <glyph glyph-name="daggerdbl" unicode="&#x2021;" horiz-adv-x="1290" 
d="M102 104v160h478l-21 301l21 301h-478v160l478 -22l-21 389h174l-20 -389l475 22v-160h-475l20 -301l-20 -301h475v-158l-475 21l20 -537h-174l21 537z" />
    <glyph glyph-name="bullet" unicode="&#x2022;" horiz-adv-x="628" 
d="M182 377v250h264v-250h-264z" />
    <glyph glyph-name="ellipsis" unicode="&#x2026;" horiz-adv-x="1114" 
d="M135 0v213h156v-213h-156zM479 0v213h156v-213h-156zM823 0v213h156v-213h-156z" />
    <glyph glyph-name="uni202F" unicode="&#x202f;" horiz-adv-x="451" 
 />
    <glyph glyph-name="perthousand" unicode="&#x2030;" horiz-adv-x="2396" 
d="M78 1036q0 166 82 271.5t235 105.5q152 0 234 -105.5t82 -271.5t-82 -271.5t-234 -105.5q-153 0 -235 105.5t-82 271.5zM188 1036q0 -129 52.5 -205.5t152.5 -76.5q102 0 153.5 76.5t51.5 205.5t-51 206t-154 77q-100 0 -152.5 -77t-52.5 -206zM342 0l377 635h112
l-339 -635h-150zM801 758l340 635h149l-379 -635h-110zM934 360q0 166 81 271.5t234 105.5q154 0 236 -105.5t82 -271.5t-82 -271t-236 -105q-153 0 -234 105.5t-81 270.5zM1044 360q0 -129 52.5 -205.5t152.5 -76.5q102 0 153.5 76.5t51.5 205.5t-51 206t-154 77
q-100 0 -152.5 -77t-52.5 -206zM1690 360q0 166 81.5 271.5t235.5 105.5q152 0 233.5 -105.5t81.5 -271.5t-81.5 -271t-233.5 -105q-154 0 -235.5 105.5t-81.5 270.5zM1800 360q0 -129 52.5 -205.5t152.5 -76.5q102 0 153.5 76.5t51.5 205.5t-51.5 206t-153.5 77
q-100 0 -152.5 -77t-52.5 -206z" />
    <glyph glyph-name="guilsinglleft" unicode="&#x2039;" horiz-adv-x="661" 
d="M84 512l344 397h131l-326 -397l326 -397h-131z" />
    <glyph glyph-name="guilsinglright" unicode="&#x203a;" horiz-adv-x="661" 
d="M98 115l328 397l-328 397h133l342 -397l-342 -397h-133z" />
    <glyph glyph-name="fraction" unicode="&#x2044;" horiz-adv-x="948" 
d="M0 0l797 1393h151l-798 -1393h-150z" />
    <glyph glyph-name="uni205F" unicode="&#x205f;" horiz-adv-x="564" 
 />
    <glyph glyph-name="Euro" unicode="&#x20ac;" horiz-adv-x="1523" 
d="M86 487v113h141q-6 47 -6 96q0 45 6 88h-141v111h158q55 244 235 381t443 137q143 0 255.5 -31.5t213.5 -93.5v-174q-105 72 -223.5 106.5t-237.5 34.5q-180 0 -305 -95t-170 -265h467v-111h-494q-2 -29 -2 -88q0 -35 4 -96h492v-113h-463q47 -164 170 -257t301 -93
q119 0 237.5 35t223.5 107v-175q-102 -61 -215 -92.5t-254 -31.5q-260 0 -439.5 134t-234.5 373h-162z" />
    <glyph glyph-name="trademark" unicode="&#x2122;" horiz-adv-x="1466" 
d="M123 1309v86h469v-86h-186v-533h-97v533h-186zM688 776v619h119l190 -467l191 467h119v-619h-97v463l-188 -463h-55l-187 463v-463h-92z" />
    <glyph glyph-name="partialdiff" unicode="&#x2202;" horiz-adv-x="1273" 
d="M94 453q0 115 54.5 210t156 151t236.5 56q115 0 232.5 -45t201.5 -153q0 289 -108.5 436t-319.5 147q-100 0 -183 -28.5t-198 -98.5v172q106 64 196.5 88.5t206.5 24.5q207 0 340 -104.5t193.5 -272.5t60.5 -364q0 -317 -138 -504.5t-404 -187.5q-166 0 -285 65.5
t-180.5 174t-61.5 233.5zM289 442q0 -86 41 -155.5t114.5 -109.5t163.5 -40q117 0 196 57.5t118 148.5t43 194q-52 84 -150 141t-215 57q-141 0 -226 -80t-85 -213z" />
    <glyph glyph-name="emptyset" unicode="&#x2205;" horiz-adv-x="1216" 
d="M94 512q0 147 59.5 269t175 192.5t279.5 70.5q135 0 242 -55l90 137h125l-123 -192q88 -72 133 -181.5t45 -240.5q0 -147 -59.5 -269t-175 -192.5t-277.5 -70.5q-137 0 -243 55l-89 -137h-124l120 192q-86 74 -132 183.5t-46 238.5zM279 512q0 -76 22.5 -146.5
t65.5 -123.5l413 630q-72 46 -172 46q-166 0 -247.5 -120t-81.5 -286zM438 154q70 -48 170 -48q166 0 248 119t82 287q0 76 -22.5 146.5t-67.5 121.5z" />
    <glyph glyph-name="product" unicode="&#x220f;" horiz-adv-x="1476" 
d="M182 0v1393h1112v-1393h-192v1231h-729v-1231h-191z" />
    <glyph glyph-name="summation" unicode="&#x2211;" horiz-adv-x="1216" 
d="M100 0v160l396 536l-396 537v160h998v-162h-772l391 -535l-391 -532h772v-164h-998z" />
    <glyph glyph-name="minus" unicode="&#x2212;" horiz-adv-x="1185" 
d="M141 602v148h903v-148h-903z" />
    <glyph glyph-name="radical" unicode="&#x221a;" horiz-adv-x="1576" 
d="M88 602v148h614l209 -562l447 1205h205l-547 -1403h-221l-234 612h-473z" />
    <glyph glyph-name="infinity" unicode="&#x221e;" horiz-adv-x="1611" 
d="M119 702q0 127 42 234.5t124 171t196 63.5q111 0 196 -75.5t128 -198.5q41 121 127 197.5t196 76.5q113 0 195 -63.5t124 -171t42 -234.5q0 -215 -94.5 -350t-272.5 -135q-121 0 -200.5 77t-116.5 202q-39 -127 -118 -203t-202 -76q-178 0 -272 135t-94 350zM274 696
q0 -141 64.5 -219t161.5 -78q100 0 163.5 86t81.5 236q-27 119 -92 193.5t-157 74.5q-96 0 -159 -75.5t-63 -217.5zM864 721q18 -150 82 -236t164 -86q96 0 160.5 78t64.5 219t-61.5 217t-157.5 76q-94 0 -159.5 -74.5t-92.5 -193.5z" />
    <glyph glyph-name="integral" unicode="&#x222b;" horiz-adv-x="774" 
d="M39 -246q61 -20 127 -20t97.5 32.5t31.5 122.5v1229q0 156 72.5 225.5t210.5 69.5q82 0 157 -20v-144q-59 20 -125 21q-66 0 -98.5 -33t-32.5 -123v-1229q0 -156 -72.5 -225.5t-209.5 -69.5q-82 0 -158 21v143z" />
    <glyph glyph-name="approxequal" unicode="&#x2248;" horiz-adv-x="1024" 
d="M147 365q0 111 41 156.5t115 45.5q37 0 119 -17.5t98 -21.5q152 -35 189 -34q29 0 45 16t16 57h113q0 -110 -41 -156t-115 -46q-53 0 -225 41q-16 4 -83 18t-95 14q-63 0 -64 -73h-113zM147 791q0 201 156 200q53 0 217 -39q160 -33 189 -32q61 0 61 71h113
q0 -110 -41 -155t-115 -45q-53 0 -225 40q-16 4 -83 18.5t-95 14.5q-63 0 -64 -73h-113z" />
    <glyph glyph-name="notequal" unicode="&#x2260;" horiz-adv-x="1153" 
d="M125 395v148h291l139 264h-430v147h502l227 439h164l-230 -439h240v-147h-311l-139 -264h450v-148h-520l-211 -395h-162l211 395h-221z" />
    <glyph glyph-name="lessequal" unicode="&#x2264;" horiz-adv-x="1161" 
d="M127 143v140h903v-140h-903zM127 670v204l903 203v-147l-727 -160l727 -158v-147z" />
    <glyph glyph-name="greaterequal" unicode="&#x2265;" horiz-adv-x="1161" 
d="M127 143v140h903v-140h-903zM127 465v147l729 158l-729 160v147l903 -203v-204z" />
    <glyph glyph-name="lozenge" unicode="&#x25ca;" horiz-adv-x="1132" 
d="M70 696l419 717h154l418 -717l-418 -716h-154zM270 696l299 -501l293 501l-293 502z" />
    <glyph glyph-name="uni25FC" unicode="&#x25fc;" horiz-adv-x="1024" 
d="M0 0v1024h1024v-1024h-1024z" />
    <glyph glyph-name="uniFBB2" unicode="&#xfbb2;" 
d="M-150 1317l148 147l154 -147l-150 -150z" />
    <glyph glyph-name="uniFBB3" unicode="&#xfbb3;" 
d="M-150 -317l148 149l154 -149l-150 -148z" />
    <glyph glyph-name="uniFBB4" unicode="&#xfbb4;" 
d="M-311 1284l149 148l150 -148l-150 -147zM12 1284l152 148l149 -148l-149 -147z" />
    <glyph glyph-name="uniFBB5" unicode="&#xfbb5;" 
d="M-311 -354l149 147l150 -147l-150 -148zM12 -354l152 147l149 -147l-149 -148z" />
    <glyph glyph-name="uniFBB6" unicode="&#xfbb6;" 
d="M-319 1327l149 148l150 -148l-148 -149zM-106 1577l106 109l109 -109l-107 -107zM18 1327l152 148l149 -148l-149 -149z" />
    <glyph glyph-name="uniFBB9" unicode="&#xfbb9;" 
d="M-317 -360l147 147l152 -147l-150 -150zM-94 -606l94 96l98 -96l-96 -96zM18 -360l152 147l149 -147l-147 -150z" />
    <glyph glyph-name="uniFD3E" unicode="&#xfd3e;" horiz-adv-x="614" 
d="M66 631v131q90 0 133 38t43 128q0 61 -21 196q-20 139 -20 205q0 203 119.5 280t320.5 77v-134q-145 0 -199.5 -55t-54.5 -174q0 -57 21 -188q2 -20 10 -83t8 -108q0 -98 -51 -163.5t-156 -84.5q104 -18 155.5 -83.5t51.5 -163.5q0 -45 -8 -106.5t-10 -80.5
q-20 -131 -21 -192q0 -119 54.5 -174.5t199.5 -55.5v-133q-201 0 -320.5 77t-119.5 282q0 66 20 200q20 135 21 199q0 90 -43 128t-133 38z" />
    <glyph glyph-name="uniFD3F" unicode="&#xfd3f;" horiz-adv-x="614" 
d="M63 -160q147 0 201.5 55.5t54.5 174.5q0 61 -20 192q-2 18 -10.5 79.5t-8.5 107.5q0 98 50.5 163.5t154.5 83.5q-104 18 -154.5 84t-50.5 164q0 55 21 191q2 18 10 79.5t8 108.5q0 119 -54 174t-202 55v134q201 0 321 -76t120 -281q0 -66 -21 -205q-20 -135 -20 -196
q0 -90 44 -128t134 -38v-131q-90 0 -134 -38t-44 -128q0 -63 20 -199q20 -135 21 -200q0 -205 -120 -282t-321 -77v133z" />
    <glyph glyph-name="uni0627.short" horiz-adv-x="526" 
d="M184 0v1208l174 27v-1235h-174z" />
    <glyph glyph-name="uniFE8E.short" horiz-adv-x="608" 
d="M176 1208l174 27v-784q0 -135 63.5 -201t192.5 -66q20 0 21 -18l2 -146q0 -20 -21 -20q-217 0 -323.5 102.5t-106.5 307.5z" />
    <glyph glyph-name="uni066E.medi.alt" horiz-adv-x="770" 
d="M-20 20l2 146q0 18 20 18q164 0 238.5 60.5t74.5 195.5v332l172 27v-406q0 -51 -10 -106q137 -102 293 -103q21 0 21 -18v-146q0 -20 -21 -20q-92 0 -182 38t-170 112q-111 -150 -418 -150q-20 0 -20 20z" />
    <glyph glyph-name="uni066E.init.alt" horiz-adv-x="722" 
d="M-20 20l2 146q0 18 20 18h156q125 0 190.5 64.5t65.5 191.5v549l172 29v-625q0 -188 -108.5 -290.5t-321.5 -102.5h-156q-20 0 -20 20z" />
    <glyph glyph-name="dotcenterar" 
d="M-150 502l148 147l154 -147l-150 -150z" />
    <glyph glyph-name="waslaar" 
d="M-317 1053l28 90q66 -23 86 -27q100 127 167 179.5t136 52.5q72 0 122 -47.5t50 -116.5q0 -90 -80.5 -141.5t-222.5 -51.5q-133 0 -286 62zM-121 1100q43 -8 90 -8q92 0 140.5 24.5t48.5 67.5q0 27 -22.5 46t-53.5 19q-41 0 -83 -31.5t-120 -117.5z" />
    <glyph glyph-name="hamzacenterar" 
d="M-236 991v137h125q-39 59 -39 127q0 90 60.5 146.5t157.5 56.5q76 0 157 -41v-125q-90 31 -139 31q-53 0 -85 -26.5t-32 -71.5q0 -51 39 -97h283l-41 -137h-486z" />
    <glyph glyph-name="hamzaaboveDammaar" 
d="M-312 1856l260 51q-47 68 -47 137q0 92 56.5 149.5t146.5 57.5q80 0 136.5 -58.5t56.5 -138.5q0 -90 -52.5 -145t-148.5 -72l-391 -73zM-221 1315v117h110q-33 53 -32 118q0 76 52 126t134 50q70 0 158 -38v-101q-72 31 -131 31q-45 0 -74 -25.5t-29 -64.5q0 -55 35 -96
h266l-26 -117h-463zM-6 2040q0 -31 11 -57.5t38 -57.5l34 9q121 22 121 114q0 47 -28.5 76t-73.5 29q-43 0 -72.5 -32t-29.5 -81z" />
    <glyph glyph-name="hamzaaboveDammatanar" 
d="M-356 2073l18 84q96 -8 148.5 -56.5t52.5 -115.5q0 -51 -35 -105l156 35q-49 61 -49 139q0 92 57 148.5t145 56.5q80 0 135.5 -57.5t55.5 -139.5q0 -176 -197 -217l-399 -75l-55 84q86 49 86 118q0 39 -31 67t-88 34zM-221 1315v117h110q-33 53 -32 118q0 76 52 126
t134 50q70 0 158 -38v-101q-72 31 -131 31q-45 0 -74 -25.5t-29 -64.5q0 -55 35 -96h266l-26 -117h-463zM27 2048q0 -31 11 -57.5t38 -57.5l35 9q123 24 123 116q0 45 -30 74t-75 29q-43 0 -72.5 -32t-29.5 -81z" />
    <glyph glyph-name="hamzaaboveFathaar" 
d="M-279 1880l521 113l20 -99l-522 -110zM-221 1315v117h110q-33 53 -32 118q0 76 52 126t134 50q70 0 158 -38v-101q-72 31 -131 31q-45 0 -74 -25.5t-29 -64.5q0 -55 35 -96h266l-26 -117h-463z" />
    <glyph glyph-name="hamzaaboveFathatanar" 
d="M-295 2054l514 109l20 -90l-514 -107zM-258 1864l514 108l16 -88l-512 -108zM-221 1315v117h110q-33 53 -32 118q0 76 52 126t134 50q70 0 158 -38v-101q-72 31 -131 31q-45 0 -74 -25.5t-29 -64.5q0 -55 35 -96h266l-26 -117h-463z" />
    <glyph glyph-name="hamzaaboveSukunar" 
d="M-221 1315v117h110q-33 53 -32 118q0 76 52 126t134 50q70 0 158 -38v-101q-72 31 -131 31q-45 0 -74 -25.5t-29 -64.5q0 -55 35 -96h266l-26 -117h-463zM-164 2030q0 104 57.5 161.5t153.5 57.5q90 0 143.5 -59.5t53.5 -157.5q0 -100 -59.5 -157.5t-153.5 -57.5
q-92 0 -143.5 55.5t-51.5 157.5zM-67 2034q0 -121 108 -121q45 0 76 30t31 87q0 59 -32 91t-79 32q-39 0 -71.5 -31t-32.5 -88z" />
    <glyph glyph-name="hamzabelowKasraar" 
d="M-267 -721l521 113l20 -99l-522 -110zM-250 -436h113q-33 53 -33 119q0 76 52 126t132 50q72 0 160 -39v-100q-72 31 -131 31q-45 0 -73.5 -25t-28.5 -66q0 -59 34 -96h265l-27 -117h-463v117z" />
    <glyph glyph-name="hamzabelowKasratanar" 
d="M-262 -721l514 109l20 -90l-514 -107zM-250 -436h113q-33 53 -33 119q0 76 52 126t132 50q72 0 160 -39v-100q-72 31 -131 31q-45 0 -73.5 -25t-28.5 -66q0 -59 34 -96h265l-27 -117h-463v117zM-225 -911l514 108l16 -88l-512 -108z" />
    <glyph glyph-name="shaddaAlefabovear" 
d="M-311 1374l94 15l18 -105q18 -102 82 -102q37 0 58.5 25.5t21.5 72.5q0 12 -4 41l-18 94l92 19l18 -95q10 -51 36 -77.5t58 -26.5q35 0 54.5 21.5t19.5 56.5q0 33 -8 64.5t-27 80.5l92 35q21 -59 30 -103t9 -87q0 -78 -44 -122t-115 -44q-80 0 -127 69q-16 -55 -57.5 -88
t-98.5 -33q-72 0 -112 43t-54 129zM-111 1720v189l121 -41v-148q0 -104 25 -184h-117q-29 80 -29 184z" />
    <glyph glyph-name="shaddaDammaar" 
d="M-375 1606l260 51q-47 68 -47 137q0 92 56.5 149.5t146.5 57.5q80 0 136.5 -58.5t56.5 -138.5q0 -90 -52.5 -145t-148.5 -72l-391 -73zM-311 1374l94 15l18 -105q18 -102 82 -102q37 0 58.5 25.5t21.5 72.5q0 12 -4 41l-18 94l92 19l18 -95q10 -51 36 -77.5t58 -26.5
q35 0 54.5 21.5t19.5 56.5q0 33 -8 64.5t-27 80.5l92 35q21 -59 30 -103t9 -87q0 -78 -44 -122t-115 -44q-80 0 -127 69q-16 -55 -57.5 -88t-98.5 -33q-72 0 -112 43t-54 129zM-69 1790q0 -31 11 -57.5t38 -57.5l34 9q121 22 121 114q0 47 -28.5 76t-73.5 29
q-43 0 -72.5 -32t-29.5 -81z" />
    <glyph glyph-name="shaddaDammatanar" 
d="M-391 1821l18 84q96 -8 148.5 -56.5t52.5 -115.5q0 -51 -35 -105l156 35q-49 61 -49 139q0 92 57 148.5t145 56.5q80 0 135.5 -57.5t55.5 -139.5q0 -176 -197 -217l-399 -75l-55 84q86 49 86 118q0 39 -31 67t-88 34zM-311 1374l94 15l18 -105q18 -102 82 -102
q37 0 58.5 25.5t21.5 72.5q0 12 -4 41l-18 94l92 19l18 -95q10 -51 36 -77.5t58 -26.5q35 0 54.5 21.5t19.5 56.5q0 33 -8 64.5t-27 80.5l92 35q21 -59 30 -103t9 -87q0 -78 -44 -122t-115 -44q-80 0 -127 69q-16 -55 -57.5 -88t-98.5 -33q-72 0 -112 43t-54 129zM-8 1796
q0 -31 11 -57.5t38 -57.5l35 9q123 24 123 116q0 45 -30 74t-75 29q-43 0 -72.5 -32t-29.5 -81z" />
    <glyph glyph-name="shaddaFathaar" 
d="M-334 1630l521 113l20 -99l-522 -110zM-311 1374l94 15l18 -105q18 -102 82 -102q37 0 58.5 25.5t21.5 72.5q0 12 -4 41l-18 94l92 19l18 -95q10 -51 36 -77.5t58 -26.5q35 0 54.5 21.5t19.5 56.5q0 33 -8 64.5t-27 80.5l92 35q21 -59 30 -103t9 -87q0 -78 -44 -122
t-115 -44q-80 0 -127 69q-16 -55 -57.5 -88t-98.5 -33q-72 0 -112 43t-54 129z" />
    <glyph glyph-name="shaddaFathatanar" 
d="M-350 1804l514 109l20 -90l-514 -107zM-313 1614l514 108l16 -88l-512 -108zM-311 1374l94 15l18 -105q18 -102 82 -102q37 0 58.5 25.5t21.5 72.5q0 12 -4 41l-18 94l92 19l18 -95q10 -51 36 -77.5t58 -26.5q35 0 54.5 21.5t19.5 56.5q0 33 -8 64.5t-27 80.5l92 35
q21 -59 30 -103t9 -87q0 -78 -44 -122t-115 -44q-80 0 -127 69q-16 -55 -57.5 -88t-98.5 -33q-72 0 -112 43t-54 129z" />
    <glyph glyph-name="shaddaKasraar" 
d="M-311 1374l94 15l18 -105q18 -102 82 -102q37 0 58.5 25.5t21.5 72.5q0 12 -4 41l-18 94l92 19l18 -95q10 -51 36 -77.5t58 -26.5q35 0 54.5 21.5t19.5 56.5q0 33 -8 64.5t-27 80.5l92 35q21 -59 30 -103t9 -87q0 -78 -44 -122t-115 -44q-80 0 -127 69q-16 -55 -57.5 -88
t-98.5 -33q-72 0 -112 43t-54 129zM-201 963l521 113l20 -99l-522 -110z" />
    <glyph glyph-name="shaddaKasratanar" 
d="M-311 1374l94 15l18 -105q18 -102 82 -102q37 0 58.5 25.5t21.5 72.5q0 12 -4 41l-18 94l92 19l18 -95q10 -51 36 -77.5t58 -26.5q35 0 54.5 21.5t19.5 56.5q0 33 -8 64.5t-27 80.5l92 35q21 -59 30 -103t9 -87q0 -78 -44 -122t-115 -44q-80 0 -127 69q-16 -55 -57.5 -88
t-98.5 -33q-72 0 -112 43t-54 129zM-209 962l514 109l20 -90l-514 -107zM-172 772l514 108l16 -88l-512 -108z" />
    <glyph glyph-name="terminal1" horiz-adv-x="1163" 
d="M129 444q0 139 45 351l152 -21q-33 -182 -33 -280q0 -160 94 -235t283 -75h506q20 0 20 -18v-146q0 -20 -20 -20h-547q-244 0 -372 112.5t-128 331.5z" />
    <glyph glyph-name="terminal2" horiz-adv-x="1171" 
d="M156 455q0 174 63 446l152 -20q-49 -238 -49 -379q0 -162 94 -240t284 -78h490q20 0 20 -18v-146q0 -20 -20 -20h-533q-246 0 -373.5 114.5t-127.5 340.5z" />
    <glyph glyph-name="terminal1.alt" horiz-adv-x="991" 
d="M156 444q0 139 45 351l151 -21q-33 -182 -33 -280q0 -160 94.5 -235t282.5 -75h240q20 0 20 -18v-146q0 -20 -20 -20h-281q-244 0 -371.5 112.5t-127.5 331.5z" />
    <glyph glyph-name="terminal3" horiz-adv-x="784" 
d="M0 -256h821q21 0 21 -20v-144q0 -20 -21 -20h-782z" />
    <glyph glyph-name="terminal4" horiz-adv-x="784" 
d="M-57 -276q0 20 20 20h819l-37 -184h-782q-20 0 -20 20v144z" />
    <glyph glyph-name="waslear.alt" horiz-adv-x="446" 
d="M49 209l84 102q78 -63 152.5 -95t160.5 -32q20 0 21 -18v-146q0 -20 -21 -20q-111 0 -212 53t-185 156z" />
    </font>
</defs>
</svg>
