<svg width="88" height="112" fill="none" xmlns="http://www.w3.org/2000/svg">
  <path d="M59.4 23.2c10.6 4.7 12.8 14 14.4 18.2 24.5 63 15.7 145-31 199l-41.1-25C68 160 43.9 70.3 37.6 63c-6.3-7.3-18-27-18-27 3.2-2.2 8.8-1 16.3 8.7 0 0 1.6-1.2 1.3-3.3C38 38.4 23 9.5 23 9.5c-1.7-4-3.2-7.5-1.2-8.4 3.3-1.6 7.2 3.7 11.5 9.5l5.7 8.7c.5-1.5 3-2.5 4.5-2.7 2.2-.2 4 1.8 5.6 3.6.6-1.4 3.4-1.7 4.7-1.1 3.1 1.3 3.4 1.5 5.6 4z" fill="#fff"/>
  <path d="M59.4 23.2c10.6 4.7 12.8 14 14.4 18.2 24.5 63 15.7 145-31 199l-41.1-25C68 160 43.9 70.3 37.6 63c-6.3-7.3-18-27-18-27 3.2-2.2 8.8-1 16.3 8.7 0 0 1.6-1.2 1.3-3.3C38 38.4 23 9.5 23 9.5c-1.7-4-3.2-7.5-1.2-8.4 3.3-1.6 7.3 3.8 11.5 9.5L44.6 28m14.8-4.7a10.2 10.2 0 00-5.6-4.1c-1.3-.6-4.1-.3-4.7 1.1m10.3 3l4.3 8.7M39 19.3c.5-1.5 3-2.5 4.5-2.7 2.2-.2 4 1.8 5.6 3.6m5.4 10a39 39 0 00-5.4-10" stroke="#D9D7E0"/>
</svg>
