<?xml version="1.0" encoding="UTF-8" standalone="no"?>
<svg
   xmlns:dc="http://purl.org/dc/elements/1.1/"
   xmlns:cc="http://creativecommons.org/ns#"
   xmlns:rdf="http://www.w3.org/1999/02/22-rdf-syntax-ns#"
   xmlns:svg="http://www.w3.org/2000/svg"
   xmlns="http://www.w3.org/2000/svg"
   xmlns:sodipodi="http://sodipodi.sourceforge.net/DTD/sodipodi-0.dtd"
   xmlns:inkscape="http://www.inkscape.org/namespaces/inkscape"
   inkscape:version="1.0 (4035a4fb49, 2020-05-01)"
   sodipodi:docname="gatsby-3.svg"
   id="svg30"
   version="1.1"
   fill="none"
   height="320"
   width="298">
  <metadata
     id="metadata36">
    <rdf:RDF>
      <cc:Work
         rdf:about="">
        <dc:format>image/svg+xml</dc:format>
        <dc:type
           rdf:resource="http://purl.org/dc/dcmitype/StillImage" />
      </cc:Work>
    </rdf:RDF>
  </metadata>
  <defs
     id="defs34" />
  <sodipodi:namedview
     inkscape:current-layer="svg30"
     inkscape:window-maximized="1"
     inkscape:window-y="-8"
     inkscape:window-x="-8"
     inkscape:cy="160"
     inkscape:cx="149"
     inkscape:zoom="1.68125"
     showgrid="false"
     id="namedview32"
     inkscape:window-height="705"
     inkscape:window-width="1366"
     inkscape:pageshadow="2"
     inkscape:pageopacity="0"
     guidetolerance="10"
     gridtolerance="10"
     objecttolerance="10"
     borderopacity="1"
     bordercolor="#666666"
     pagecolor="#ffffff" />
  <path
     id="path2"
     stroke-miterlimit="10"
     stroke="#d9d7e0"
     fill="#ffffff"
     d="m 240.7,131.5 13,-2.6 18.7,94.2 -13,2.5 z" />
  <path
     id="path4"
     fill="#ffffff"
     d="m 270.1,169.5 c 0,0 14.9,18 19.2,24 4.4,6.2 6.7,10.4 5,11.7 -2,1.5 -8.6,-5.6 -8.6,-5.6 l -9.1,-16.3" />
  <path
     id="path6"
     stroke-miterlimit="10"
     stroke="#d9d7e0"
     d="m 270.1,169.5 c 0,0 14.9,18 19.2,24 4.4,6.2 6.7,10.4 5,11.7 -2,1.5 -8.6,-5.6 -8.6,-5.6 l -9.1,-16.3" />
  <path
     id="path8"
     fill="#ffffff"
     d="m 281.8,210.8 c 0,0 5,9.7 8.3,6.7 3.7,-3.9 -6.5,-22.4 -6.5,-22.4 l -8.4,-18.7" />
  <path
     id="path10"
     stroke-miterlimit="10"
     stroke="#d9d7e0"
     d="m 281.8,210.8 c 0,0 5,9.7 8.3,6.7 3.7,-3.9 -6.5,-22.4 -6.5,-22.4 l -8.4,-18.7" />
  <path
     id="path12"
     fill="#ffffff"
     d="m 274.9,179.5 c 1,2.7 2,5.8 2.6,9.5 4.1,21.4 6.3,30.6 6.5,32.4 0.5,4.8 -2.4,7.7 -4.9,3 l -7.6,-18.8" />
  <path
     id="path14"
     stroke-miterlimit="10"
     stroke="#d9d7e0"
     d="m 274.9,179.5 c 1,2.7 2,5.8 2.6,9.5 4.1,21.4 6.3,30.6 6.5,32.4 0.5,4.8 -2.4,7.7 -4.9,3 l -7.6,-18.8" />
  <path
     id="path16"
     fill="#ffffff"
     d="m 259.6,158.7 c 0,0 10.7,7.3 15.9,20.6 0,0 3.5,6.6 -0.3,18.8 -3.8,12.2 -5.5,16.6 -5.5,16.6 0,0 -2,4.4 -3.7,-0.3 -1.7,-4.6 -0.7,-13.8 0.8,-17.5" />
  <path
     id="path18"
     stroke-miterlimit="10"
     stroke="#d9d7e0"
     d="m 259.6,158.7 c 0,0 10.7,7.3 15.9,20.6 0,0 3.5,6.6 -0.3,18.8 -3.8,12.2 -5.5,16.6 -5.5,16.6 0,0 -2,4.4 -3.7,-0.3 -1.7,-4.6 -0.7,-13.8 0.8,-17.5" />
  <path
     id="path20"
     fill="#ffffff"
     d="m -3.4,179 c 0,0 27.3,-46 99.4,-60.2 86,-17 147.8,28.5 147.8,28.5 l 9.9,39.1 8,22.4 c 0,0 1.7,10.2 -6.3,4.2 l -14,-19.8 C 236.6,186 179.2,143 101.3,158.4 c 0,0 -51,10.5 -78.5,49.6" />
  <path
     id="path22"
     stroke-miterlimit="10"
     stroke="#d9d7e0"
     d="m -3.4,179 c 0,0 27.3,-46 99.4,-60.2 86,-17 147.8,28.5 147.8,28.5 l 9.9,39.1 8,22.4 c 0,0 1.7,10.2 -6.3,4.2 l -14,-19.8 C 236.6,186 179.2,143 101.3,158.4 c 0,0 -51,10.5 -78.5,49.6" />
  <path
     id="path24"
     stroke-miterlimit="10"
     stroke="#d9d7e0"
     fill="#ffffff"
     d="m 270.8,249.4 -11.5,-23.8 6.6,-1.3 6.5,-1.2 -1.6,26.4 z" />
  <path
     id="path26"
     stroke="#d9d7e0"
     fill="#d9bae8"
     d="m 270.1,246 0.5,-7.3 -3.7,0.7 3.2,6.5 z" />
  <path
     id="path28"
     stroke-miterlimit="10"
     stroke="#d9d7e0"
     d="M 267.2,197 253.7,128.9" />
  <!-- <circle cx="152.6" cy="337.4" r="40" transform="rotate(45 152.6 337.4)" fill="#639"/> -->
</svg>
