<svg width="293" height="174" fill="none" xmlns="http://www.w3.org/2000/svg">
  <path d="M134.3 139.3a9.6 9.6 0 110-19.3 9.6 9.6 0 010 19.3z" fill="#fff" stroke="#D9D7E0"/>
  <path d="M188.8 109s-8 26.5-10 30.5-3.6 9.6-6.2 8.2c-2.5-1.3-.9-10.8-.9-10.8" fill="#fff"/>
  <path d="M188.8 109s-8 26.5-10 30.5-3.6 9.6-6.2 8.2c-2.5-1.3-.9-10.8-.9-10.8" stroke="#D9D7E0" stroke-miterlimit="10"/>
  <path d="M184.9 117.8l-15.5 22.6s-8.4 11.7-11 9.4c-2.6-2.3 5.3-13.6 5.3-13.6" fill="#fff"/>
  <path d="M184.9 117.8l-15.5 22.6s-8.4 11.7-11 9.4c-2.6-2.3 5.3-13.6 5.3-13.6" stroke="#D9D7E0" stroke-miterlimit="10"/>
  <path d="M128.2-58.5s28.5 6.2 57 43.7a106.2 106.2 0 0119.4 41.3 103.3 103.3 0 01-3 64.2 79.6 79.6 0 01-15.6 27c-3.1 3.1-10 10.4-18.5 16.2-12.8 8.7-18.3 11-19.8 8.5-.8-1.5 4.1-5.9 9.2-10.1 5-4.3 17.8-12 13-20.4-3.8-6.6-12.8-6-16-5.4-9.1 1.6-21.3 9-25.3 2.1l16.8-9a50.2 50.2 0 0025.4-32.4c7-24.8-5-43.5-8.7-50.3-3.7-6.8-14.4-19.5-19.8-21.9" fill="#fff"/>
  <path d="M128.2-58.5s28.5 6.2 57 43.7a106.2 106.2 0 0119.4 41.3 103.3 103.3 0 01-3 64.2 79.6 79.6 0 01-15.6 27c-3.1 3.1-10 10.4-18.5 16.2-12.8 8.7-18.3 11-19.8 8.5-.8-1.5 4.1-5.9 9.2-10.1 5-4.3 17.8-12 13-20.4-3.8-6.6-12.8-6-16-5.4-9.1 1.6-21.3 9-25.3 2.1l16.8-9a50.2 50.2 0 0025.4-32.4c7-24.8-5-43.5-8.7-50.3-3.7-6.8-14.4-19.5-19.8-21.9" stroke="#D9D7E0" stroke-miterlimit="10"/>
  <!-- <circle cx="80" cy="-66" r="80" fill="#159BF3"/> -->
</svg>
