<?xml version="1.0" encoding="UTF-8" standalone="no"?>
<svg
   xmlns:dc="http://purl.org/dc/elements/1.1/"
   xmlns:cc="http://creativecommons.org/ns#"
   xmlns:rdf="http://www.w3.org/1999/02/22-rdf-syntax-ns#"
   xmlns:svg="http://www.w3.org/2000/svg"
   xmlns="http://www.w3.org/2000/svg"
   xmlns:xlink="http://www.w3.org/1999/xlink"
   xmlns:sodipodi="http://sodipodi.sourceforge.net/DTD/sodipodi-0.dtd"
   xmlns:inkscape="http://www.inkscape.org/namespaces/inkscape"
   inkscape:version="1.0 (4035a4fb49, 2020-05-01)"
   sodipodi:docname="landing-bg-mirror-13.svg"
   version="1.1"
   viewBox="0 0 1530.93 1704.46"
   data-name="Layer 1"
   id="Layer_1">
  <metadata
     id="metadata160">
    <rdf:RDF>
      <cc:Work
         rdf:about="">
        <dc:format>image/svg+xml</dc:format>
        <dc:type
           rdf:resource="http://purl.org/dc/dcmitype/StillImage" />
        <dc:title>خلفية 1</dc:title>
      </cc:Work>
    </rdf:RDF>
  </metadata>
  <sodipodi:namedview
     inkscape:current-layer="Layer_1"
     inkscape:window-maximized="1"
     inkscape:window-y="-8"
     inkscape:window-x="-8"
     inkscape:cy="725.50435"
     inkscape:cx="765.465"
     inkscape:zoom="0.31564249"
     showgrid="false"
     id="namedview158"
     inkscape:window-height="705"
     inkscape:window-width="1366"
     inkscape:pageshadow="2"
     inkscape:pageopacity="0"
     guidetolerance="10"
     gridtolerance="10"
     objecttolerance="10"
     borderopacity="1"
     bordercolor="#666666"
     pagecolor="#ffffff" />
  <defs
     id="defs27">
    <style
       id="style10">.cls-1{fill:none;}.cls-2{clip-path:url(#clip-path);}.cls-3{fill:url(#linear-gradient);}.cls-4{clip-path:url(#clip-path-2);}.cls-5{fill:url(#linear-gradient-2);}.cls-6{fill:url(#linear-gradient-3);}.cls-7{fill:#829dff;}.cls-8{fill:#6783e6;}.cls-9{fill:#7c95ef;}.cls-10{fill:#7790eb;}.cls-11{fill:#0d1e51;}.cls-12{fill:#a1b3f8;}.cls-13{fill:#092268;}.cls-14{fill:#2b47a4;}.cls-15,.cls-20{fill:#fff;}.cls-15{opacity:0.41;}.cls-16{fill:#d0d7f3;}.cls-17{fill:#7393ff;}.cls-18{fill:#273d83;}.cls-19{fill:#e5e8f5;}</style>
    <clipPath
       transform="translate(-5909.9 -6267.6)"
       id="clip-path">
      <rect
         id="rect12"
         height="1000"
         width="982.62"
         y="6699.5"
         x="6559.5"
         class="cls-1" />
    </clipPath>
    <linearGradient
       gradientUnits="userSpaceOnUse"
       gradientTransform="matrix(0.48, -0.88, 0.88, 0.48, -2406.58, 10124.57)"
       y2="6119.98"
       x2="7083.2"
       y1="6461.3"
       x1="6923.92"
       id="linear-gradient">
      <stop
         id="stop15"
         stop-color="#ff3f3f"
         offset="0" />
      <stop
         id="stop17"
         stop-color="#ff5353"
         offset="0.55" />
      <stop
         id="stop19"
         stop-color="#f66"
         offset="1" />
    </linearGradient>
    <clipPath
       transform="translate(-5909.9 -6267.6)"
       id="clip-path-2">
      <path
         id="path22"
         d="M6087.53,7847.44c-197.34-29.46-205.62-186.74-142.95-274.21,88.78-123.91,169.84-103.73,46-307.84-42-69.3-58.21-157.78-26.36-234.3,22.91-55,70.27-100.16,127.48-116.91,31.83-9.32,65.49-10,98.08-16.16s66.08-19.34,85.08-46.53c18.29-26.18,19.82-60.64,15.43-92.27-10.55-76.09-52.15-145.75-55.87-223-3.13-65.13,18.41-139.89,64.4-187.28,60.21-62,153.74-75.36,236-80.13,96.48-5.6,193.73,8.85,285.47,38.79,117.51,38.35,226.05,101.63,322.64,178.78,86,68.68,163.68,149.43,218.7,244.73,87,150.73,137.39,396.48-39.91,504.34-213.44,129.87-351.13-95.28-362.71,126.25-6.93,132.56-101.89,339.84-360.83,236.59S6371.73,7889.86,6087.53,7847.44Z"
         class="cls-1" />
    </clipPath>
    <linearGradient
       xlink:href="#linear-gradient"
       gradientTransform="matrix(-1,0,0,1,14686.1,0)"
       y2="6927.33"
       x2="7846.86"
       y1="7322.65"
       x1="7802.2"
       id="linear-gradient-2" />
    <linearGradient
       xlink:href="#linear-gradient"
       gradientTransform="matrix(-1,0,0,1,14686.1,0)"
       y2="6890.38"
       x2="7955.05"
       y1="7523.88"
       x1="7620.93"
       id="linear-gradient-3" />
    <linearGradient
       y2="6119.98"
       x2="7083.2"
       y1="6461.3"
       x1="6923.92"
       gradientTransform="matrix(0.48,-0.88,0.88,0.48,-2406.58,10124.57)"
       gradientUnits="userSpaceOnUse"
       id="linearGradient241"
       xlink:href="#linear-gradient"
       inkscape:collect="always" />
    <clipPath
       id="clipPath481"
       clipPathUnits="userSpaceOnUse">
      <rect
         y="205.92918"
         x="171.07964"
         height="855.39813"
         width="1359.1326"
         id="rect483"
         style="fill:#0000ff;fill-rule:evenodd;stroke-width:1.01905" />
    </clipPath>
    <clipPath
       id="clipPath485"
       clipPathUnits="userSpaceOnUse">
      <rect
         y="205.92918"
         x="171.07964"
         height="855.39813"
         width="1359.1326"
         id="rect487"
         style="fill:#0000ff;fill-rule:evenodd;stroke-width:1.01905" />
    </clipPath>
    <clipPath
       id="clipPath489"
       clipPathUnits="userSpaceOnUse">
      <rect
         y="205.92918"
         x="171.07964"
         height="855.39813"
         width="1359.1326"
         id="rect491"
         style="fill:#0000ff;fill-rule:evenodd;stroke-width:1.01905" />
    </clipPath>
    <clipPath
       id="clipPath493"
       clipPathUnits="userSpaceOnUse">
      <rect
         y="205.92918"
         x="171.07964"
         height="855.39813"
         width="1359.1326"
         id="rect495"
         style="fill:#0000ff;fill-rule:evenodd;stroke-width:1.01905" />
    </clipPath>
    <clipPath
       id="clipPath497"
       clipPathUnits="userSpaceOnUse">
      <rect
         y="205.92918"
         x="171.07964"
         height="855.39813"
         width="1359.1326"
         id="rect499"
         style="fill:#0000ff;fill-rule:evenodd;stroke-width:1.01905" />
    </clipPath>
    <clipPath
       id="clipPath501"
       clipPathUnits="userSpaceOnUse">
      <rect
         y="205.92918"
         x="171.07964"
         height="855.39813"
         width="1359.1326"
         id="rect503"
         style="fill:#0000ff;fill-rule:evenodd;stroke-width:1.01905" />
    </clipPath>
    <clipPath
       id="clipPath505"
       clipPathUnits="userSpaceOnUse">
      <rect
         y="205.92918"
         x="171.07964"
         height="855.39813"
         width="1359.1326"
         id="rect507"
         style="fill:#0000ff;fill-rule:evenodd;stroke-width:1.01905" />
    </clipPath>
    <clipPath
       id="clipPath509"
       clipPathUnits="userSpaceOnUse">
      <rect
         y="522.74329"
         x="668.47784"
         height="855.39813"
         width="1359.1326"
         id="rect511"
         style="fill:#0000ff;fill-rule:evenodd;stroke-width:1.01905" />
    </clipPath>
    <clipPath
       id="clipPath513"
       clipPathUnits="userSpaceOnUse">
      <rect
         y="205.92918"
         x="171.07964"
         height="855.39813"
         width="1359.1326"
         id="rect515"
         style="fill:#0000ff;fill-rule:evenodd;stroke-width:1.01905" />
    </clipPath>
    <clipPath
       id="clipPath517"
       clipPathUnits="userSpaceOnUse">
      <rect
         y="205.92918"
         x="171.07964"
         height="855.39813"
         width="1359.1326"
         id="rect519"
         style="fill:#0000ff;fill-rule:evenodd;stroke-width:1.01905" />
    </clipPath>
    <clipPath
       id="clipPath521"
       clipPathUnits="userSpaceOnUse">
      <rect
         y="205.92918"
         x="171.07964"
         height="855.39813"
         width="1359.1326"
         id="rect523"
         style="fill:#0000ff;fill-rule:evenodd;stroke-width:1.01905" />
    </clipPath>
    <clipPath
       id="clipPath525"
       clipPathUnits="userSpaceOnUse">
      <rect
         y="205.92918"
         x="171.07964"
         height="855.39813"
         width="1359.1326"
         id="rect527"
         style="fill:#0000ff;fill-rule:evenodd;stroke-width:1.01905" />
    </clipPath>
    <clipPath
       id="clipPath529"
       clipPathUnits="userSpaceOnUse">
      <rect
         y="205.92918"
         x="171.07964"
         height="855.39813"
         width="1359.1326"
         id="rect531"
         style="fill:#0000ff;fill-rule:evenodd;stroke-width:1.01905" />
    </clipPath>
    <clipPath
       id="clipPath533"
       clipPathUnits="userSpaceOnUse">
      <rect
         y="205.92918"
         x="171.07964"
         height="855.39813"
         width="1359.1326"
         id="rect535"
         style="fill:#0000ff;fill-rule:evenodd;stroke-width:1.01905" />
    </clipPath>
    <clipPath
       id="clipPath537"
       clipPathUnits="userSpaceOnUse">
      <rect
         y="205.92918"
         x="171.07964"
         height="855.39813"
         width="1359.1326"
         id="rect539"
         style="fill:#0000ff;fill-rule:evenodd;stroke-width:1.01905" />
    </clipPath>
    <clipPath
       id="clipPath541"
       clipPathUnits="userSpaceOnUse">
      <rect
         y="205.92918"
         x="171.07964"
         height="855.39813"
         width="1359.1326"
         id="rect543"
         style="fill:#0000ff;fill-rule:evenodd;stroke-width:1.01905" />
    </clipPath>
    <clipPath
       id="clipPath545"
       clipPathUnits="userSpaceOnUse">
      <rect
         y="205.92918"
         x="171.07964"
         height="855.39813"
         width="1359.1326"
         id="rect547"
         style="fill:#0000ff;fill-rule:evenodd;stroke-width:1.01905" />
    </clipPath>
    <clipPath
       id="clipPath549"
       clipPathUnits="userSpaceOnUse">
      <rect
         y="205.92918"
         x="171.07964"
         height="855.39813"
         width="1359.1326"
         id="rect551"
         style="fill:#0000ff;fill-rule:evenodd;stroke-width:1.01905" />
    </clipPath>
    <clipPath
       id="clipPath553"
       clipPathUnits="userSpaceOnUse">
      <rect
         y="205.92918"
         x="171.07964"
         height="855.39813"
         width="1359.1326"
         id="rect555"
         style="fill:#0000ff;fill-rule:evenodd;stroke-width:1.01905" />
    </clipPath>
    <clipPath
       id="clipPath557"
       clipPathUnits="userSpaceOnUse">
      <rect
         y="205.92918"
         x="171.07964"
         height="855.39813"
         width="1359.1326"
         id="rect559"
         style="fill:#0000ff;fill-rule:evenodd;stroke-width:1.01905" />
    </clipPath>
    <clipPath
       id="clipPath561"
       clipPathUnits="userSpaceOnUse">
      <rect
         y="205.92918"
         x="171.07964"
         height="855.39813"
         width="1359.1326"
         id="rect563"
         style="fill:#0000ff;fill-rule:evenodd;stroke-width:1.01905" />
    </clipPath>
    <clipPath
       id="clipPath565"
       clipPathUnits="userSpaceOnUse">
      <rect
         y="205.92918"
         x="171.07964"
         height="855.39813"
         width="1359.1326"
         id="rect567"
         style="fill:#0000ff;fill-rule:evenodd;stroke-width:1.01905" />
    </clipPath>
    <clipPath
       id="clipPath569"
       clipPathUnits="userSpaceOnUse">
      <rect
         y="205.92918"
         x="171.07964"
         height="855.39813"
         width="1359.1326"
         id="rect571"
         style="fill:#0000ff;fill-rule:evenodd;stroke-width:1.01905" />
    </clipPath>
    <clipPath
       id="clipPath573"
       clipPathUnits="userSpaceOnUse">
      <rect
         y="205.92918"
         x="171.07964"
         height="855.39813"
         width="1359.1326"
         id="rect575"
         style="fill:#0000ff;fill-rule:evenodd;stroke-width:1.01905" />
    </clipPath>
    <clipPath
       id="clipPath577"
       clipPathUnits="userSpaceOnUse">
      <rect
         y="205.92918"
         x="171.07964"
         height="855.39813"
         width="1359.1326"
         id="rect579"
         style="fill:#0000ff;fill-rule:evenodd;stroke-width:1.01905" />
    </clipPath>
    <clipPath
       id="clipPath581"
       clipPathUnits="userSpaceOnUse">
      <rect
         y="205.92918"
         x="171.07964"
         height="855.39813"
         width="1359.1326"
         id="rect583"
         style="fill:#0000ff;fill-rule:evenodd;stroke-width:1.01905" />
    </clipPath>
    <clipPath
       id="clipPath585"
       clipPathUnits="userSpaceOnUse">
      <rect
         y="205.92918"
         x="171.07964"
         height="855.39813"
         width="1359.1326"
         id="rect587"
         style="fill:#0000ff;fill-rule:evenodd;stroke-width:1.01905" />
    </clipPath>
    <clipPath
       id="clipPath589"
       clipPathUnits="userSpaceOnUse">
      <rect
         y="205.92918"
         x="171.07964"
         height="855.39813"
         width="1359.1326"
         id="rect591"
         style="fill:#0000ff;fill-rule:evenodd;stroke-width:1.01905" />
    </clipPath>
    <clipPath
       id="clipPath593"
       clipPathUnits="userSpaceOnUse">
      <rect
         y="205.92918"
         x="171.07964"
         height="855.39813"
         width="1359.1326"
         id="rect595"
         style="fill:#0000ff;fill-rule:evenodd;stroke-width:1.01905" />
    </clipPath>
    <clipPath
       id="clipPath597"
       clipPathUnits="userSpaceOnUse">
      <rect
         y="205.92918"
         x="171.07964"
         height="855.39813"
         width="1359.1326"
         id="rect599"
         style="fill:#0000ff;fill-rule:evenodd;stroke-width:1.01905" />
    </clipPath>
    <clipPath
       id="clipPath601"
       clipPathUnits="userSpaceOnUse">
      <rect
         y="522.74329"
         x="668.47784"
         height="855.39813"
         width="1359.1326"
         id="rect603"
         style="fill:#0000ff;fill-rule:evenodd;stroke-width:1.01905" />
    </clipPath>
    <clipPath
       id="clipPath605"
       clipPathUnits="userSpaceOnUse">
      <rect
         y="205.92918"
         x="171.07964"
         height="855.39813"
         width="1359.1326"
         id="rect607"
         style="fill:#0000ff;fill-rule:evenodd;stroke-width:1.01905" />
    </clipPath>
    <clipPath
       id="clipPath609"
       clipPathUnits="userSpaceOnUse">
      <rect
         y="205.92918"
         x="171.07964"
         height="855.39813"
         width="1359.1326"
         id="rect611"
         style="fill:#0000ff;fill-rule:evenodd;stroke-width:1.01905" />
    </clipPath>
    <clipPath
       id="clipPath613"
       clipPathUnits="userSpaceOnUse">
      <rect
         y="205.92918"
         x="171.07964"
         height="855.39813"
         width="1359.1326"
         id="rect615"
         style="fill:#0000ff;fill-rule:evenodd;stroke-width:1.01905" />
    </clipPath>
    <clipPath
       id="clipPath617"
       clipPathUnits="userSpaceOnUse">
      <rect
         y="205.92918"
         x="171.07964"
         height="855.39813"
         width="1359.1326"
         id="rect619"
         style="fill:#0000ff;fill-rule:evenodd;stroke-width:1.01905" />
    </clipPath>
    <clipPath
       id="clipPath621"
       clipPathUnits="userSpaceOnUse">
      <rect
         y="205.92918"
         x="171.07964"
         height="855.39813"
         width="1359.1326"
         id="rect623"
         style="fill:#0000ff;fill-rule:evenodd;stroke-width:1.01905" />
    </clipPath>
    <clipPath
       id="clipPath625"
       clipPathUnits="userSpaceOnUse">
      <rect
         y="205.92918"
         x="171.07964"
         height="855.39813"
         width="1359.1326"
         id="rect627"
         style="fill:#0000ff;fill-rule:evenodd;stroke-width:1.01905" />
    </clipPath>
    <clipPath
       id="clipPath629"
       clipPathUnits="userSpaceOnUse">
      <rect
         y="205.92918"
         x="171.07964"
         height="855.39813"
         width="1359.1326"
         id="rect631"
         style="fill:#0000ff;fill-rule:evenodd;stroke-width:1.01905" />
    </clipPath>
    <clipPath
       id="clipPath633"
       clipPathUnits="userSpaceOnUse">
      <rect
         y="205.92918"
         x="171.07964"
         height="855.39813"
         width="1359.1326"
         id="rect635"
         style="fill:#0000ff;fill-rule:evenodd;stroke-width:1.01905" />
    </clipPath>
    <clipPath
       id="clipPath637"
       clipPathUnits="userSpaceOnUse">
      <rect
         y="205.92918"
         x="171.07964"
         height="855.39813"
         width="1359.1326"
         id="rect639"
         style="fill:#0000ff;fill-rule:evenodd;stroke-width:1.01905" />
    </clipPath>
    <clipPath
       id="clipPath641"
       clipPathUnits="userSpaceOnUse">
      <rect
         y="205.92918"
         x="171.07964"
         height="855.39813"
         width="1359.1326"
         id="rect643"
         style="fill:#0000ff;fill-rule:evenodd;stroke-width:1.01905" />
    </clipPath>
    <clipPath
       id="clipPath645"
       clipPathUnits="userSpaceOnUse">
      <rect
         y="205.92918"
         x="171.07964"
         height="855.39813"
         width="1359.1326"
         id="rect647"
         style="fill:#0000ff;fill-rule:evenodd;stroke-width:1.01905" />
    </clipPath>
    <clipPath
       id="clipPath649"
       clipPathUnits="userSpaceOnUse">
      <rect
         y="205.92918"
         x="171.07964"
         height="855.39813"
         width="1359.1326"
         id="rect651"
         style="fill:#0000ff;fill-rule:evenodd;stroke-width:1.01905" />
    </clipPath>
    <clipPath
       id="clipPath653"
       clipPathUnits="userSpaceOnUse">
      <rect
         y="205.92918"
         x="171.07964"
         height="855.39813"
         width="1359.1326"
         id="rect655"
         style="fill:#0000ff;fill-rule:evenodd;stroke-width:1.01905" />
    </clipPath>
    <clipPath
       id="clipPath657"
       clipPathUnits="userSpaceOnUse">
      <rect
         y="205.92918"
         x="171.07964"
         height="855.39813"
         width="1359.1326"
         id="rect659"
         style="fill:#0000ff;fill-rule:evenodd;stroke-width:1.01905" />
    </clipPath>
    <clipPath
       id="clipPath661"
       clipPathUnits="userSpaceOnUse">
      <rect
         y="205.92918"
         x="171.07964"
         height="855.39813"
         width="1359.1326"
         id="rect663"
         style="fill:#0000ff;fill-rule:evenodd;stroke-width:1.01905" />
    </clipPath>
    <clipPath
       id="clipPath665"
       clipPathUnits="userSpaceOnUse">
      <rect
         y="205.92918"
         x="171.07964"
         height="855.39813"
         width="1359.1326"
         id="rect667"
         style="fill:#0000ff;fill-rule:evenodd;stroke-width:1.01905" />
    </clipPath>
    <clipPath
       id="clipPath669"
       clipPathUnits="userSpaceOnUse">
      <rect
         y="205.92918"
         x="171.07964"
         height="855.39813"
         width="1359.1326"
         id="rect671"
         style="fill:#0000ff;fill-rule:evenodd;stroke-width:1.01905" />
    </clipPath>
    <clipPath
       id="clipPath673"
       clipPathUnits="userSpaceOnUse">
      <rect
         y="522.74329"
         x="668.47784"
         height="855.39813"
         width="1359.1326"
         id="rect675"
         style="fill:#0000ff;fill-rule:evenodd;stroke-width:1.01905" />
    </clipPath>
    <clipPath
       id="clipPath677"
       clipPathUnits="userSpaceOnUse">
      <rect
         y="205.92918"
         x="171.07964"
         height="855.39813"
         width="1359.1326"
         id="rect679"
         style="fill:#0000ff;fill-rule:evenodd;stroke-width:1.01905" />
    </clipPath>
    <clipPath
       id="clipPath681"
       clipPathUnits="userSpaceOnUse">
      <rect
         y="205.92918"
         x="171.07964"
         height="855.39813"
         width="1359.1326"
         id="rect683"
         style="fill:#0000ff;fill-rule:evenodd;stroke-width:1.01905" />
    </clipPath>
    <clipPath
       id="clipPath685"
       clipPathUnits="userSpaceOnUse">
      <rect
         y="205.92918"
         x="171.07964"
         height="855.39813"
         width="1359.1326"
         id="rect687"
         style="fill:#0000ff;fill-rule:evenodd;stroke-width:1.01905" />
    </clipPath>
    <clipPath
       id="clipPath689"
       clipPathUnits="userSpaceOnUse">
      <rect
         y="205.92918"
         x="171.07964"
         height="855.39813"
         width="1359.1326"
         id="rect691"
         style="fill:#0000ff;fill-rule:evenodd;stroke-width:1.01905" />
    </clipPath>
    <clipPath
       id="clipPath693"
       clipPathUnits="userSpaceOnUse">
      <rect
         y="205.92918"
         x="171.07964"
         height="855.39813"
         width="1359.1326"
         id="rect695"
         style="fill:#0000ff;fill-rule:evenodd;stroke-width:1.01905" />
    </clipPath>
    <clipPath
       id="clipPath697"
       clipPathUnits="userSpaceOnUse">
      <rect
         y="205.92918"
         x="171.07964"
         height="855.39813"
         width="1359.1326"
         id="rect699"
         style="fill:#0000ff;fill-rule:evenodd;stroke-width:1.01905" />
    </clipPath>
    <clipPath
       id="clipPath701"
       clipPathUnits="userSpaceOnUse">
      <rect
         y="205.92918"
         x="171.07964"
         height="855.39813"
         width="1359.1326"
         id="rect703"
         style="fill:#0000ff;fill-rule:evenodd;stroke-width:1.01905" />
    </clipPath>
    <clipPath
       id="clipPath705"
       clipPathUnits="userSpaceOnUse">
      <rect
         y="205.92918"
         x="171.07964"
         height="855.39813"
         width="1359.1326"
         id="rect707"
         style="fill:#0000ff;fill-rule:evenodd;stroke-width:1.01905" />
    </clipPath>
    <clipPath
       id="clipPath709"
       clipPathUnits="userSpaceOnUse">
      <rect
         y="205.92918"
         x="171.07964"
         height="855.39813"
         width="1359.1326"
         id="rect711"
         style="fill:#0000ff;fill-rule:evenodd;stroke-width:1.01905" />
    </clipPath>
    <clipPath
       id="clipPath713"
       clipPathUnits="userSpaceOnUse">
      <rect
         y="522.74329"
         x="668.47784"
         height="855.39813"
         width="1359.1326"
         id="rect715"
         style="fill:#0000ff;fill-rule:evenodd;stroke-width:1.01905" />
    </clipPath>
  </defs>
  <title
     id="title29">خلفية 1</title>
  <g
     transform="translate(-668.47781,-525.91145)"
     id="g39"
     clip-path="url(#clipPath713)"
     class="cls-2">
    <path
       style="fill:url(#linearGradient241)"
       id="path31"
       transform="translate(-5909.9,-6267.6)"
       d="m 6087.53,7847.44 c -197.34,-29.46 -205.62,-186.74 -142.95,-274.21 88.78,-123.91 169.84,-103.73 46,-307.84 -42,-69.3 -58.21,-157.78 -26.36,-234.3 22.91,-55 70.27,-100.16 127.48,-116.91 31.83,-9.32 65.49,-10 98.08,-16.16 32.59,-6.16 66.08,-19.34 85.08,-46.53 18.29,-26.18 19.82,-60.64 15.43,-92.27 -10.55,-76.09 -52.15,-145.75 -55.87,-223 -3.13,-65.13 18.41,-139.89 64.4,-187.28 60.21,-62 153.74,-75.36 236,-80.13 96.48,-5.6 193.73,8.85 285.47,38.79 117.51,38.35 226.05,101.63 322.64,178.78 86,68.68 163.68,149.43 218.7,244.73 87,150.73 137.39,396.48 -39.91,504.34 -213.44,129.87 -351.13,-95.28 -362.71,126.25 -6.93,132.56 -101.89,339.84 -360.83,236.59 -258.94,-103.25 -226.45,291.57 -510.65,249.15 z"
       class="cls-3" />
    <g
       id="g37"
       clip-path="url(#clip-path-2)"
       class="cls-4">
      <path
         style="fill:url(#linear-gradient-2)"
         id="path33"
         transform="translate(-5909.9,-6267.6)"
         d="m 7408.7,6992.83 c -4,-133.52 -107.88,-151.47 -171,-116.72 -89.4,49.22 -82.4,104.7 -208.29,6.23 -42.75,-33.43 -100.29,-51.18 -153.68,-36.06 -38.41,10.88 -72.15,38.8 -87.81,75.51 -8.72,20.42 -11.83,42.75 -18.5,63.92 -6.67,21.17 -18.09,42.4 -37.66,52.88 -18.85,10.09 -41.88,8.39 -62.57,3 -49.75,-13 -92.77,-46.2 -143.84,-54.79 -43,-7.23 -94.47,1.18 -129.6,28 -46,35.11 -62.26,96.24 -71.95,150.55 -11.35,63.7 -9.43,129.5 3.22,192.85 16.2,81.16 49.68,158.32 93.33,228.64 38.86,62.59 86.4,120.64 145.41,164.75 93.32,69.78 252.71,122.7 338.45,13.36 103.21,-131.63 -35.58,-241 112.61,-231.15 88.68,5.88 234,-40.86 185.83,-221.17 -48.17,-180.31 211.78,-127.51 206.05,-319.8 z"
         class="cls-5" />
      <path
         style="fill:url(#linear-gradient-3)"
         id="path35"
         transform="translate(-5909.9,-6267.6)"
         d="m 7393.86,7012.37 c -46,-117.37 -144.08,-100.22 -189.09,-49.26 -63.76,72.2 -39.87,119.27 -183.09,71.86 -48.61,-16.09 -105.4,-13.53 -148,16.9 -30.65,21.89 -51.75,57.44 -54,95 -1.24,20.92 3.11,41.75 3.92,62.69 0.81,20.94 -2.57,43.43 -16.63,59 -13.53,15 -34.54,20.78 -54.64,22.55 -48.35,4.26 -97.14,-11.5 -145.25,-2.87 -40.55,7.28 -83.56,31.12 -106.23,66.15 -29.68,45.84 -24.68,105.33 -16,156.67 10.19,60.21 32.85,118.06 64.26,170.32 40.24,67 94.55,124.85 155.72,173.42 54.46,43.25 115.18,79.68 181.66,100.09 105.13,32.27 263.6,28.54 305,-95.9 49.79,-149.82 -108.34,-202.77 26.45,-241.23 80.66,-23 194.89,-110.81 94.69,-255.68 -100.2,-144.87 147.54,-180.68 81.23,-349.71 z"
         class="cls-6" />
    </g>
  </g>
  <path
     transform="translate(-171.07963,-209.09732)"
     clip-path="url(#clipPath709)"
     id="path41"
     d="m 667.35182,607.64587 c 6.18,5.93 8.53,15.17 2.64,22.29 -5.55,6.71 -16.28,8.14 -23.21,2.79 -16.73,-12.91 0.7,-36.74 18.76,-31.81 3.34,0.92 2.51,5.68 -0.8,5.87 -5.28,0.3 -10.92,0.5 -15.14,4.2 -4.53,4 -4.63,10.69 -0.91,15.26 9.84,12.1 26.93,-5.71 16.59,-16.53 a 1.463711,1.463711 0 0 1 2.07,-2.07 z"
     class="cls-7" />
  <path
     transform="translate(-171.07963,-209.09732)"
     clip-path="url(#clipPath705)"
     id="path43"
     d="m 495.05182,628.07587 c -2.27,8.42 -4.77,16.73 -7.36,25.05 a 2.62,2.62 0 0 1 -4.23,1.46 c -6.77,-4.59 -13.53,-9.11 -19.93,-14.19 a 2.41,2.41 0 0 1 0.25,-3.79 c 7.5,-5.14 17.63,-12.74 27.15,-12.8 2.42,0 4.11,3.4 1.65,4.81 -3.84,2.22 -8.44,3 -12.54,4.71 a 68.82,68.82 0 0 0 -13.6,7.26 c -0.1,-1.38 -0.19,-2.76 -0.28,-4.14 7.15,4.41 13.9,9.35 20.7,14.28 l -4,0.8 c 2.91,-8.22 5.89,-16.37 9.11,-24.47 0.68,-1.71 3.58,-0.77 3.1,1 z"
     class="cls-8" />
  <path
     transform="translate(-171.07963,-209.09732)"
     clip-path="url(#clipPath701)"
     id="path45"
     d="m 447.58182,672.63587 a 196,196 0 0 1 -29.39,-16.84 c -3.33,-2.39 -0.05,-7.05 3.45,-5.21 a 192.08,192.08 0 0 1 27.76,18.3 c 1.73,1.34 0.45,4.84 -1.82,3.75 z"
     class="cls-9" />
  <path
     transform="translate(-171.07963,-209.09732)"
     clip-path="url(#clipPath697)"
     id="path47"
     d="m 817.81182,703.34587 a 195.17,195.17 0 0 1 8.82,-32.7 c 1.46,-3.83 6.79,-1.84 5.91,2 a 191.63,191.63 0 0 1 -10.65,31.49 c -0.85,2 -4.56,1.67 -4.08,-0.81 z"
     class="cls-10" />
  <path
     transform="translate(-171.07963,-209.09732)"
     clip-path="url(#clipPath693)"
     id="path49"
     d="m 786.17182,606.48587 0.57,-0.5 c 2.49,-2.2 6.57,-2.64 9,0 a 6.5,6.5 0 0 1 0,9 l -0.5,0.57 a 6.45,6.45 0 0 1 -9.06,0 c -2.23,-2.43 -2.68,-6.69 0,-9.06 z"
     class="cls-11" />
  <path
     transform="translate(-171.07963,-209.09732)"
     clip-path="url(#clipPath689)"
     id="path51"
     d="m 518.29182,888.49587 c 0,0 105.63,24.58 148.07,-17.86 l -15.19,-101.35 c -4.61,-29.13 -1.86,-85.18 -24.17,-105.07 a 38.38,38.38 0 0 0 -8.47,-5.76 c -15.66,-7.56 -43.5,-11.64 -70.23,-11.74 -32.48,-0.13 -65.9,24.43 -74.43,55.76 l 35.15,82.22 z"
     class="cls-8" />
  <path
     transform="translate(-171.07963,-209.09732)"
     clip-path="url(#clipPath685)"
     id="path53"
     d="m 528.70182,715.10587 c 0,0 -47.32,91.15 -23.82,96 77.3,16 122.16,29.07 122.16,29.07 l 3.94,30 c -1.15,4.54 -156.38,0.62 -174.77,-20.24 -13,-14.72 -30.24,-48.75 6.48,-122.41 l 11.15,-25.06 z"
     class="cls-12" />
  <path
     transform="translate(-171.07963,-209.09732)"
     clip-path="url(#clipPath681)"
     id="path55"
     d="m 617.60182,668.15587 117.86,45.63 3.69,-61.83 25.23,-9.76 c 0,0 36.59,99.24 -9.17,117.72 -45.76,18.48 -97.32,-15.66 -97.32,-15.66 z"
     class="cls-12" />
  <path
     transform="translate(-171.07963,-209.09732)"
     clip-path="url(#clipPath677)"
     id="path57"
     d="m 603.02182,653.00587 c 41.13,13.1 65.67,28.46 123.58,52.62 l -29.73,66.31 -51.26,-16.45 z"
     class="cls-8" />
  <polyline
     clip-path="url(#clipPath673)"
     transform="translate(-668.47781,-525.91145)"
     id="polyline59"
     points="1033.22 1019.29 1003.33 1088.75 935.9 1076.44 981.33 998.21 1035.1 1019.29"
     class="cls-8" />
  <path
     transform="translate(-171.07963,-209.09732)"
     clip-path="url(#clipPath669)"
     id="path61"
     d="m 571.10182,749.83587 c -14.36,-0.8 -28.54,-0.18 -42.89,0 -1.25,0 -1.18,-1.76 0,-1.9 14.14,-1.69 28.74,-1 42.89,0.21 1.06,0.09 1.09,1.74 0,1.68 z"
     class="cls-13" />
  <path
     transform="translate(-171.07963,-209.09732)"
     clip-path="url(#clipPath665)"
     id="path63"
     d="m 506.78182,669.27587 c 48.51,4.38 15.33,75.91 2.9,97.57 a 1.09,1.09 0 0 1 -1.87,-1.1 c 12.36,-21.87 45.43,-88.44 -1.19,-95.29 -0.67,-0.1 -0.52,-1.25 0.16,-1.18 z"
     class="cls-13" />
  <path
     transform="translate(-171.07963,-209.09732)"
     clip-path="url(#clipPath661)"
     id="path65"
     d="m 641.24182,710.16587 a 402.64,402.64 0 0 1 11.46,73.13 c 0.06,1 -1.65,1.27 -1.8,0.24 -3.47,-24.39 -7,-48.71 -10.87,-73 -0.12,-0.77 1,-1.13 1.21,-0.33 z"
     class="cls-13" />
  <path
     transform="translate(-171.07963,-209.09732)"
     clip-path="url(#clipPath657)"
     id="path67"
     d="m 527.70182,578.03587 q -1.11,-15.37 -2.23,-30.73 c -8.05,-2.27 -12.24,-12.57 -9,-20.29 3.24,-7.72 12.34,-12.06 20.62,-10.88 -5.23,-3.56 -4.83,-12.06 -0.54,-16.7 4.29,-4.64 11,-6.15 17.33,-6.39 6.33,-0.24 12.71,0.52 18.93,-0.64 5.5,-1 10.9,-3.54 16.46,-2.84 5.56,0.7 10.86,7 7.87,11.69 8,-1.18 16.68,-2.25 23.8,1.61 7.12,3.86 10.7,14.87 4.58,20.18 4,2.06 5.05,7.91 2.78,11.84 -2.27,3.93 -6.92,6 -11.45,6.31 -4.53,0.31 -9,-0.82 -13.41,-2"
     class="cls-11" />
  <path
     transform="translate(-171.07963,-209.09732)"
     clip-path="url(#clipPath653)"
     id="path69"
     d="m 528.99182,558.11587 1.62,21.29 c 0,0 -18.1,2.44 -12.94,19 5.16,16.56 17.54,9.29 17.54,9.29 0,0 3.1,42.32 46.44,28.9 34.5,-10.68 32.39,-55.35 28,-93.44 a 25.49,25.49 0 0 0 -30.23,-22.05 l -26.06,5.07 a 30.26,30.26 0 0 0 -24.37,31.94 z"
     class="cls-12" />
  <path
     transform="translate(-171.07963,-209.09732)"
     clip-path="url(#clipPath649)"
     id="path71"
     d="m 530.61182,597.07587 11.68,62.28 a 25,25 0 0 0 30.35,19.7 v 0 a 25,25 0 0 0 18.8,-28.67 l -6.34,-35.7 z"
     class="cls-12" />
  <path
     transform="translate(-171.07963,-209.09732)"
     clip-path="url(#clipPath645)"
     id="path73"
     d="m 578.56182,597.77587 c 0,0 0.11,0.12 0.28,0.33 a 1.69,1.69 0 0 0 0.94,0.63 2,2 0 0 0 1.67,-0.49 3.75,3.75 0 0 0 1.21,-2.07 20.61,20.61 0 0 0 0.14,-6.65 c -0.17,-2.56 -0.36,-5.36 -0.55,-8.3 -0.37,-5.9 -0.66,-11.23 -0.83,-15.1 -0.08,-1.93 -0.13,-3.5 -0.15,-4.58 a 7.3,7.3 0 0 1 0.05,-1.69 6.55,6.55 0 0 1 0.27,1.67 c 0.12,1.08 0.26,2.64 0.42,4.56 0.32,3.86 0.7,9.19 1.07,15.09 0.17,2.94 0.33,5.74 0.48,8.3 0.15,2.56 0.29,4.93 -0.34,6.87 a 4.12,4.12 0 0 1 -1.52,2.24 2.3,2.3 0 0 1 -2,0.43 1.74,1.74 0 0 1 -1,-0.84 c -0.13,-0.24 -0.17,-0.39 -0.14,-0.4 z"
     class="cls-11" />
  <path
     transform="translate(-171.07963,-209.09732)"
     clip-path="url(#clipPath641)"
     id="path75"
     d="m 592.62182,632.19587 a 6.34,6.34 0 0 1 -1.32,1.14 29.41,29.41 0 0 1 -4,2.52 34.28,34.28 0 0 1 -30.42,0.64 30,30 0 0 1 -4.14,-2.34 6.22,6.22 0 0 1 -1.36,-1.09 c 0.08,-0.13 2.1,1.33 5.74,2.89 a 35.89,35.89 0 0 0 29.91,-0.63 c 3.55,-1.74 5.5,-3.26 5.59,-3.13 z"
     class="cls-11" />
  <path
     transform="translate(-171.07963,-209.09732)"
     clip-path="url(#clipPath637)"
     id="path77"
     d="m 584.15182,606.51587 a 5.94,5.94 0 0 1 -2.52,2.41 10,10 0 0 1 -14.47,-4.65 5.92,5.92 0 0 1 -0.64,-3.43 32,32 0 0 0 1.17,3.18 9.88,9.88 0 0 0 13.65,4.39 31.72,31.72 0 0 0 2.81,-1.9 z"
     class="cls-11" />
  <path
     transform="translate(-171.07963,-209.09732)"
     clip-path="url(#clipPath633)"
     id="path79"
     d="m 529.25182,600.42587 c 0,0.05 -0.26,0.11 -0.73,0.11 a 5.11,5.11 0 0 1 -2,-0.39 3.71,3.71 0 0 1 -2.13,-2.19 3.09,3.09 0 0 1 -0.07,-1.91 2.36,2.36 0 0 1 1.45,-1.54 2.26,2.26 0 0 1 2.77,0.79 l -0.71,0.36 c -1.47,-3.44 -2.42,-6 -2.25,-6.07 0.17,-0.07 1.42,2.35 3,5.75 l -0.7,0.37 a 1.49,1.49 0 0 0 -1.8,-0.42 1.86,1.86 0 0 0 -0.94,2.43 3.21,3.21 0 0 0 1.65,1.9 c 1.4,0.68 2.48,0.66 2.46,0.81 z"
     class="cls-11" />
  <path
     transform="translate(-171.07963,-209.09732)"
     clip-path="url(#clipPath629)"
     id="path81"
     d="m 562.62182,558.45587 c -0.05,0.24 -2.11,-0.2 -4.53,0.46 -2.42,0.66 -4,2 -4.17,1.83 -0.17,-0.17 0.22,-0.54 0.9,-1.1 a 8.08,8.08 0 0 1 3.06,-1.54 8,8 0 0 1 3.42,-0.16 c 0.86,0.15 1.4,0.41 1.32,0.51 z"
     class="cls-11" />
  <path
     transform="translate(-171.07963,-209.09732)"
     clip-path="url(#clipPath625)"
     id="path83"
     d="m 600.10182,552.51587 c -0.08,0.24 -2.27,-0.5 -5,-0.24 -2.73,0.26 -4.77,1.33 -4.9,1.11 -0.13,-0.22 0.39,-0.5 1.24,-0.94 a 10.15,10.15 0 0 1 7.29,-0.64 c 0.91,0.29 1.41,0.61 1.37,0.71 z"
     class="cls-11" />
  <path
     transform="translate(-171.07963,-209.09732)"
     clip-path="url(#clipPath621)"
     id="path85"
     d="m 530.61182,579.40587 c 12.1,-11.8 15.66,-31.45 18.94,-48 a 42.39,42.39 0 0 0 39.54,5.15 63.6,63.6 0 0 0 14.08,12.3 c 1.5,1 3.27,1.89 5,1.38 2,-0.61 2.93,-2.94 3.41,-5 a 35.5,35.5 0 0 0 -0.7,-20.07 c -2.31,-6.38 -7.14,-12 -13.47,-14.44 -6.77,-2.62 -14.38,-1.48 -21.41,0.34 a 118.94,118.94 0 0 0 -30.21,12.48 c -9.26,5.43 -18.15,12.6 -22.08,22.59 -3.93,9.99 -3.91,29.39 5.56,34.44"
     class="cls-11" />
  <path
     transform="translate(-171.07963,-209.09732)"
     clip-path="url(#clipPath617)"
     id="path87"
     d="m 559.36182,575.79587 c -0.23,0 -0.52,-1.43 -0.65,-3.24 -0.13,-1.81 -0.05,-3.28 0.18,-3.3 0.23,-0.02 0.52,1.44 0.65,3.24 0.13,1.8 0.04,3.28 -0.18,3.3 z"
     class="cls-11" />
  <path
     transform="translate(-171.07963,-209.09732)"
     clip-path="url(#clipPath613)"
     id="path89"
     d="m 594.16182,571.35587 c -0.23,0 -0.52,-1.44 -0.65,-3.24 -0.13,-1.8 0,-3.28 0.18,-3.3 0.18,-0.02 0.52,1.43 0.65,3.24 0.13,1.81 0.05,3.28 -0.18,3.3 z"
     class="cls-11" />
  <path
     transform="translate(-171.07963,-209.09732)"
     clip-path="url(#clipPath609)"
     id="path91"
     d="m 765.70182,644.25587 c 0,0 -5.24,-32.15 -11.49,-31.8 -6.25,0.35 -18.76,0 -18.76,0 0,0 -1.05,-30.58 -4.52,-25.71 -3.47,4.87 -4.57,46 8.83,65.74 z"
     class="cls-12" />
  <path
     transform="translate(-171.07963,-209.09732)"
     clip-path="url(#clipPath605)"
     id="path93"
     d="m 627.07182,840.17587 c 0,0 56.08,9.81 55,17.09 a 52.77,52.77 0 0 1 -5,14.61 l -49.95,-1.17 z"
     class="cls-12" />
  <polygon
     clip-path="url(#clipPath601)"
     transform="translate(-668.47781,-525.91145)"
     id="polygon95"
     points="1179.54,1175.63 1218.27,1072 1345.06,1078.97 1301.8,1191.03 1063.6,1190.45 1064.02,1182.69 "
     class="cls-14" />
  <path
     transform="translate(-171.07963,-209.09732)"
     clip-path="url(#clipPath597)"
     id="path97"
     d="m 777.76182,811.50587 a 9.4,9.4 0 1 1 -8.87,-9.91 9.39,9.39 0 0 1 8.87,9.91 z"
     class="cls-15" />
  <path
     transform="translate(-171.07963,-209.09732)"
     clip-path="url(#clipPath593)"
     id="path99"
     d="m 781.51182,811.70587 a 13.16,13.16 0 1 1 -12.41,-13.86 13.15,13.15 0 0 1 12.41,13.86 z"
     class="cls-15" />
  <path
     transform="translate(-171.07963,-209.09732)"
     clip-path="url(#clipPath589)"
     id="path101"
     d="m 866.48182,875.93587 -495.84,-6.19 -29,15.25 c 0,0 380.61,104.47 524.84,-9.06 z"
     class="cls-16" />
  <path
     transform="translate(-171.07963,-209.09732)"
     clip-path="url(#clipPath585)"
     id="path103"
     d="m 478.63182,509.15587 c 1.5,2.91 -3.41,78.19 -3.41,78.19 l -37.07,-3.08 4.32,19.87 -18.11,-20.42 -36.27,-4.2 2.21,-73 z"
     class="cls-16" />
  <path
     transform="translate(-171.07963,-209.09732)"
     clip-path="url(#clipPath581)"
     id="path105"
     d="m 572.79182,391.87587 c 0,0 25.54,1.28 26.39,28.53 0,0 -0.42,14.89 -8.51,20.43 -8.09,5.54 -7.67,11.49 -7.67,11.49 h -21.3 c 0,0 0.85,-7.66 -2.56,-11.92 -3.41,-4.26 -11.92,-13.19 -10.64,-26.39 1.28,-13.2 11.09,-23.43 24.29,-22.14 z"
     class="cls-17" />
  <path
     transform="translate(-171.07963,-209.09732)"
     clip-path="url(#clipPath577)"
     id="path107"
     d="m 583.41182,459.01587 c -7.64,-0.36 -15.37,0.48 -23,0 -1.1,-0.06 -1.47,-1.77 -0.27,-2 7.38,-1.52 15.81,-0.68 23.23,0.16 1.14,0.13 1.2,1.87 0,1.82 z"
     class="cls-14" />
  <path
     transform="translate(-171.07963,-209.09732)"
     clip-path="url(#clipPath573)"
     id="path109"
     d="m 580.44182,465.68587 c -3.05,-0.17 -6.11,-0.3 -9.16,-0.27 -3.05,0.03 -6.14,0.54 -9.16,0.32 a 1.0090714,1.0090714 0 0 1 -0.27,-2 c 5.83,-1.53 12.93,-0.64 18.83,0.19 1,0.14 0.78,1.84 -0.24,1.78 z"
     class="cls-14" />
  <path
     transform="translate(-171.07963,-209.09732)"
     clip-path="url(#clipPath569)"
     id="path111"
     d="m 577.93182,470.63587 c -2.67,0.19 -5.42,0.94 -8.08,0.88 a 1.17,1.17 0 0 1 -0.31,-2.28 c 2.59,-0.81 5.71,-0.53 8.39,-0.42 a 0.91,0.91 0 0 1 0,1.82 z"
     class="cls-14" />
  <path
     transform="translate(-171.07963,-209.09732)"
     clip-path="url(#clipPath565)"
     id="path113"
     d="m 576.70182,452.03587 c -0.59,-7.57 2,-15.95 3.26,-23.39 l 2.22,0.94 c -1.07,1.76 -2.85,6.83 -5.58,6.65 -2.73,-0.18 -3.87,-5.22 -4.27,-7.27 h 2.44 c -0.55,2.33 -0.62,8 -4.29,7.44 -3.11,-0.45 -5.21,-5.07 -6.16,-7.6 l 2.53,-0.7 c 1.88,7.41 2.78,16.79 0.9,24.26 a 1.24,1.24 0 0 1 -2.43,-0.33 c 0.23,-7.85 1.33,-15.53 -1,-23.23 -0.5,-1.65 1.93,-2.23 2.53,-0.7 0.35,0.88 2.36,5.85 4.26,5.21 0.48,-0.16 1.12,-4.59 1.22,-5 a 1.28,1.28 0 0 1 2.44,0 c 0.27,1.53 0.91,5.67 2.7,4.43 1,-0.71 2,-3.26 2.61,-4.36 a 1.22,1.22 0 0 1 2.22,0.94 c -1.17,7.44 -1.49,16.09 -4.48,23 -0.26,0.6 -1.08,0.22 -1.12,-0.3 z"
     class="cls-14" />
  <path
     transform="translate(-171.07963,-209.09732)"
     clip-path="url(#clipPath561)"
     id="path115"
     d="m 652.26182,441.33587 c -11.38,-3.65 -22.72,-7.61 -34.21,-10.89 a 0.31,0.31 0 0 0 -0.17,0.59 c 11.27,4 22.8,7.38 34.18,11 0.46,0.14 0.65,-0.57 0.2,-0.72 z"
     class="cls-17" />
  <path
     transform="translate(-171.07963,-209.09732)"
     clip-path="url(#clipPath557)"
     id="path117"
     d="m 637.96182,407.34587 c -7.21,-0.21 -14.46,-0.65 -21.68,-0.54 a 0.39,0.39 0 0 0 0,0.77 c 7.2,0.49 14.47,0.43 21.68,0.6 a 0.42,0.42 0 0 0 0,-0.83 z"
     class="cls-17" />
  <path
     transform="translate(-171.07963,-209.09732)"
     clip-path="url(#clipPath553)"
     id="path119"
     d="m 604.70182,397.38587 c 8.33,-6.84 17.17,-13.28 25,-20.69 0.46,-0.44 -0.16,-1.3 -0.7,-0.91 -8.71,6.42 -16.65,14 -24.89,21 -0.41,0.35 0.18,0.93 0.59,0.59 z"
     class="cls-17" />
  <path
     transform="translate(-171.07963,-209.09732)"
     clip-path="url(#clipPath549)"
     id="path121"
     d="m 586.19182,385.73587 a 31,31 0 0 0 3.8,-5.46 c 1.33,-2.1 2.81,-4.17 3.94,-6.4 a 0.54454109,0.54454109 0 0 0 -0.94,-0.55 c -1.49,2 -2.68,4.25 -4,6.38 a 31.07,31.07 0 0 0 -3.18,5.82 0.21,0.21 0 0 0 0.35,0.21 z"
     class="cls-17" />
  <path
     transform="translate(-171.07963,-209.09732)"
     clip-path="url(#clipPath545)"
     id="path123"
     d="m 570.10182,381.01587 c 0.44,-11 1.07,-22.11 0.73,-33.09 a 0.51,0.51 0 0 0 -1,0 c -0.79,10.95 -0.61,22.1 -0.62,33.09 a 0.45,0.45 0 0 0 0.9,0 z"
     class="cls-17" />
  <path
     transform="translate(-171.07963,-209.09732)"
     clip-path="url(#clipPath541)"
     id="path125"
     d="m 557.06182,385.51587 c -2.33,-4.26 -4.64,-8.55 -7.24,-12.65 a 0.53338541,0.53338541 0 0 0 -0.92,0.54 c 2.3,4.28 4.9,8.39 7.46,12.52 a 0.41,0.41 0 0 0 0.7,-0.41 z"
     class="cls-17" />
  <path
     transform="translate(-171.07963,-209.09732)"
     clip-path="url(#clipPath537)"
     id="path127"
     d="m 546.48182,394.04587 c -9.55,-6 -19.78,-12.37 -30.08,-16.94 a 0.48,0.48 0 0 0 -0.48,0.82 c 9.28,6.39 20.09,11.77 30.18,16.78 a 0.38078866,0.38078866 0 0 0 0.38,-0.66 z"
     class="cls-17" />
  <path
     transform="translate(-171.07963,-209.09732)"
     clip-path="url(#clipPath533)"
     id="path129"
     d="m 538.70182,407.93587 a 33.43,33.43 0 0 1 -6.77,-0.67 50.89,50.89 0 0 1 -5.75,-2 c -0.63,-0.23 -0.94,0.69 -0.43,1 a 19,19 0 0 0 13.07,2.5 c 0.49,-0.08 0.34,-0.82 -0.12,-0.84 z"
     class="cls-17" />
  <path
     transform="translate(-171.07963,-209.09732)"
     clip-path="url(#clipPath529)"
     id="path131"
     d="m 536.84182,427.32587 c -15.39,3 -31.24,5.47 -46.36,9.63 -0.84,0.23 -0.47,1.4 0.35,1.28 15.51,-2.31 31,-6.45 46.28,-9.92 0.65,-0.14 0.37,-1.11 -0.27,-1 z"
     class="cls-17" />
  <path
     transform="translate(-171.07963,-209.09732)"
     clip-path="url(#clipPath525)"
     id="path133"
     d="m 753.70182,695.81587 c -0.51,-3.38 -0.41,-6.59 -2.3,-9.56 -3.76,-5.92 -9.1,-4.43 -14.27,-1.82 -5.17,2.61 -10.23,4.24 -16,1.76 -8.95,-3.87 -13.14,-17.36 -4.61,-23.71 2.77,-2.06 5.49,1.34 5.12,3.93 -0.52,3.63 -2.32,7.63 0.79,10.75 4.16,4.17 9,0.66 13.18,-1.21 a 17.23,17.23 0 0 1 13.87,-0.59 c 8,3.22 13.73,14 7.41,21.3 a 1.94,1.94 0 0 1 -3.23,-0.85 z"
     class="cls-18" />
  <path
     transform="translate(-171.07963,-209.09732)"
     clip-path="url(#clipPath521)"
     id="path135"
     d="m 636.19182,702.33587 a 196.67,196.67 0 0 1 -31.94,-11.29 c -3.7,-1.75 -1.31,-6.92 2.47,-5.75 a 191.43,191.43 0 0 1 30.58,13 c 1.95,1 1.32,4.67 -1.11,4 z"
     class="cls-9" />
  <path
     transform="translate(-171.07963,-209.09732)"
     clip-path="url(#clipPath517)"
     id="path137"
     d="m 689.52182,713.52587 c -2.27,8.41 -4.76,16.73 -7.35,25.05 a 2.63,2.63 0 0 1 -4.24,1.46 c -6.76,-4.6 -13.52,-9.11 -19.93,-14.2 a 2.41,2.41 0 0 1 0.26,-3.78 c 7.5,-5.15 17.63,-12.75 27.14,-12.8 2.42,0 4.11,3.39 1.66,4.81 -3.84,2.21 -8.44,3 -12.55,4.71 a 68.07,68.07 0 0 0 -13.6,7.26 c -0.09,-1.38 -0.18,-2.76 -0.28,-4.14 7.16,4.4 13.9,9.35 20.71,14.27 l -4,0.8 c 2.9,-8.21 5.88,-16.37 9.1,-24.46 0.68,-1.71 3.58,-0.78 3.1,1 z"
     class="cls-19" />
  <path
     transform="translate(-171.07963,-209.09732)"
     clip-path="url(#clipPath513)"
     id="path139"
     d="m 674.70182,797.72587 a 200.57,200.57 0 0 1 -33.87,0.06 c -4.08,-0.4 -3.58,-6 0.38,-6.12 a 197,197 0 0 1 33.18,2 c 2.18,0.29 2.82,3.89 0.31,4.08 z"
     class="cls-18" />
  <polygon
     clip-path="url(#clipPath509)"
     transform="translate(-668.47781,-525.91145)"
     id="polygon141"
     points="1193.32,883.97 1185.67,910.38 1177.6,881.42 1151.27,879.89 1163.41,812.67 1337.81,808.92 1331.52,883.97 "
     class="cls-16" />
  <path
     transform="translate(-171.07963,-209.09732)"
     clip-path="url(#clipPath505)"
     id="path143"
     d="m 822.27182,518.25587 c -47.52,-2.78 -95.12,-1.61 -142.55,2.2 -0.68,0.06 -0.68,1.14 0,1.07 47.39,-4.4 95,-4.74 142.55,-2.33 0.6,0 0.6,-0.9 0,-0.94 z"
     class="cls-20" />
  <path
     transform="translate(-171.07963,-209.09732)"
     clip-path="url(#clipPath501)"
     id="path145"
     d="m 819.50182,533.07587 c -47.52,-2.79 -95.13,-1.62 -142.55,2.19 -0.69,0.06 -0.69,1.14 0,1.08 47.38,-4.41 95,-4.75 142.55,-2.34 0.6,0 0.59,-0.9 0,-0.93 z"
     class="cls-20" />
  <path
     transform="translate(-171.07963,-209.09732)"
     clip-path="url(#clipPath497)"
     id="path147"
     d="m 819.24182,545.46587 c -16,0.34 -31.92,0.17 -47.91,-0.31 -15.99,-0.48 -31.74,0.49 -47.61,1.68 -0.69,0.05 -0.69,1.13 0,1.07 a 400.5,400.5 0 0 1 47.61,-1.8 c 16,0.47 31.91,0.83 47.91,0.29 a 0.47,0.47 0 0 0 0,-0.93 z"
     class="cls-20" />
  <path
     transform="translate(-171.07963,-209.09732)"
     clip-path="url(#clipPath493)"
     id="path149"
     d="m 456.75182,546.06587 c 0,0 -13.08,29.39 -16.73,27.85 -3.65,-1.54 -37.45,-22.51 -37.45,-22.51 0,0 13.85,-26.31 16.74,-27.84 2.89,-1.53 37.44,22.5 37.44,22.5 z"
     class="cls-20" />
  <path
     transform="translate(-171.07963,-209.09732)"
     clip-path="url(#clipPath489)"
     id="path151"
     d="m 419.31182,523.58587 a 11.08,11.08 0 0 1 0.93,2 c 0.55,1.32 1.32,3.24 2.25,5.62 1.87,4.75 4.4,11.34 7.15,18.64 l 0.19,0.52 -0.45,-0.26 c 7.57,-1.23 14.4,-2.29 19.35,-3 2.47,-0.36 4.47,-0.64 5.86,-0.82 a 12.22,12.22 0 0 1 2.16,-0.19 11,11 0 0 1 -2.11,0.51 c -1.37,0.27 -3.36,0.64 -5.82,1.07 -4.92,0.88 -11.74,2 -19.31,3.27 l -0.33,0.05 -0.12,-0.32 -0.2,-0.52 c -2.75,-7.3 -5.19,-13.92 -6.92,-18.72 -0.86,-2.41 -1.55,-4.36 -2,-5.71 a 10.66,10.66 0 0 1 -0.63,-2.14 z"
     class="cls-11" />
  <path
     transform="translate(-171.07963,-209.09732)"
     clip-path="url(#clipPath485)"
     id="path153"
     d="m 444.32182,570.46587 c -0.23,0.05 -1.49,-4.71 -3.08,-10.56 -1.59,-5.85 -2.93,-10.59 -2.7,-10.66 0.23,-0.07 1.9,4.57 3.5,10.44 1.6,5.87 2.5,10.73 2.28,10.78 z"
     class="cls-11" />
  <path
     transform="translate(-171.07963,-209.09732)"
     clip-path="url(#clipPath481)"
     id="path155"
     d="m 404.80182,545.58587 c 0,-0.22 4.61,-1.15 10.37,-2.06 5.76,-0.91 10.46,-1.47 10.5,-1.24 0.04,0.23 -4.61,1.15 -10.37,2.06 -5.76,0.91 -10.46,1.44 -10.5,1.24 z"
     class="cls-11" />
</svg>
