<svg id="Layer_1" data-name="Layer 1" xmlns="http://www.w3.org/2000/svg" xmlns:xlink="http://www.w3.org/1999/xlink" viewBox="0 0 1530.93 1704.46"><defs><style>.cls-1{fill:none;}.cls-2{clip-path:url(#clip-path);}.cls-3{fill:url(#linear-gradient);}.cls-4{clip-path:url(#clip-path-2);}.cls-5{fill:url(#linear-gradient-2);}.cls-6{fill:url(#linear-gradient-3);}.cls-7{fill:#829dff;}.cls-8{fill:#6783e6;}.cls-9{fill:#7c95ef;}.cls-10{fill:#7790eb;}.cls-11{fill:#0d1e51;}.cls-12{fill:#a1b3f8;}.cls-13{fill:#092268;}.cls-14{fill:#2b47a4;}.cls-15,.cls-20{fill:#fff;}.cls-15{opacity:0.41;}.cls-16{fill:#d0d7f3;}.cls-17{fill:#7393ff;}.cls-18{fill:#273d83;}.cls-19{fill:#e5e8f5;}</style><clipPath id="clip-path" transform="translate(-5909.9 -6267.6)"><rect class="cls-1" x="6559.5" y="6699.5" width="982.62" height="1000"/></clipPath><linearGradient id="linear-gradient" x1="6923.92" y1="6461.3" x2="7083.2" y2="6119.98" gradientTransform="matrix(0.48, -0.88, 0.88, 0.48, -2406.58, 10124.57)" gradientUnits="userSpaceOnUse"><stop offset="0" stop-color="#ff3f3f"/><stop offset="0.55" stop-color="#ff5353"/><stop offset="1" stop-color="#f66"/></linearGradient><clipPath id="clip-path-2" transform="translate(-5909.9 -6267.6)"><path class="cls-1" d="M6087.53,7847.44c-197.34-29.46-205.62-186.74-142.95-274.21,88.78-123.91,169.84-103.73,46-307.84-42-69.3-58.21-157.78-26.36-234.3,22.91-55,70.27-100.16,127.48-116.91,31.83-9.32,65.49-10,98.08-16.16s66.08-19.34,85.08-46.53c18.29-26.18,19.82-60.64,15.43-92.27-10.55-76.09-52.15-145.75-55.87-223-3.13-65.13,18.41-139.89,64.4-187.28,60.21-62,153.74-75.36,236-80.13,96.48-5.6,193.73,8.85,285.47,38.79,117.51,38.35,226.05,101.63,322.64,178.78,86,68.68,163.68,149.43,218.7,244.73,87,150.73,137.39,396.48-39.91,504.34-213.44,129.87-351.13-95.28-362.71,126.25-6.93,132.56-101.89,339.84-360.83,236.59S6371.73,7889.86,6087.53,7847.44Z"/></clipPath><linearGradient id="linear-gradient-2" x1="7802.2" y1="7322.65" x2="7846.86" y2="6927.33" gradientTransform="matrix(-1, 0, 0, 1, 14686.1, 0)" xlink:href="#linear-gradient"/><linearGradient id="linear-gradient-3" x1="7620.93" y1="7523.88" x2="7955.05" y2="6890.38" gradientTransform="matrix(-1, 0, 0, 1, 14686.1, 0)" xlink:href="#linear-gradient"/></defs><title>خلفية 1</title><g class="cls-2"><path class="cls-3" d="M6087.53,7847.44c-197.34-29.46-205.62-186.74-142.95-274.21,88.78-123.91,169.84-103.73,46-307.84-42-69.3-58.21-157.78-26.36-234.3,22.91-55,70.27-100.16,127.48-116.91,31.83-9.32,65.49-10,98.08-16.16s66.08-19.34,85.08-46.53c18.29-26.18,19.82-60.64,15.43-92.27-10.55-76.09-52.15-145.75-55.87-223-3.13-65.13,18.41-139.89,64.4-187.28,60.21-62,153.74-75.36,236-80.13,96.48-5.6,193.73,8.85,285.47,38.79,117.51,38.35,226.05,101.63,322.64,178.78,86,68.68,163.68,149.43,218.7,244.73,87,150.73,137.39,396.48-39.91,504.34-213.44,129.87-351.13-95.28-362.71,126.25-6.93,132.56-101.89,339.84-360.83,236.59S6371.73,7889.86,6087.53,7847.44Z" transform="translate(-5909.9 -6267.6)"/><g class="cls-4"><path class="cls-5" d="M7408.7,6992.83c-4-133.52-107.88-151.47-171-116.72-89.4,49.22-82.4,104.7-208.29,6.23-42.75-33.43-100.29-51.18-153.68-36.06-38.41,10.88-72.15,38.8-87.81,75.51-8.72,20.42-11.83,42.75-18.5,63.92s-18.09,42.4-37.66,52.88c-18.85,10.09-41.88,8.39-62.57,3-49.75-13-92.77-46.2-143.84-54.79-43-7.23-94.47,1.18-129.6,28-46,35.11-62.26,96.24-71.95,150.55-11.35,63.7-9.43,129.5,3.22,192.85,16.2,81.16,49.68,158.32,93.33,228.64,38.86,62.59,86.4,120.64,145.41,164.75,93.32,69.78,252.71,122.7,338.45,13.36,103.21-131.63-35.58-241,112.61-231.15,88.68,5.88,234-40.86,185.83-221.17S7414.43,7185.12,7408.7,6992.83Z" transform="translate(-5909.9 -6267.6)"/><path class="cls-6" d="M7393.86,7012.37c-46-117.37-144.08-100.22-189.09-49.26-63.76,72.2-39.87,119.27-183.09,71.86-48.61-16.09-105.4-13.53-148,16.9-30.65,21.89-51.75,57.44-54,95-1.24,20.92,3.11,41.75,3.92,62.69s-2.57,43.43-16.63,59c-13.53,15-34.54,20.78-54.64,22.55-48.35,4.26-97.14-11.5-145.25-2.87-40.55,7.28-83.56,31.12-106.23,66.15-29.68,45.84-24.68,105.33-16,156.67,10.19,60.21,32.85,118.06,64.26,170.32,40.24,67,94.55,124.85,155.72,173.42,54.46,43.25,115.18,79.68,181.66,100.09,105.13,32.27,263.6,28.54,305-95.9,49.79-149.82-108.34-202.77,26.45-241.23,80.66-23,194.89-110.81,94.69-255.68S7460.17,7181.4,7393.86,7012.37Z" transform="translate(-5909.9 -6267.6)"/></g></g><path class="cls-7" d="M7074.65,7192.06c6.18,5.93,8.53,15.17,2.64,22.29-5.55,6.71-16.28,8.14-23.21,2.79-16.73-12.91.7-36.74,18.76-31.81,3.34.92,2.51,5.68-.8,5.87-5.28.3-10.92.5-15.14,4.2-4.53,4-4.63,10.69-.91,15.26,9.84,12.1,26.93-5.71,16.59-16.53a1.46,1.46,0,0,1,2.07-2.07Z" transform="translate(-5909.9 -6267.6)"/><path class="cls-8" d="M6902.35,7212.49c-2.27,8.42-4.77,16.73-7.36,25.05a2.62,2.62,0,0,1-4.23,1.46c-6.77-4.59-13.53-9.11-19.93-14.19a2.41,2.41,0,0,1,.25-3.79c7.5-5.14,17.63-12.74,27.15-12.8,2.42,0,4.11,3.4,1.65,4.81-3.84,2.22-8.44,3-12.54,4.71a68.82,68.82,0,0,0-13.6,7.26c-.1-1.38-.19-2.76-.28-4.14,7.15,4.41,13.9,9.35,20.7,14.28l-4,.8c2.91-8.22,5.89-16.37,9.11-24.47.68-1.71,3.58-.77,3.1,1Z" transform="translate(-5909.9 -6267.6)"/><path class="cls-9" d="M6854.88,7257.05a196,196,0,0,1-29.39-16.84c-3.33-2.39-.05-7.05,3.45-5.21a192.08,192.08,0,0,1,27.76,18.3c1.73,1.34.45,4.84-1.82,3.75Z" transform="translate(-5909.9 -6267.6)"/><path class="cls-10" d="M7225.11,7287.76a195.17,195.17,0,0,1,8.82-32.7c1.46-3.83,6.79-1.84,5.91,2a191.63,191.63,0,0,1-10.65,31.49c-.85,2-4.56,1.67-4.08-.81Z" transform="translate(-5909.9 -6267.6)"/><path class="cls-11" d="M7193.47,7190.9l.57-.5c2.49-2.2,6.57-2.64,9,0a6.5,6.5,0,0,1,0,9l-.5.57a6.45,6.45,0,0,1-9.06,0c-2.23-2.43-2.68-6.69,0-9.06Z" transform="translate(-5909.9 -6267.6)"/><path class="cls-8" d="M6925.59,7472.91s105.63,24.58,148.07-17.86l-15.19-101.35c-4.61-29.13-1.86-85.18-24.17-105.07a38.38,38.38,0,0,0-8.47-5.76c-15.66-7.56-43.5-11.64-70.23-11.74-32.48-.13-65.9,24.43-74.43,55.76l35.15,82.22Z" transform="translate(-5909.9 -6267.6)"/><path class="cls-12" d="M6936,7299.52s-47.32,91.15-23.82,96c77.3,16,122.16,29.07,122.16,29.07l3.94,30c-1.15,4.54-156.38.62-174.77-20.24-13-14.72-30.24-48.75,6.48-122.41l11.15-25.06Z" transform="translate(-5909.9 -6267.6)"/><path class="cls-12" d="M7024.9,7252.57l117.86,45.63,3.69-61.83,25.23-9.76s36.59,99.24-9.17,117.72-97.32-15.66-97.32-15.66Z" transform="translate(-5909.9 -6267.6)"/><path class="cls-8" d="M7010.32,7237.42c41.13,13.1,65.67,28.46,123.58,52.62l-29.73,66.31-51.26-16.45Z" transform="translate(-5909.9 -6267.6)"/><polyline class="cls-8" points="1033.22 1019.29 1003.33 1088.75 935.9 1076.44 981.33 998.21 1035.1 1019.29"/><path class="cls-13" d="M6978.4,7334.25c-14.36-.8-28.54-.18-42.89,0-1.25,0-1.18-1.76,0-1.9,14.14-1.69,28.74-1,42.89.21,1.06.09,1.09,1.74,0,1.68Z" transform="translate(-5909.9 -6267.6)"/><path class="cls-13" d="M6914.08,7253.69c48.51,4.38,15.33,75.91,2.9,97.57a1.09,1.09,0,0,1-1.87-1.1c12.36-21.87,45.43-88.44-1.19-95.29-.67-.1-.52-1.25.16-1.18Z" transform="translate(-5909.9 -6267.6)"/><path class="cls-13" d="M7048.54,7294.58a402.64,402.64,0,0,1,11.46,73.13c.06,1-1.65,1.27-1.8.24-3.47-24.39-7-48.71-10.87-73-.12-.77,1-1.13,1.21-.33Z" transform="translate(-5909.9 -6267.6)"/><path class="cls-11" d="M6935,7162.45q-1.11-15.37-2.23-30.73c-8.05-2.27-12.24-12.57-9-20.29s12.34-12.06,20.62-10.88c-5.23-3.56-4.83-12.06-.54-16.7s11-6.15,17.33-6.39,12.71.52,18.93-.64c5.5-1,10.9-3.54,16.46-2.84s10.86,7,7.87,11.69c8-1.18,16.68-2.25,23.8,1.61s10.7,14.87,4.58,20.18c4,2.06,5.05,7.91,2.78,11.84s-6.92,6-11.45,6.31-9-.82-13.41-2" transform="translate(-5909.9 -6267.6)"/><path class="cls-12" d="M6936.29,7142.53l1.62,21.29s-18.1,2.44-12.94,19,17.54,9.29,17.54,9.29,3.1,42.32,46.44,28.9c34.5-10.68,32.39-55.35,28-93.44a25.49,25.49,0,0,0-30.23-22.05l-26.06,5.07A30.26,30.26,0,0,0,6936.29,7142.53Z" transform="translate(-5909.9 -6267.6)"/><path class="cls-12" d="M6937.91,7181.49l11.68,62.28a25,25,0,0,0,30.35,19.7h0a25,25,0,0,0,18.8-28.67l-6.34-35.7Z" transform="translate(-5909.9 -6267.6)"/><path class="cls-11" d="M6985.86,7182.19s.11.12.28.33a1.69,1.69,0,0,0,.94.63,2,2,0,0,0,1.67-.49,3.75,3.75,0,0,0,1.21-2.07,20.61,20.61,0,0,0,.14-6.65c-.17-2.56-.36-5.36-.55-8.3-.37-5.9-.66-11.23-.83-15.1-.08-1.93-.13-3.5-.15-4.58a7.3,7.3,0,0,1,.05-1.69,6.55,6.55,0,0,1,.27,1.67c.12,1.08.26,2.64.42,4.56.32,3.86.7,9.19,1.07,15.09.17,2.94.33,5.74.48,8.3s.29,4.93-.34,6.87A4.12,4.12,0,0,1,6989,7183a2.3,2.3,0,0,1-2,.43,1.74,1.74,0,0,1-1-.84C6985.87,7182.35,6985.83,7182.2,6985.86,7182.19Z" transform="translate(-5909.9 -6267.6)"/><path class="cls-11" d="M6999.92,7216.61a6.34,6.34,0,0,1-1.32,1.14,29.41,29.41,0,0,1-4,2.52,34.28,34.28,0,0,1-30.42.64,30,30,0,0,1-4.14-2.34,6.22,6.22,0,0,1-1.36-1.09c.08-.13,2.1,1.33,5.74,2.89a35.89,35.89,0,0,0,29.91-.63C6997.88,7218,6999.83,7216.48,6999.92,7216.61Z" transform="translate(-5909.9 -6267.6)"/><path class="cls-11" d="M6991.45,7190.93a5.94,5.94,0,0,1-2.52,2.41,10,10,0,0,1-14.47-4.65,5.92,5.92,0,0,1-.64-3.43,32,32,0,0,0,1.17,3.18,9.88,9.88,0,0,0,13.65,4.39A31.72,31.72,0,0,0,6991.45,7190.93Z" transform="translate(-5909.9 -6267.6)"/><path class="cls-11" d="M6936.55,7184.84c0,.05-.26.11-.73.11a5.11,5.11,0,0,1-2-.39,3.71,3.71,0,0,1-2.13-2.19,3.09,3.09,0,0,1-.07-1.91,2.36,2.36,0,0,1,1.45-1.54,2.26,2.26,0,0,1,2.77.79l-.71.36c-1.47-3.44-2.42-6-2.25-6.07s1.42,2.35,3,5.75l-.7.37a1.49,1.49,0,0,0-1.8-.42,1.86,1.86,0,0,0-.94,2.43,3.21,3.21,0,0,0,1.65,1.9C6935.49,7184.71,6936.57,7184.69,6936.55,7184.84Z" transform="translate(-5909.9 -6267.6)"/><path class="cls-11" d="M6969.92,7142.87c-.05.24-2.11-.2-4.53.46s-4,2-4.17,1.83.22-.54.9-1.1a8.08,8.08,0,0,1,3.06-1.54,8,8,0,0,1,3.42-.16C6969.46,7142.51,6970,7142.77,6969.92,7142.87Z" transform="translate(-5909.9 -6267.6)"/><path class="cls-11" d="M7007.4,7136.93c-.08.24-2.27-.5-5-.24s-4.77,1.33-4.9,1.11.39-.5,1.24-.94a10.15,10.15,0,0,1,7.29-.64C7006.94,7136.51,7007.44,7136.83,7007.4,7136.93Z" transform="translate(-5909.9 -6267.6)"/><path class="cls-11" d="M6937.91,7163.82c12.1-11.8,15.66-31.45,18.94-48a42.39,42.39,0,0,0,39.54,5.15,63.6,63.6,0,0,0,14.08,12.3c1.5,1,3.27,1.89,5,1.38,2-.61,2.93-2.94,3.41-5a35.5,35.5,0,0,0-.7-20.07c-2.31-6.38-7.14-12-13.47-14.44-6.77-2.62-14.38-1.48-21.41.34a118.94,118.94,0,0,0-30.21,12.48c-9.26,5.43-18.15,12.6-22.08,22.59s-3.91,29.39,5.56,34.44" transform="translate(-5909.9 -6267.6)"/><path class="cls-11" d="M6966.66,7160.21c-.23,0-.52-1.43-.65-3.24s-.05-3.28.18-3.3.52,1.44.65,3.24S6966.88,7160.19,6966.66,7160.21Z" transform="translate(-5909.9 -6267.6)"/><path class="cls-11" d="M7001.46,7155.77c-.23,0-.52-1.44-.65-3.24s0-3.28.18-3.3.52,1.43.65,3.24S7001.69,7155.75,7001.46,7155.77Z" transform="translate(-5909.9 -6267.6)"/><path class="cls-12" d="M7173,7228.67s-5.24-32.15-11.49-31.8-18.76,0-18.76,0-1.05-30.58-4.52-25.71-4.57,46,8.83,65.74Z" transform="translate(-5909.9 -6267.6)"/><path class="cls-12" d="M7034.37,7424.59s56.08,9.81,55,17.09a52.77,52.77,0,0,1-5,14.61l-49.95-1.17Z" transform="translate(-5909.9 -6267.6)"/><polygon class="cls-14" points="1063.6 1190.45 1064.02 1182.69 1179.54 1175.63 1218.27 1072 1345.06 1078.97 1301.8 1191.03 1063.6 1190.45"/><path class="cls-15" d="M7185.06,7395.92a9.4,9.4,0,1,1-8.87-9.91A9.39,9.39,0,0,1,7185.06,7395.92Z" transform="translate(-5909.9 -6267.6)"/><path class="cls-15" d="M7188.81,7396.12a13.16,13.16,0,1,1-12.41-13.86A13.15,13.15,0,0,1,7188.81,7396.12Z" transform="translate(-5909.9 -6267.6)"/><path class="cls-16" d="M7273.78,7460.35l-495.84-6.19-29,15.25S7129.55,7573.88,7273.78,7460.35Z" transform="translate(-5909.9 -6267.6)"/><path class="cls-16" d="M6885.93,7093.57c1.5,2.91-3.41,78.19-3.41,78.19l-37.07-3.08,4.32,19.87-18.11-20.42-36.27-4.2,2.21-73Z" transform="translate(-5909.9 -6267.6)"/><path class="cls-17" d="M6980.09,6976.29s25.54,1.28,26.39,28.53c0,0-.42,14.89-8.51,20.43s-7.67,11.49-7.67,11.49H6969s.85-7.66-2.56-11.92-11.92-13.19-10.64-26.39S6966.89,6975,6980.09,6976.29Z" transform="translate(-5909.9 -6267.6)"/><path class="cls-14" d="M6990.71,7043.43c-7.64-.36-15.37.48-23,0-1.1-.06-1.47-1.77-.27-2,7.38-1.52,15.81-.68,23.23.16,1.14.13,1.2,1.87,0,1.82Z" transform="translate(-5909.9 -6267.6)"/><path class="cls-14" d="M6987.74,7050.1c-3.05-.17-6.11-.3-9.16-.27s-6.14.54-9.16.32a1,1,0,0,1-.27-2c5.83-1.53,12.93-.64,18.83.19,1,.14.78,1.84-.24,1.78Z" transform="translate(-5909.9 -6267.6)"/><path class="cls-14" d="M6985.23,7055.05c-2.67.19-5.42.94-8.08.88a1.17,1.17,0,0,1-.31-2.28c2.59-.81,5.71-.53,8.39-.42a.91.91,0,0,1,0,1.82Z" transform="translate(-5909.9 -6267.6)"/><path class="cls-14" d="M6984,7036.45c-.59-7.57,2-15.95,3.26-23.39l2.22.94c-1.07,1.76-2.85,6.83-5.58,6.65s-3.87-5.22-4.27-7.27h2.44c-.55,2.33-.62,8-4.29,7.44-3.11-.45-5.21-5.07-6.16-7.6l2.53-.7c1.88,7.41,2.78,16.79.9,24.26a1.24,1.24,0,0,1-2.43-.33c.23-7.85,1.33-15.53-1-23.23-.5-1.65,1.93-2.23,2.53-.7.35.88,2.36,5.85,4.26,5.21.48-.16,1.12-4.59,1.22-5a1.28,1.28,0,0,1,2.44,0c.27,1.53.91,5.67,2.7,4.43,1-.71,2-3.26,2.61-4.36a1.22,1.22,0,0,1,2.22.94c-1.17,7.44-1.49,16.09-4.48,23-.26.6-1.08.22-1.12-.3Z" transform="translate(-5909.9 -6267.6)"/><path class="cls-17" d="M7059.56,7025.75c-11.38-3.65-22.72-7.61-34.21-10.89a.31.31,0,0,0-.17.59c11.27,4,22.8,7.38,34.18,11,.46.14.65-.57.2-.72Z" transform="translate(-5909.9 -6267.6)"/><path class="cls-17" d="M7045.26,6991.76c-7.21-.21-14.46-.65-21.68-.54a.39.39,0,0,0,0,.77c7.2.49,14.47.43,21.68.6a.42.42,0,0,0,0-.83Z" transform="translate(-5909.9 -6267.6)"/><path class="cls-17" d="M7012,6981.8c8.33-6.84,17.17-13.28,25-20.69.46-.44-.16-1.3-.7-.91-8.71,6.42-16.65,14-24.89,21-.41.35.18.93.59.59Z" transform="translate(-5909.9 -6267.6)"/><path class="cls-17" d="M6993.49,6970.15a31,31,0,0,0,3.8-5.46c1.33-2.1,2.81-4.17,3.94-6.4a.54.54,0,0,0-.94-.55c-1.49,2-2.68,4.25-4,6.38a31.07,31.07,0,0,0-3.18,5.82.21.21,0,0,0,.35.21Z" transform="translate(-5909.9 -6267.6)"/><path class="cls-17" d="M6977.4,6965.43c.44-11,1.07-22.11.73-33.09a.51.51,0,0,0-1,0c-.79,10.95-.61,22.1-.62,33.09a.45.45,0,0,0,.9,0Z" transform="translate(-5909.9 -6267.6)"/><path class="cls-17" d="M6964.36,6969.93c-2.33-4.26-4.64-8.55-7.24-12.65a.53.53,0,0,0-.92.54c2.3,4.28,4.9,8.39,7.46,12.52a.41.41,0,0,0,.7-.41Z" transform="translate(-5909.9 -6267.6)"/><path class="cls-17" d="M6953.78,6978.46c-9.55-6-19.78-12.37-30.08-16.94a.48.48,0,0,0-.48.82c9.28,6.39,20.09,11.77,30.18,16.78a.38.38,0,0,0,.38-.66Z" transform="translate(-5909.9 -6267.6)"/><path class="cls-17" d="M6946,6992.35a33.43,33.43,0,0,1-6.77-.67,50.89,50.89,0,0,1-5.75-2c-.63-.23-.94.69-.43,1a19,19,0,0,0,13.07,2.5c.49-.08.34-.82-.12-.84Z" transform="translate(-5909.9 -6267.6)"/><path class="cls-17" d="M6944.14,7011.74c-15.39,3-31.24,5.47-46.36,9.63-.84.23-.47,1.4.35,1.28,15.51-2.31,31-6.45,46.28-9.92.65-.14.37-1.11-.27-1Z" transform="translate(-5909.9 -6267.6)"/><path class="cls-18" d="M7161,7280.23c-.51-3.38-.41-6.59-2.3-9.56-3.76-5.92-9.1-4.43-14.27-1.82s-10.23,4.24-16,1.76c-8.95-3.87-13.14-17.36-4.61-23.71,2.77-2.06,5.49,1.34,5.12,3.93-.52,3.63-2.32,7.63.79,10.75,4.16,4.17,9,.66,13.18-1.21a17.23,17.23,0,0,1,13.87-.59c8,3.22,13.73,14,7.41,21.3a1.94,1.94,0,0,1-3.23-.85Z" transform="translate(-5909.9 -6267.6)"/><path class="cls-9" d="M7043.49,7286.75a196.67,196.67,0,0,1-31.94-11.29c-3.7-1.75-1.31-6.92,2.47-5.75a191.43,191.43,0,0,1,30.58,13c1.95,1,1.32,4.67-1.11,4Z" transform="translate(-5909.9 -6267.6)"/><path class="cls-19" d="M7096.82,7297.94c-2.27,8.41-4.76,16.73-7.35,25.05a2.63,2.63,0,0,1-4.24,1.46c-6.76-4.6-13.52-9.11-19.93-14.2a2.41,2.41,0,0,1,.26-3.78c7.5-5.15,17.63-12.75,27.14-12.8,2.42,0,4.11,3.39,1.66,4.81-3.84,2.21-8.44,3-12.55,4.71a68.07,68.07,0,0,0-13.6,7.26c-.09-1.38-.18-2.76-.28-4.14,7.16,4.4,13.9,9.35,20.71,14.27l-4,.8c2.9-8.21,5.88-16.37,9.1-24.46.68-1.71,3.58-.78,3.1,1Z" transform="translate(-5909.9 -6267.6)"/><path class="cls-18" d="M7082,7382.14a200.57,200.57,0,0,1-33.87.06c-4.08-.4-3.58-6,.38-6.12a197,197,0,0,1,33.18,2c2.18.29,2.82,3.89.31,4.08Z" transform="translate(-5909.9 -6267.6)"/><polygon class="cls-16" points="1337.81 808.92 1331.52 883.97 1193.32 883.97 1185.67 910.38 1177.6 881.42 1151.27 879.89 1163.41 812.67 1337.81 808.92"/><path class="cls-20" d="M7229.57,7102.67c-47.52-2.78-95.12-1.61-142.55,2.2-.68.06-.68,1.14,0,1.07,47.39-4.4,95-4.74,142.55-2.33.6,0,.6-.9,0-.94Z" transform="translate(-5909.9 -6267.6)"/><path class="cls-20" d="M7226.8,7117.49c-47.52-2.79-95.13-1.62-142.55,2.19-.69.06-.69,1.14,0,1.08,47.38-4.41,95-4.75,142.55-2.34.6,0,.59-.9,0-.93Z" transform="translate(-5909.9 -6267.6)"/><path class="cls-20" d="M7226.54,7129.88c-16,.34-31.92.17-47.91-.31s-31.74.49-47.61,1.68c-.69.05-.69,1.13,0,1.07a400.5,400.5,0,0,1,47.61-1.8c16,.47,31.91.83,47.91.29a.47.47,0,0,0,0-.93Z" transform="translate(-5909.9 -6267.6)"/><path class="cls-20" d="M6864.05,7130.48s-13.08,29.39-16.73,27.85-37.45-22.51-37.45-22.51,13.85-26.31,16.74-27.84S6864.05,7130.48,6864.05,7130.48Z" transform="translate(-5909.9 -6267.6)"/><path class="cls-11" d="M6826.61,7108a11.08,11.08,0,0,1,.93,2c.55,1.32,1.32,3.24,2.25,5.62,1.87,4.75,4.4,11.34,7.15,18.64l.19.52-.45-.26c7.57-1.23,14.4-2.29,19.35-3,2.47-.36,4.47-.64,5.86-.82a12.22,12.22,0,0,1,2.16-.19,11,11,0,0,1-2.11.51c-1.37.27-3.36.64-5.82,1.07-4.92.88-11.74,2-19.31,3.27l-.33.05-.12-.32-.2-.52c-2.75-7.3-5.19-13.92-6.92-18.72-.86-2.41-1.55-4.36-2-5.71A10.66,10.66,0,0,1,6826.61,7108Z" transform="translate(-5909.9 -6267.6)"/><path class="cls-11" d="M6851.62,7154.88c-.23.05-1.49-4.71-3.08-10.56s-2.93-10.59-2.7-10.66,1.9,4.57,3.5,10.44S6851.84,7154.83,6851.62,7154.88Z" transform="translate(-5909.9 -6267.6)"/><path class="cls-11" d="M6812.1,7130c0-.22,4.61-1.15,10.37-2.06s10.46-1.47,10.5-1.24-4.61,1.15-10.37,2.06S6812.14,7130.2,6812.1,7130Z" transform="translate(-5909.9 -6267.6)"/></svg>