<svg id="Layer_1" data-name="Layer 1" xmlns="http://www.w3.org/2000/svg" xmlns:xlink="http://www.w3.org/1999/xlink" viewBox="0 0 1530.93 1704.46"><defs><style>.cls-1{fill:none;}.cls-2{clip-path:url(#clip-path);}.cls-3{fill:url(#linear-gradient);}.cls-4{clip-path:url(#clip-path-2);}.cls-5{fill:url(#linear-gradient-2);}.cls-6{fill:url(#linear-gradient-3);}.cls-7{fill:#829dff;}.cls-8{fill:#6783e6;}.cls-9{fill:#7c95ef;}.cls-10{fill:#7790eb;}.cls-11{fill:#0d1e51;}.cls-12{fill:#a1b3f8;}.cls-13{fill:#092268;}.cls-14{fill:#2b47a4;}.cls-15,.cls-20{fill:#fff;}.cls-15{opacity:0.41;}.cls-16{fill:#d0d7f3;}.cls-17{fill:#7393ff;}.cls-18{fill:#273d83;}.cls-19{fill:#e5e8f5;}</style><clipPath id="clip-path" transform="translate(-6953.03 -6267.6)"><rect class="cls-1" x="6851.74" y="6699.5" width="982.62" height="1000"/></clipPath><linearGradient id="linear-gradient" x1="7064.56" y1="6717.46" x2="7223.84" y2="6376.14" gradientTransform="matrix(-0.48, -0.88, -0.88, 0.48, 17092.68, 10124.57)" gradientUnits="userSpaceOnUse"><stop offset="0" stop-color="#ff3f3f"/><stop offset="0.55" stop-color="#ff5353"/><stop offset="1" stop-color="#f66"/></linearGradient><clipPath id="clip-path-2" transform="translate(-6953.03 -6267.6)"><path class="cls-1" d="M8306.33,7847.44c197.34-29.46,205.62-186.74,143-274.21-88.78-123.91-169.84-103.73-46-307.84,42-69.3,58.21-157.78,26.36-234.3-22.91-55-70.27-100.16-127.48-116.91-31.83-9.32-65.49-10-98.08-16.16s-66.08-19.34-85.08-46.53c-18.29-26.18-19.82-60.64-15.43-92.27,10.55-76.09,52.15-145.75,55.87-223,3.13-65.13-18.41-139.89-64.4-187.28-60.21-62-153.74-75.36-236-80.13-96.48-5.6-193.73,8.85-285.47,38.79-117.51,38.35-226,101.63-322.64,178.78-86,68.68-163.68,149.43-218.7,244.73-87,150.73-137.39,396.48,39.91,504.34,213.44,129.87,351.13-95.28,362.71,126.25,6.93,132.56,101.89,339.84,360.83,236.59S8022.13,7889.86,8306.33,7847.44Z"/></clipPath><linearGradient id="linear-gradient-2" x1="7509.96" y1="7322.65" x2="7554.62" y2="6927.33" gradientTransform="matrix(1, 0, 0, 1, 0, 0)" xlink:href="#linear-gradient"/><linearGradient id="linear-gradient-3" x1="7328.69" y1="7523.88" x2="7662.81" y2="6890.38" gradientTransform="matrix(1, 0, 0, 1, 0, 0)" xlink:href="#linear-gradient"/></defs><title>OGTDM</title><g class="cls-2"><path class="cls-3" d="M8306.33,7847.44c197.34-29.46,205.62-186.74,143-274.21-88.78-123.91-169.84-103.73-46-307.84,42-69.3,58.21-157.78,26.36-234.3-22.91-55-70.27-100.16-127.48-116.91-31.83-9.32-65.49-10-98.08-16.16s-66.08-19.34-85.08-46.53c-18.29-26.18-19.82-60.64-15.43-92.27,10.55-76.09,52.15-145.75,55.87-223,3.13-65.13-18.41-139.89-64.4-187.28-60.21-62-153.74-75.36-236-80.13-96.48-5.6-193.73,8.85-285.47,38.79-117.51,38.35-226,101.63-322.64,178.78-86,68.68-163.68,149.43-218.7,244.73-87,150.73-137.39,396.48,39.91,504.34,213.44,129.87,351.13-95.28,362.71,126.25,6.93,132.56,101.89,339.84,360.83,236.59S8022.13,7889.86,8306.33,7847.44Z" transform="translate(-6953.03 -6267.6)"/><g class="cls-4"><path class="cls-5" d="M6985.16,6992.83c4-133.52,107.88-151.47,171-116.72,89.4,49.22,82.4,104.7,208.29,6.23,42.75-33.43,100.29-51.18,153.68-36.06,38.41,10.88,72.15,38.8,87.81,75.51,8.72,20.42,11.83,42.75,18.5,63.92s18.09,42.4,37.66,52.88c18.85,10.09,41.88,8.39,62.57,3,49.75-13,92.77-46.2,143.84-54.79,43.05-7.23,94.47,1.18,129.6,28,46,35.11,62.26,96.24,71.95,150.55,11.35,63.7,9.43,129.5-3.22,192.85-16.2,81.16-49.68,158.32-93.33,228.64-38.86,62.59-86.4,120.64-145.41,164.75-93.32,69.78-252.71,122.7-338.45,13.36-103.21-131.63,35.58-241-112.61-231.15-88.68,5.88-234-40.86-185.83-221.17S6979.43,7185.12,6985.16,6992.83Z" transform="translate(-6953.03 -6267.6)"/><path class="cls-6" d="M7000,7012.37c46.05-117.37,144.08-100.22,189.09-49.26,63.76,72.2,39.87,119.27,183.09,71.86,48.61-16.09,105.4-13.53,148,16.9,30.65,21.89,51.75,57.44,54,95,1.24,20.92-3.11,41.75-3.92,62.69s2.57,43.43,16.63,59c13.53,15,34.54,20.78,54.64,22.55,48.35,4.26,97.14-11.5,145.25-2.87,40.55,7.28,83.56,31.12,106.23,66.15,29.68,45.84,24.68,105.33,16,156.67-10.19,60.21-32.85,118.06-64.26,170.32-40.24,67-94.55,124.85-155.72,173.42-54.46,43.25-115.18,79.68-181.66,100.09-105.13,32.27-263.6,28.54-305-95.9-49.79-149.82,108.34-202.77-26.45-241.23-80.66-23-194.89-110.81-94.69-255.68S6933.69,7181.4,7000,7012.37Z" transform="translate(-6953.03 -6267.6)"/></g></g><path class="cls-7" d="M7319.21,7192.06c-6.18,5.93-8.53,15.17-2.64,22.29,5.55,6.71,16.28,8.14,23.21,2.79,16.73-12.91-.7-36.74-18.76-31.81-3.34.92-2.51,5.68.8,5.87,5.28.3,10.92.5,15.14,4.2,4.53,4,4.63,10.69.91,15.26-9.84,12.1-26.93-5.71-16.59-16.53a1.46,1.46,0,0,0-2.07-2.07Z" transform="translate(-6953.03 -6267.6)"/><path class="cls-8" d="M7491.51,7212.49c2.27,8.42,4.77,16.73,7.36,25.05a2.62,2.62,0,0,0,4.23,1.46c6.77-4.59,13.53-9.11,19.93-14.19a2.41,2.41,0,0,0-.25-3.79c-7.5-5.14-17.63-12.74-27.15-12.8-2.42,0-4.11,3.4-1.65,4.81,3.84,2.22,8.44,3,12.54,4.71a68.82,68.82,0,0,1,13.6,7.26c.1-1.38.19-2.76.28-4.14-7.15,4.41-13.9,9.35-20.7,14.28l4,.8c-2.91-8.22-5.89-16.37-9.11-24.47-.68-1.71-3.58-.77-3.1,1Z" transform="translate(-6953.03 -6267.6)"/><path class="cls-9" d="M7539,7257.05a196,196,0,0,0,29.39-16.84c3.33-2.39.05-7.05-3.45-5.21a192.08,192.08,0,0,0-27.76,18.3c-1.73,1.34-.45,4.84,1.82,3.75Z" transform="translate(-6953.03 -6267.6)"/><path class="cls-10" d="M7168.75,7287.76a195.17,195.17,0,0,0-8.82-32.7c-1.46-3.83-6.79-1.84-5.91,2a191.63,191.63,0,0,0,10.65,31.49c.85,2,4.56,1.67,4.08-.81Z" transform="translate(-6953.03 -6267.6)"/><path class="cls-11" d="M7200.39,7190.9l-.57-.5c-2.49-2.2-6.57-2.64-9,0a6.5,6.5,0,0,0,0,9l.5.57a6.45,6.45,0,0,0,9.06,0c2.23-2.43,2.68-6.69,0-9.06Z" transform="translate(-6953.03 -6267.6)"/><path class="cls-8" d="M7468.27,7472.91s-105.63,24.58-148.07-17.86l15.19-101.35c4.61-29.13,1.86-85.18,24.17-105.07a38.38,38.38,0,0,1,8.47-5.76c15.66-7.56,43.5-11.64,70.23-11.74,32.48-.13,65.9,24.43,74.43,55.76l-35.15,82.22Z" transform="translate(-6953.03 -6267.6)"/><path class="cls-12" d="M7457.83,7299.52s47.32,91.15,23.82,96c-77.3,16-122.16,29.07-122.16,29.07l-3.94,30c1.15,4.54,156.38.62,174.77-20.24,13-14.72,30.24-48.75-6.48-122.41l-11.15-25.06Z" transform="translate(-6953.03 -6267.6)"/><path class="cls-12" d="M7369,7252.57,7251.1,7298.2l-3.69-61.83-25.23-9.76s-36.59,99.24,9.17,117.72,97.32-15.66,97.32-15.66Z" transform="translate(-6953.03 -6267.6)"/><path class="cls-8" d="M7383.54,7237.42c-41.13,13.1-65.67,28.46-123.58,52.62l29.73,66.31L7341,7339.9Z" transform="translate(-6953.03 -6267.6)"/><polyline class="cls-8" points="497.71 1019.29 527.61 1088.75 595.03 1076.44 549.61 998.21 495.83 1019.29"/><path class="cls-13" d="M7415.46,7334.25c14.36-.8,28.54-.18,42.89,0,1.25,0,1.18-1.76,0-1.9-14.14-1.69-28.74-1-42.89.21-1.06.09-1.09,1.74,0,1.68Z" transform="translate(-6953.03 -6267.6)"/><path class="cls-13" d="M7479.78,7253.69c-48.51,4.38-15.33,75.91-2.9,97.57a1.09,1.09,0,0,0,1.87-1.1c-12.36-21.87-45.43-88.44,1.19-95.29.67-.1.52-1.25-.16-1.18Z" transform="translate(-6953.03 -6267.6)"/><path class="cls-13" d="M7345.32,7294.58a402.64,402.64,0,0,0-11.46,73.13c-.06,1,1.65,1.27,1.8.24,3.47-24.39,7-48.71,10.87-73,.12-.77-1-1.13-1.21-.33Z" transform="translate(-6953.03 -6267.6)"/><path class="cls-11" d="M7458.87,7162.45q1.11-15.37,2.23-30.73c8-2.27,12.24-12.57,9-20.29s-12.34-12.06-20.62-10.88c5.23-3.56,4.83-12.06.54-16.7s-11-6.15-17.33-6.39-12.71.52-18.93-.64c-5.5-1-10.9-3.54-16.46-2.84s-10.86,7-7.87,11.69c-8-1.18-16.68-2.25-23.8,1.61s-10.7,14.87-4.58,20.18c-4,2.06-5,7.91-2.78,11.84s6.92,6,11.45,6.31,9-.82,13.41-2" transform="translate(-6953.03 -6267.6)"/><path class="cls-12" d="M7457.57,7142.53l-1.62,21.29s18.1,2.44,12.94,19-17.54,9.29-17.54,9.29-3.1,42.32-46.44,28.9c-34.5-10.68-32.39-55.35-28-93.44a25.49,25.49,0,0,1,30.23-22.05l26.06,5.07A30.26,30.26,0,0,1,7457.57,7142.53Z" transform="translate(-6953.03 -6267.6)"/><path class="cls-12" d="M7456,7181.49l-11.68,62.28a25,25,0,0,1-30.35,19.7h0a25,25,0,0,1-18.8-28.67l6.34-35.7Z" transform="translate(-6953.03 -6267.6)"/><path class="cls-11" d="M7408,7182.19s0,.16-.14.43a1.74,1.74,0,0,1-1,.84,2.3,2.3,0,0,1-2-.43,4.12,4.12,0,0,1-1.49-2.27c-.63-1.94-.49-4.33-.34-6.87s.31-5.36.48-8.3c.37-5.9.75-11.23,1.07-15.09.16-1.92.3-3.48.42-4.56a6.55,6.55,0,0,1,.27-1.67,7.3,7.3,0,0,1,.05,1.69c0,1.08-.07,2.65-.15,4.58-.17,3.87-.46,9.2-.83,15.1-.19,2.94-.38,5.74-.55,8.3a20.61,20.61,0,0,0,.14,6.65,3.75,3.75,0,0,0,1.21,2.07,2,2,0,0,0,1.67.49,1.69,1.69,0,0,0,.94-.63C7407.89,7182.31,7408,7182.18,7408,7182.19Z" transform="translate(-6953.03 -6267.6)"/><path class="cls-11" d="M7393.94,7216.61c.09-.13,2,1.42,5.62,3.13a35.89,35.89,0,0,0,29.91.63c3.64-1.56,5.66-3,5.74-2.89a6.22,6.22,0,0,1-1.36,1.09,30,30,0,0,1-4.14,2.34,34.28,34.28,0,0,1-30.42-.64,29.41,29.41,0,0,1-4-2.52A6.34,6.34,0,0,1,7393.94,7216.61Z" transform="translate(-6953.03 -6267.6)"/><path class="cls-11" d="M7402.41,7190.93a32.34,32.34,0,0,0,2.8,1.9,9.89,9.89,0,0,0,13.66-4.39,32,32,0,0,0,1.17-3.18,5.92,5.92,0,0,1-.64,3.43,10,10,0,0,1-14.47,4.65A5.88,5.88,0,0,1,7402.41,7190.93Z" transform="translate(-6953.03 -6267.6)"/><path class="cls-11" d="M7457.31,7184.84c0-.15,1.06-.13,2.44-.81a3.21,3.21,0,0,0,1.65-1.9,1.86,1.86,0,0,0-.94-2.43,1.49,1.49,0,0,0-1.8.42l-.7-.37c1.56-3.4,2.81-5.82,3-5.75s-.78,2.63-2.25,6.07l-.71-.36a2.26,2.26,0,0,1,2.77-.79,2.36,2.36,0,0,1,1.45,1.54,3.09,3.09,0,0,1-.07,1.91,3.71,3.71,0,0,1-2.13,2.19,5.11,5.11,0,0,1-2,.39C7457.57,7185,7457.31,7184.89,7457.31,7184.84Z" transform="translate(-6953.03 -6267.6)"/><path class="cls-11" d="M7423.94,7142.87c0-.1.46-.36,1.32-.51a8.22,8.22,0,0,1,6.48,1.7c.68.56,1,1,.9,1.1s-1.74-1.22-4.17-1.83S7424,7143.11,7423.94,7142.87Z" transform="translate(-6953.03 -6267.6)"/><path class="cls-11" d="M7386.46,7136.93c0-.1.46-.42,1.38-.71a10.15,10.15,0,0,1,7.29.64c.85.44,1.29.85,1.24.94s-2.15-.89-4.9-1.11S7386.54,7137.17,7386.46,7136.93Z" transform="translate(-6953.03 -6267.6)"/><path class="cls-11" d="M7456,7163.82c-12.1-11.8-15.66-31.45-18.94-48a42.39,42.39,0,0,1-39.54,5.15,63.6,63.6,0,0,1-14.08,12.3c-1.5,1-3.27,1.89-5,1.38-2-.61-2.93-2.94-3.41-5a35.5,35.5,0,0,1,.7-20.07c2.31-6.38,7.14-12,13.47-14.44,6.77-2.62,14.38-1.48,21.41.34a118.94,118.94,0,0,1,30.21,12.48c9.26,5.43,18.15,12.6,22.08,22.59s3.91,29.39-5.56,34.44" transform="translate(-6953.03 -6267.6)"/><path class="cls-11" d="M7427.2,7160.21c-.22,0-.31-1.49-.18-3.3s.42-3.25.65-3.24.31,1.5.18,3.3S7427.43,7160.23,7427.2,7160.21Z" transform="translate(-6953.03 -6267.6)"/><path class="cls-11" d="M7392.4,7155.77c-.23,0-.31-1.5-.18-3.3s.42-3.26.65-3.24.31,1.49.18,3.3S7392.63,7155.78,7392.4,7155.77Z" transform="translate(-6953.03 -6267.6)"/><path class="cls-12" d="M7220.9,7228.67s5.24-32.15,11.49-31.8,18.76,0,18.76,0,1.05-30.58,4.52-25.71,4.57,46-8.83,65.74Z" transform="translate(-6953.03 -6267.6)"/><path class="cls-12" d="M7359.49,7424.59s-56.08,9.81-55,17.09a52.77,52.77,0,0,0,5,14.61l49.95-1.17Z" transform="translate(-6953.03 -6267.6)"/><polygon class="cls-14" points="467.33 1190.45 466.91 1182.69 351.4 1175.63 312.66 1072 185.87 1078.97 229.13 1191.03 467.33 1190.45"/><path class="cls-15" d="M7208.8,7395.92a9.4,9.4,0,1,0,8.87-9.91A9.39,9.39,0,0,0,7208.8,7395.92Z" transform="translate(-6953.03 -6267.6)"/><path class="cls-15" d="M7205.05,7396.12a13.16,13.16,0,1,0,12.41-13.86A13.15,13.15,0,0,0,7205.05,7396.12Z" transform="translate(-6953.03 -6267.6)"/><path class="cls-16" d="M7120.08,7460.35l495.84-6.19,29,15.25S7264.31,7573.88,7120.08,7460.35Z" transform="translate(-6953.03 -6267.6)"/><path class="cls-16" d="M7507.93,7093.57c-1.5,2.91,3.41,78.19,3.41,78.19l37.07-3.08-4.32,19.87,18.11-20.42,36.27-4.2-2.21-73Z" transform="translate(-6953.03 -6267.6)"/><path class="cls-17" d="M7413.77,6976.29s-25.54,1.28-26.39,28.53c0,0,.42,14.89,8.51,20.43s7.67,11.49,7.67,11.49h21.28s-.85-7.66,2.56-11.92,11.92-13.19,10.64-26.39S7427,6975,7413.77,6976.29Z" transform="translate(-6953.03 -6267.6)"/><path class="cls-14" d="M7403.15,7043.43c7.64-.36,15.37.48,23,0,1.1-.06,1.47-1.77.27-2-7.38-1.52-15.81-.68-23.23.16-1.14.13-1.2,1.87,0,1.82Z" transform="translate(-6953.03 -6267.6)"/><path class="cls-14" d="M7406.12,7050.1c3.05-.17,6.11-.3,9.16-.27s6.14.54,9.16.32a1,1,0,0,0,.27-2c-5.83-1.53-12.93-.64-18.83.19-1,.14-.78,1.84.24,1.78Z" transform="translate(-6953.03 -6267.6)"/><path class="cls-14" d="M7408.63,7055.05c2.67.19,5.42.94,8.08.88a1.17,1.17,0,0,0,.31-2.28c-2.59-.81-5.71-.53-8.39-.42a.91.91,0,0,0,0,1.82Z" transform="translate(-6953.03 -6267.6)"/><path class="cls-14" d="M7409.84,7036.45c.59-7.57-2-15.95-3.26-23.39l-2.22.94c1.07,1.76,2.85,6.83,5.58,6.65s3.87-5.22,4.27-7.27h-2.44c.55,2.33.62,8,4.29,7.44,3.11-.45,5.21-5.07,6.16-7.6l-2.53-.7c-1.88,7.41-2.78,16.79-.9,24.26a1.24,1.24,0,0,0,2.43-.33c-.23-7.85-1.33-15.53,1-23.23.5-1.65-1.93-2.23-2.53-.7-.35.88-2.36,5.85-4.26,5.21-.48-.16-1.12-4.59-1.22-5a1.28,1.28,0,0,0-2.44,0c-.27,1.53-.91,5.67-2.7,4.43-1-.71-2-3.26-2.61-4.36a1.22,1.22,0,0,0-2.22.94c1.17,7.44,1.49,16.09,4.48,23,.26.6,1.08.22,1.12-.3Z" transform="translate(-6953.03 -6267.6)"/><path class="cls-17" d="M7334.5,7026.47c11.38-3.64,22.91-7,34.18-11a.31.31,0,0,0-.17-.59c-11.49,3.28-22.83,7.24-34.21,10.89-.45.15-.26.86.2.72Z" transform="translate(-6953.03 -6267.6)"/><path class="cls-17" d="M7348.6,6992.59c7.21-.17,14.48-.11,21.68-.6a.39.39,0,0,0,0-.77c-7.22-.11-14.47.33-21.68.54a.42.42,0,0,0,0,.83Z" transform="translate(-6953.03 -6267.6)"/><path class="cls-17" d="M7382.48,6981.21c-8.24-7-16.18-14.59-24.89-21-.53-.39-1.17.46-.7.91,7.83,7.41,16.67,13.85,25,20.69.41.34,1-.24.59-.59Z" transform="translate(-6953.03 -6267.6)"/><path class="cls-17" d="M7400.72,6969.94a31.07,31.07,0,0,0-3.18-5.82c-1.29-2.13-2.48-4.38-4-6.38a.54.54,0,0,0-.94.55c1.13,2.23,2.61,4.3,3.94,6.4a31,31,0,0,0,3.8,5.46.21.21,0,0,0,.35-.21Z" transform="translate(-6953.03 -6267.6)"/><path class="cls-17" d="M7417.36,6965.43c0-11,.16-22.14-.62-33.09a.51.51,0,0,0-1,0c-.34,11,.29,22.11.73,33.09a.45.45,0,0,0,.9,0Z" transform="translate(-6953.03 -6267.6)"/><path class="cls-17" d="M7430.2,6970.34c2.56-4.13,5.16-8.24,7.46-12.52a.53.53,0,0,0-.92-.54c-2.6,4.1-4.91,8.39-7.24,12.65a.41.41,0,0,0,.7.41Z" transform="translate(-6953.03 -6267.6)"/><path class="cls-17" d="M7440.46,6979.12c10.09-5,20.9-10.39,30.18-16.78a.48.48,0,0,0-.48-.82c-10.3,4.57-20.54,11-30.08,16.94a.38.38,0,0,0,.38.66Z" transform="translate(-6953.03 -6267.6)"/><path class="cls-17" d="M7447.76,6993.19a19,19,0,0,0,13.07-2.5c.5-.33.2-1.26-.43-1a49,49,0,0,1-5.75,2,34.23,34.23,0,0,1-6.77.67c-.46,0-.61.76-.12.84Z" transform="translate(-6953.03 -6267.6)"/><path class="cls-17" d="M7449.45,7012.73c15.28,3.47,30.77,7.61,46.28,9.92.82.12,1.19-1,.35-1.28-15.12-4.16-31-6.62-46.36-9.63-.64-.12-.92.85-.27,1Z" transform="translate(-6953.03 -6267.6)"/><path class="cls-18" d="M7232.83,7280.23c.51-3.38.41-6.59,2.3-9.56,3.76-5.92,9.1-4.43,14.27-1.82s10.23,4.24,16,1.76c9-3.87,13.14-17.36,4.61-23.71-2.77-2.06-5.49,1.34-5.12,3.93.52,3.63,2.32,7.63-.79,10.75-4.16,4.17-9,.66-13.18-1.21a17.23,17.23,0,0,0-13.87-.59c-8,3.22-13.73,14-7.41,21.3a1.94,1.94,0,0,0,3.23-.85Z" transform="translate(-6953.03 -6267.6)"/><path class="cls-9" d="M7350.37,7286.75a196.67,196.67,0,0,0,31.94-11.29c3.7-1.75,1.31-6.92-2.47-5.75a191.43,191.43,0,0,0-30.58,13c-1.95,1-1.32,4.67,1.11,4Z" transform="translate(-6953.03 -6267.6)"/><path class="cls-19" d="M7297,7297.94c2.27,8.41,4.76,16.73,7.35,25.05a2.63,2.63,0,0,0,4.24,1.46c6.76-4.6,13.52-9.11,19.93-14.2a2.41,2.41,0,0,0-.26-3.78c-7.5-5.15-17.63-12.75-27.14-12.8-2.42,0-4.11,3.39-1.66,4.81,3.84,2.21,8.44,3,12.55,4.71a68.07,68.07,0,0,1,13.6,7.26c.09-1.38.18-2.76.28-4.14-7.16,4.4-13.9,9.35-20.71,14.27l4,.8c-2.9-8.21-5.88-16.37-9.1-24.46-.68-1.71-3.58-.78-3.1,1Z" transform="translate(-6953.03 -6267.6)"/><path class="cls-18" d="M7311.82,7382.14a200.57,200.57,0,0,0,33.87.06c4.08-.4,3.58-6-.38-6.12a197,197,0,0,0-33.18,2c-2.18.29-2.82,3.89-.31,4.08Z" transform="translate(-6953.03 -6267.6)"/><polygon class="cls-16" points="193.12 808.92 199.41 883.97 337.61 883.97 345.26 910.38 353.33 881.42 379.66 879.89 367.52 812.67 193.12 808.92"/><path class="cls-20" d="M7164.29,7103.61c47.5-2.41,95.16-2.07,142.55,2.33.68.07.68-1,0-1.07-47.43-3.81-95-5-142.55-2.2-.6,0-.61,1,0,.94Z" transform="translate(-6953.03 -6267.6)"/><path class="cls-20" d="M7167.06,7118.42c47.51-2.41,95.17-2.07,142.55,2.34.69.06.69-1,0-1.08-47.42-3.81-95-5-142.55-2.19-.59,0-.6,1,0,.93Z" transform="translate(-6953.03 -6267.6)"/><path class="cls-20" d="M7167.32,7130.81c16,.54,31.92.18,47.91-.29a400.5,400.5,0,0,1,47.61,1.8c.69.06.69-1,0-1.07-15.87-1.19-31.7-2.16-47.61-1.68s-31.91.65-47.91.31a.47.47,0,0,0,0,.93Z" transform="translate(-6953.03 -6267.6)"/><path class="cls-20" d="M7529.81,7130.48s13.08,29.39,16.73,27.85,37.45-22.51,37.45-22.51-13.85-26.31-16.74-27.84S7529.81,7130.48,7529.81,7130.48Z" transform="translate(-6953.03 -6267.6)"/><path class="cls-11" d="M7567.25,7108a10.66,10.66,0,0,1-.63,2.13c-.45,1.35-1.14,3.3-2,5.71-1.73,4.8-4.17,11.42-6.92,18.72l-.2.52-.12.32-.33-.05c-7.57-1.23-14.39-2.39-19.31-3.27-2.47-.43-4.45-.8-5.82-1.07a11,11,0,0,1-2.11-.51,11.1,11.1,0,0,1,2.16.19c1.39.18,3.39.46,5.86.82,4.95.73,11.78,1.79,19.35,3l-.45.26c.06-.17.13-.34.19-.52,2.75-7.3,5.28-13.89,7.15-18.64.93-2.38,1.7-4.3,2.25-5.62A11.08,11.08,0,0,1,7567.25,7108Z" transform="translate(-6953.03 -6267.6)"/><path class="cls-11" d="M7542.24,7154.88c-.22-.05.68-4.91,2.28-10.78s3.29-10.51,3.5-10.44-1.11,4.81-2.7,10.66S7542.47,7154.93,7542.24,7154.88Z" transform="translate(-6953.03 -6267.6)"/><path class="cls-11" d="M7581.76,7130c0,.23-4.74-.33-10.5-1.24s-10.4-1.83-10.37-2.06,4.74.33,10.5,1.24S7581.79,7129.75,7581.76,7130Z" transform="translate(-6953.03 -6267.6)"/></svg>